M48
INCH
T83C0.040
T82C0.038
T81C0.125
T80C0.046
T79C0.035
%
T79
X002700Y016100
X002700Y018100
X002700Y019100
X002700Y009100
X002700Y010100
X001700Y009100
X001700Y010100
X002700Y012100
X002700Y013100
X002700Y014100
X002700Y015100
X002700Y011100
X001700Y011100
X001700Y012100
X001700Y013100
X001700Y014100
X001700Y015100
X001700Y016100
X001700Y018100
X001700Y019100
X001700Y020100
X001700Y021100
X001700Y022100
X001700Y023100
X002700Y020100
X002700Y021100
X002700Y022100
X002700Y023100
X019700Y014500
X019700Y013500
X019700Y012500
X019700Y011500
X019700Y010500
X019700Y020100
X019700Y019100
X019700Y018100
X019700Y017100
X019700Y023100
X019700Y022100
X019700Y021100
X020700Y023100
X020700Y022100
X020700Y021100
X020700Y020100
X020700Y019100
X020700Y018100
X019700Y016100
X020700Y016100
X020700Y017100
X020700Y014500
X020700Y013500
X020700Y012500
X020700Y011500
X020700Y010500
X020700Y009500
X020700Y008500
X020700Y007500
X020700Y006500
X020700Y005500
X019700Y009500
X019700Y008500
X019700Y007500
X019700Y006500
X019700Y005500
X020700Y026700
T82
X002200Y025300
X002200Y026300
X002200Y027300
X003200Y027300
X003200Y025300
X003200Y026300
X004200Y025300
X005200Y025300
X004200Y026300
X004200Y027300
X005200Y026300
X005200Y027300
T83
X006200Y025300
X007200Y025300
X006200Y026300
X006200Y027300
X007200Y026300
X007200Y027300
X008200Y025300
X008200Y026300
X008200Y027300
X009200Y025300
X010200Y025300
X009200Y026300
X009200Y027300
X010200Y026300
X010200Y027300
X011200Y026300
X011200Y027300
X011200Y025300
T80
X003120Y003280
X003120Y004280
X003120Y001280
X003120Y002280
X012900Y027300
X012900Y025150
X014280Y027300
X015660Y027300
X017040Y027300
X014280Y025150
X015660Y025150
X017040Y025150
X018420Y025150
X019800Y025150
X018420Y027300
X019800Y027300
X017120Y003280
X017120Y004280
X016120Y003280
X016120Y004280
X015120Y003280
X014120Y003280
X013120Y003280
X015120Y004280
X014120Y004280
X013120Y004280
X012120Y004280
X011120Y004280
X010120Y004280
X012120Y003280
X011120Y003280
X010120Y003280
X009120Y003280
X009120Y004280
X008120Y004280
X007120Y004280
X006120Y004280
X005120Y004280
X004120Y004280
X008120Y003280
X007120Y003280
X006120Y003280
X005120Y003280
X004120Y003280
X019120Y003280
X019120Y004280
X018120Y003280
X018120Y004280
X019120Y001280
X019120Y002280
X018120Y002280
X017120Y002280
X018120Y001280
X017120Y001280
X016120Y001280
X015120Y001280
X014120Y001280
X013120Y001280
X016120Y002280
X015120Y002280
X014120Y002280
X012120Y001280
X011120Y001280
X010120Y001280
X013120Y002280
X012120Y002280
X011120Y002280
X010120Y002280
X009120Y001280
X008120Y001280
X007120Y001280
X006120Y001280
X005120Y001280
X004120Y001280
X009120Y002280
X008120Y002280
X007120Y002280
X006120Y002280
X005120Y002280
X004120Y002280
T81
X001400Y029100
X020940Y029100
M30
