M48
INCH
T30C0.125
T29C0.040
T28C0.046
%
T29
X023000Y004400
X022000Y004400
X024000Y004400
X023000Y003400
X023000Y002400
X022000Y003400
X022000Y002400
X024000Y003400
X024000Y002400
X002000Y025000
X002000Y026000
X002000Y027000
X003000Y025000
X003000Y026000
X003000Y027000
X004000Y025000
X004000Y026000
X005000Y025000
X006000Y025000
X007000Y025000
X005000Y026000
X006000Y026000
X007000Y026000
X004000Y027000
X005000Y027000
X006000Y027000
X007000Y027000
X023000Y016000
X023000Y015000
X023000Y014000
X023000Y013000
X023000Y011400
X023000Y010400
X023000Y009400
X023000Y008400
X023000Y007400
X023000Y006400
X023000Y005400
X023000Y020000
X023000Y019000
X023000Y018000
X023000Y017000
X022000Y020000
X022000Y019000
X022000Y018000
X024000Y020000
X024000Y019000
X024000Y018000
X022000Y014000
X022000Y013000
X022000Y011400
X022000Y010400
X022000Y009400
X022000Y008400
X022000Y007400
X022000Y006400
X022000Y005400
X022000Y017000
X022000Y016000
X022000Y015000
X024000Y017000
X024000Y016000
X024000Y015000
X024000Y014000
X024000Y013000
X024000Y011400
X024000Y010400
X024000Y009400
X024000Y008400
X024000Y007400
X024000Y006400
X024000Y005400
X004000Y013000
X004000Y015000
X004000Y016000
X004000Y017000
X004000Y018000
X004000Y019000
X004000Y020000
X004000Y006000
X004000Y007000
X003000Y006000
X003000Y007000
X004000Y008000
X003000Y008000
X003000Y009000
X005000Y006000
X005000Y007000
X005000Y008000
X003000Y012000
X003000Y013000
X003000Y015000
X003000Y016000
X003000Y017000
X003000Y018000
X003000Y019000
X003000Y020000
X004000Y009000
X004000Y010000
X004000Y011000
X004000Y012000
X003000Y010000
X003000Y011000
X005000Y009000
X005000Y010000
X005000Y011000
X005000Y012000
X005000Y013000
X005000Y015000
X005000Y016000
X005000Y017000
X005000Y018000
X005000Y019000
X005000Y020000
T28
X019820Y003180
X019820Y004180
X018820Y003180
X018820Y004180
X017820Y003180
X017820Y002180
X017820Y004180
X019820Y001180
X018820Y001180
X017820Y001180
X019820Y002180
X018820Y002180
X016820Y004180
X015820Y004180
X014820Y004180
X015820Y003180
X014820Y003180
X013820Y003180
X012820Y003180
X011820Y003180
X010820Y003180
X013820Y004180
X012820Y004180
X011820Y004180
X010820Y004180
X009820Y003180
X009820Y004180
X008820Y004180
X007820Y004180
X008820Y003180
X007820Y003180
X006820Y003180
X005820Y003180
X004820Y003180
X003820Y003180
X006820Y004180
X005820Y004180
X004820Y004180
X003820Y004180
X016820Y003180
X016820Y002180
X015820Y002180
X014820Y002180
X016820Y001180
X015820Y001180
X014820Y001180
X013820Y001180
X013820Y002180
X012820Y001180
X012820Y002180
X011820Y002180
X010820Y002180
X011820Y001180
X010820Y001180
X009820Y001180
X008820Y001180
X007820Y001180
X006820Y001180
X009820Y002180
X008820Y002180
X007820Y002180
X006820Y002180
X005820Y001180
X004820Y001180
X003820Y001180
X005820Y002180
X004820Y002180
X003820Y002180
X012000Y026000
X013380Y028150
X013380Y026000
X014760Y028150
X014760Y026000
X010620Y028150
X010620Y026000
X012000Y028150
X016140Y028150
X016140Y026000
X017520Y028150
X018900Y028150
X020280Y028150
X017520Y026000
X018900Y026000
X020280Y026000
T30
X021540Y030000
X002000Y030000
M30
