G04 start of page 5 for group -4063 idx -4063 *
G04 Title: 4143shield, componentmask *
G04 Creator: pcb 20110918 *
G04 CreationDate: Thu 22 May 2014 02:26:04 AM GMT UTC *
G04 For: ryan *
G04 Format: Gerber/RS-274X *
G04 PCB-Dimensions: 250000 320000 *
G04 PCB-Coordinate-Origin: lower left *
%MOIN*%
%FSLAX25Y25*%
%LNTOPMASK*%
%ADD34C,0.1700*%
%ADD33C,0.0660*%
%ADD32C,0.0800*%
%ADD31C,0.0860*%
G54D31*X198200Y31800D03*
Y41800D03*
X188200Y31800D03*
Y41800D03*
X178200Y31800D03*
Y21800D03*
Y41800D03*
X198200Y11800D03*
X188200D03*
X178200D03*
X198200Y21800D03*
X188200D03*
X168200Y41800D03*
X158200D03*
X148200D03*
X158200Y31800D03*
X148200D03*
X138200D03*
X128200D03*
X118200D03*
X108200D03*
X138200Y41800D03*
X128200D03*
X118200D03*
X108200D03*
X98200Y31800D03*
Y41800D03*
X88200D03*
X78200D03*
X88200Y31800D03*
X78200D03*
X68200D03*
X58200D03*
X48200D03*
X38200D03*
X68200Y41800D03*
X58200D03*
X48200D03*
X38200D03*
X168200Y31800D03*
Y21800D03*
X158200D03*
X148200D03*
X168200Y11800D03*
X158200D03*
X148200D03*
X138200D03*
Y21800D03*
X128200Y11800D03*
Y21800D03*
X118200D03*
X108200D03*
X118200Y11800D03*
X108200D03*
X98200D03*
X88200D03*
X78200D03*
X68200D03*
X98200Y21800D03*
X88200D03*
X78200D03*
X68200D03*
X58200Y11800D03*
X48200D03*
X38200D03*
X58200Y21800D03*
X48200D03*
X38200D03*
G54D32*X230000Y44000D03*
X220000D03*
X240000D03*
X230000Y34000D03*
Y24000D03*
X220000Y34000D03*
Y24000D03*
X240000Y34000D03*
Y24000D03*
G54D33*X20000Y250000D03*
Y260000D03*
Y270000D03*
X30000Y250000D03*
Y260000D03*
Y270000D03*
X40000Y250000D03*
Y260000D03*
X50000Y250000D03*
X60000D03*
X70000D03*
X50000Y260000D03*
X60000D03*
X70000D03*
G54D31*X120000D03*
X133800Y281500D03*
Y260000D03*
X147600Y281500D03*
Y260000D03*
X106200Y281500D03*
Y260000D03*
X120000Y281500D03*
X161400D03*
Y260000D03*
X175200Y281500D03*
X189000D03*
X202800D03*
G54D34*X215400Y300000D03*
G54D33*X40000Y270000D03*
X50000D03*
X60000D03*
X70000D03*
G54D34*X20000Y300000D03*
G54D31*X175200Y260000D03*
X189000D03*
X202800D03*
G54D32*X230000Y160000D03*
Y150000D03*
Y140000D03*
Y130000D03*
Y114000D03*
Y104000D03*
Y94000D03*
Y84000D03*
Y74000D03*
Y64000D03*
Y54000D03*
Y200000D03*
Y190000D03*
Y180000D03*
Y170000D03*
X220000Y200000D03*
Y190000D03*
Y180000D03*
X240000Y200000D03*
Y190000D03*
Y180000D03*
X220000Y140000D03*
Y130000D03*
Y114000D03*
Y104000D03*
Y94000D03*
Y84000D03*
Y74000D03*
Y64000D03*
Y54000D03*
Y170000D03*
Y160000D03*
Y150000D03*
X240000Y170000D03*
Y160000D03*
Y150000D03*
Y140000D03*
Y130000D03*
Y114000D03*
Y104000D03*
Y94000D03*
Y84000D03*
Y74000D03*
Y64000D03*
Y54000D03*
X40000Y130000D03*
Y150000D03*
Y160000D03*
Y170000D03*
Y180000D03*
Y190000D03*
Y200000D03*
Y60000D03*
Y70000D03*
X30000Y60000D03*
Y70000D03*
X40000Y80000D03*
X30000D03*
Y90000D03*
X50000Y60000D03*
Y70000D03*
Y80000D03*
X30000Y120000D03*
Y130000D03*
Y150000D03*
Y160000D03*
Y170000D03*
Y180000D03*
Y190000D03*
Y200000D03*
X40000Y90000D03*
Y100000D03*
Y110000D03*
Y120000D03*
X30000Y100000D03*
Y110000D03*
X50000Y90000D03*
Y100000D03*
Y110000D03*
Y120000D03*
Y130000D03*
Y150000D03*
Y160000D03*
Y170000D03*
Y180000D03*
Y190000D03*
Y200000D03*
X227500Y114000D02*X232500D01*
X227500Y104000D02*X232500D01*
X227500Y94000D02*X232500D01*
X227500Y84000D02*X232500D01*
X227500Y74000D02*X232500D01*
X227500Y64000D02*X232500D01*
X227500Y54000D02*X232500D01*
X227500Y44000D02*X232500D01*
X227500Y34000D02*X232500D01*
X227500Y24000D02*X232500D01*
X37500Y60000D02*X42500D01*
X37500Y70000D02*X42500D01*
X37500Y80000D02*X42500D01*
X27500D02*X32500D01*
X47500D02*X52500D01*
X27500Y60000D02*X32500D01*
X47500D02*X52500D01*
X27500Y70000D02*X32500D01*
X47500D02*X52500D01*
X217500Y114000D02*X222500D01*
X217500Y104000D02*X222500D01*
X217500Y94000D02*X222500D01*
X217500Y84000D02*X222500D01*
X217500Y74000D02*X222500D01*
X217500Y64000D02*X222500D01*
X217500Y54000D02*X222500D01*
X217500Y44000D02*X222500D01*
X217500Y34000D02*X222500D01*
X217500Y24000D02*X222500D01*
X37500Y90000D02*X42500D01*
X27500D02*X32500D01*
X47500D02*X52500D01*
X27500Y100000D02*X32500D01*
X27500Y110000D02*X32500D01*
X37500Y100000D02*X42500D01*
X47500D02*X52500D01*
X47500Y110000D02*X52500D01*
X227500Y150000D02*X232500D01*
X227500Y140000D02*X232500D01*
X227500Y130000D02*X232500D01*
X227500Y180000D02*X232500D01*
X227500Y170000D02*X232500D01*
X217500Y200000D02*X222500D01*
X217500Y190000D02*X222500D01*
X217500Y180000D02*X222500D01*
X217500Y170000D02*X222500D01*
X227500Y160000D02*X232500D01*
X217500D02*X222500D01*
X217500Y150000D02*X222500D01*
X217500Y140000D02*X222500D01*
X217500Y130000D02*X222500D01*
X227500Y200000D02*X232500D01*
X227500Y190000D02*X232500D01*
X237500Y200000D02*X242500D01*
X237500Y190000D02*X242500D01*
X237500Y180000D02*X242500D01*
X237500Y170000D02*X242500D01*
X237500Y160000D02*X242500D01*
X237500Y150000D02*X242500D01*
X237500Y140000D02*X242500D01*
X237500Y130000D02*X242500D01*
X237500Y114000D02*X242500D01*
X237500Y104000D02*X242500D01*
X237500Y94000D02*X242500D01*
X237500Y84000D02*X242500D01*
X237500Y74000D02*X242500D01*
X237500Y64000D02*X242500D01*
X237500Y54000D02*X242500D01*
X237500Y44000D02*X242500D01*
X237500Y34000D02*X242500D01*
X237500Y24000D02*X242500D01*
X37500Y170000D02*X42500D01*
X37500Y180000D02*X42500D01*
X37500Y190000D02*X42500D01*
X37500Y200000D02*X42500D01*
X37500Y110000D02*X42500D01*
X37500Y120000D02*X42500D01*
X27500D02*X32500D01*
X37500Y130000D02*X42500D01*
X27500D02*X32500D01*
X47500Y120000D02*X52500D01*
X47500Y130000D02*X52500D01*
X37500Y150000D02*X42500D01*
X37500Y160000D02*X42500D01*
X27500Y150000D02*X32500D01*
X27500Y160000D02*X32500D01*
X27500Y170000D02*X32500D01*
X47500Y150000D02*X52500D01*
X47500Y160000D02*X52500D01*
X27500Y180000D02*X32500D01*
X27500Y190000D02*X32500D01*
X27500Y200000D02*X32500D01*
X47500Y170000D02*X52500D01*
X47500Y180000D02*X52500D01*
X47500Y190000D02*X52500D01*
X47500Y200000D02*X52500D01*
M02*
