G04 start of page 11 for group -3984 idx -3984 *
G04 Title: 4143shield, fab *
G04 Creator: pcb 20110918 *
G04 CreationDate: Thu 22 May 2014 02:26:04 AM GMT UTC *
G04 For: ryan *
G04 Format: Gerber/RS-274X *
G04 PCB-Dimensions: 250000 320000 *
G04 PCB-Coordinate-Origin: lower left *
%MOIN*%
%FSLAX25Y25*%
%LNFAB*%
%ADD47C,0.0100*%
%ADD46C,0.0075*%
%ADD45C,0.0060*%
%ADD44C,0.0080*%
G54D44*X214200Y301200D02*X216600Y298800D01*
X214200D02*X216600Y301200D01*
X18800D02*X21200Y298800D01*
X18800D02*X21200Y301200D01*
X13800Y347450D02*X16200Y345050D01*
X13800D02*X16200Y347450D01*
G54D45*X135000Y348500D02*X136500Y345500D01*
X138000Y348500D01*
X136500Y345500D02*Y342500D01*
X139800Y345800D02*X142050D01*
X139800Y342500D02*X142800D01*
X139800Y348500D02*Y342500D01*
Y348500D02*X142800D01*
X147600D02*X148350Y347750D01*
X145350Y348500D02*X147600D01*
X144600Y347750D02*X145350Y348500D01*
X144600Y347750D02*Y346250D01*
X145350Y345500D01*
X147600D01*
X148350Y344750D01*
Y343250D01*
X147600Y342500D02*X148350Y343250D01*
X145350Y342500D02*X147600D01*
X144600Y343250D02*X145350Y342500D01*
X98000Y347750D02*X98750Y348500D01*
X101000D01*
X101750Y347750D01*
Y346250D01*
X98000Y342500D02*X101750Y346250D01*
X98000Y342500D02*X101750D01*
X45000Y343250D02*X45750Y342500D01*
X45000Y347750D02*Y343250D01*
Y347750D02*X45750Y348500D01*
X47250D01*
X48000Y347750D01*
Y343250D01*
X47250Y342500D02*X48000Y343250D01*
X45750Y342500D02*X47250D01*
X45000Y344000D02*X48000Y347000D01*
X49800Y342500D02*X50550D01*
X52350Y347300D02*X53550Y348500D01*
Y342500D01*
X52350D02*X54600D01*
X56400Y347750D02*X57150Y348500D01*
X59400D01*
X60150Y347750D01*
Y346250D01*
X56400Y342500D02*X60150Y346250D01*
X56400Y342500D02*X60150D01*
X61950Y348500D02*X64950D01*
X61950D02*Y345500D01*
X62700Y346250D01*
X64200D01*
X64950Y345500D01*
Y343250D01*
X64200Y342500D02*X64950Y343250D01*
X62700Y342500D02*X64200D01*
X61950Y343250D02*X62700Y342500D01*
X106200Y283100D02*Y279900D01*
X104600Y281500D02*X107800D01*
X106200Y261600D02*Y258400D01*
X104600Y260000D02*X107800D01*
X120000Y283100D02*Y279900D01*
X118400Y281500D02*X121600D01*
X120000Y261600D02*Y258400D01*
X118400Y260000D02*X121600D01*
X133800Y283100D02*Y279900D01*
X132200Y281500D02*X135400D01*
X133800Y261600D02*Y258400D01*
X132200Y260000D02*X135400D01*
X147600Y283100D02*Y279900D01*
X146000Y281500D02*X149200D01*
X147600Y261600D02*Y258400D01*
X146000Y260000D02*X149200D01*
X161400Y283100D02*Y279900D01*
X159800Y281500D02*X163000D01*
X161400Y261600D02*Y258400D01*
X159800Y260000D02*X163000D01*
X175200Y283100D02*Y279900D01*
X173600Y281500D02*X176800D01*
X175200Y261600D02*Y258400D01*
X173600Y260000D02*X176800D01*
X189000Y283100D02*Y279900D01*
X187400Y281500D02*X190600D01*
X189000Y261600D02*Y258400D01*
X187400Y260000D02*X190600D01*
X202800Y283100D02*Y279900D01*
X201200Y281500D02*X204400D01*
X202800Y261600D02*Y258400D01*
X201200Y260000D02*X204400D01*
X198200Y33400D02*Y30200D01*
X196600Y31800D02*X199800D01*
X198200Y43400D02*Y40200D01*
X196600Y41800D02*X199800D01*
X188200Y33400D02*Y30200D01*
X186600Y31800D02*X189800D01*
X188200Y43400D02*Y40200D01*
X186600Y41800D02*X189800D01*
X178200Y33400D02*Y30200D01*
X176600Y31800D02*X179800D01*
X178200Y43400D02*Y40200D01*
X176600Y41800D02*X179800D01*
X168200Y33400D02*Y30200D01*
X166600Y31800D02*X169800D01*
X168200Y43400D02*Y40200D01*
X166600Y41800D02*X169800D01*
X158200Y33400D02*Y30200D01*
X156600Y31800D02*X159800D01*
X158200Y43400D02*Y40200D01*
X156600Y41800D02*X159800D01*
X148200Y33400D02*Y30200D01*
X146600Y31800D02*X149800D01*
X148200Y43400D02*Y40200D01*
X146600Y41800D02*X149800D01*
X138200Y33400D02*Y30200D01*
X136600Y31800D02*X139800D01*
X138200Y43400D02*Y40200D01*
X136600Y41800D02*X139800D01*
X128200Y33400D02*Y30200D01*
X126600Y31800D02*X129800D01*
X128200Y43400D02*Y40200D01*
X126600Y41800D02*X129800D01*
X118200Y33400D02*Y30200D01*
X116600Y31800D02*X119800D01*
X118200Y43400D02*Y40200D01*
X116600Y41800D02*X119800D01*
X108200Y33400D02*Y30200D01*
X106600Y31800D02*X109800D01*
X108200Y43400D02*Y40200D01*
X106600Y41800D02*X109800D01*
X98200Y33400D02*Y30200D01*
X96600Y31800D02*X99800D01*
X98200Y43400D02*Y40200D01*
X96600Y41800D02*X99800D01*
X88200Y33400D02*Y30200D01*
X86600Y31800D02*X89800D01*
X88200Y43400D02*Y40200D01*
X86600Y41800D02*X89800D01*
X78200Y33400D02*Y30200D01*
X76600Y31800D02*X79800D01*
X78200Y43400D02*Y40200D01*
X76600Y41800D02*X79800D01*
X68200Y33400D02*Y30200D01*
X66600Y31800D02*X69800D01*
X68200Y43400D02*Y40200D01*
X66600Y41800D02*X69800D01*
X58200Y33400D02*Y30200D01*
X56600Y31800D02*X59800D01*
X58200Y43400D02*Y40200D01*
X56600Y41800D02*X59800D01*
X48200Y33400D02*Y30200D01*
X46600Y31800D02*X49800D01*
X48200Y43400D02*Y40200D01*
X46600Y41800D02*X49800D01*
X38200Y33400D02*Y30200D01*
X36600Y31800D02*X39800D01*
X38200Y43400D02*Y40200D01*
X36600Y41800D02*X39800D01*
X198200Y13400D02*Y10200D01*
X196600Y11800D02*X199800D01*
X198200Y23400D02*Y20200D01*
X196600Y21800D02*X199800D01*
X188200Y13400D02*Y10200D01*
X186600Y11800D02*X189800D01*
X188200Y23400D02*Y20200D01*
X186600Y21800D02*X189800D01*
X178200Y13400D02*Y10200D01*
X176600Y11800D02*X179800D01*
X178200Y23400D02*Y20200D01*
X176600Y21800D02*X179800D01*
X168200Y13400D02*Y10200D01*
X166600Y11800D02*X169800D01*
X168200Y23400D02*Y20200D01*
X166600Y21800D02*X169800D01*
X158200Y13400D02*Y10200D01*
X156600Y11800D02*X159800D01*
X158200Y23400D02*Y20200D01*
X156600Y21800D02*X159800D01*
X148200Y13400D02*Y10200D01*
X146600Y11800D02*X149800D01*
X148200Y23400D02*Y20200D01*
X146600Y21800D02*X149800D01*
X138200Y13400D02*Y10200D01*
X136600Y11800D02*X139800D01*
X138200Y23400D02*Y20200D01*
X136600Y21800D02*X139800D01*
X128200Y13400D02*Y10200D01*
X126600Y11800D02*X129800D01*
X128200Y23400D02*Y20200D01*
X126600Y21800D02*X129800D01*
X118200Y13400D02*Y10200D01*
X116600Y11800D02*X119800D01*
X118200Y23400D02*Y20200D01*
X116600Y21800D02*X119800D01*
X108200Y13400D02*Y10200D01*
X106600Y11800D02*X109800D01*
X108200Y23400D02*Y20200D01*
X106600Y21800D02*X109800D01*
X98200Y13400D02*Y10200D01*
X96600Y11800D02*X99800D01*
X98200Y23400D02*Y20200D01*
X96600Y21800D02*X99800D01*
X88200Y13400D02*Y10200D01*
X86600Y11800D02*X89800D01*
X88200Y23400D02*Y20200D01*
X86600Y21800D02*X89800D01*
X78200Y13400D02*Y10200D01*
X76600Y11800D02*X79800D01*
X78200Y23400D02*Y20200D01*
X76600Y21800D02*X79800D01*
X68200Y13400D02*Y10200D01*
X66600Y11800D02*X69800D01*
X68200Y23400D02*Y20200D01*
X66600Y21800D02*X69800D01*
X58200Y13400D02*Y10200D01*
X56600Y11800D02*X59800D01*
X58200Y23400D02*Y20200D01*
X56600Y21800D02*X59800D01*
X48200Y13400D02*Y10200D01*
X46600Y11800D02*X49800D01*
X48200Y23400D02*Y20200D01*
X46600Y21800D02*X49800D01*
X38200Y13400D02*Y10200D01*
X36600Y11800D02*X39800D01*
X38200Y23400D02*Y20200D01*
X36600Y21800D02*X39800D01*
X15000Y362850D02*Y359650D01*
X13400Y361250D02*X16600D01*
X135000Y363500D02*X136500Y360500D01*
X138000Y363500D01*
X136500Y360500D02*Y357500D01*
X139800Y360800D02*X142050D01*
X139800Y357500D02*X142800D01*
X139800Y363500D02*Y357500D01*
Y363500D02*X142800D01*
X147600D02*X148350Y362750D01*
X145350Y363500D02*X147600D01*
X144600Y362750D02*X145350Y363500D01*
X144600Y362750D02*Y361250D01*
X145350Y360500D01*
X147600D01*
X148350Y359750D01*
Y358250D01*
X147600Y357500D02*X148350Y358250D01*
X145350Y357500D02*X147600D01*
X144600Y358250D02*X145350Y357500D01*
X98000Y358250D02*X98750Y357500D01*
X98000Y359450D02*Y358250D01*
Y359450D02*X99050Y360500D01*
X99950D01*
X101000Y359450D01*
Y358250D01*
X100250Y357500D02*X101000Y358250D01*
X98750Y357500D02*X100250D01*
X98000Y361550D02*X99050Y360500D01*
X98000Y362750D02*Y361550D01*
Y362750D02*X98750Y363500D01*
X100250D01*
X101000Y362750D01*
Y361550D01*
X99950Y360500D02*X101000Y361550D01*
X102800Y359750D02*X105800Y363500D01*
X102800Y359750D02*X106550D01*
X105800Y363500D02*Y357500D01*
X45000Y358250D02*X45750Y357500D01*
X45000Y362750D02*Y358250D01*
Y362750D02*X45750Y363500D01*
X47250D01*
X48000Y362750D01*
Y358250D01*
X47250Y357500D02*X48000Y358250D01*
X45750Y357500D02*X47250D01*
X45000Y359000D02*X48000Y362000D01*
X49800Y357500D02*X50550D01*
X52350Y358250D02*X53100Y357500D01*
X52350Y362750D02*Y358250D01*
Y362750D02*X53100Y363500D01*
X54600D01*
X55350Y362750D01*
Y358250D01*
X54600Y357500D02*X55350Y358250D01*
X53100Y357500D02*X54600D01*
X52350Y359000D02*X55350Y362000D01*
X57150Y359750D02*X60150Y363500D01*
X57150Y359750D02*X60900D01*
X60150Y363500D02*Y357500D01*
X64950Y363500D02*X65700Y362750D01*
X63450Y363500D02*X64950D01*
X62700Y362750D02*X63450Y363500D01*
X62700Y362750D02*Y358250D01*
X63450Y357500D01*
X64950Y360800D02*X65700Y360050D01*
X62700Y360800D02*X64950D01*
X63450Y357500D02*X64950D01*
X65700Y358250D01*
Y360050D02*Y358250D01*
X20000Y250000D02*Y248400D01*
Y250000D02*X21387Y250800D01*
X20000Y250000D02*X18613Y250800D01*
X20000Y260000D02*Y258400D01*
Y260000D02*X21387Y260800D01*
X20000Y260000D02*X18613Y260800D01*
X20000Y270000D02*Y268400D01*
Y270000D02*X21387Y270800D01*
X20000Y270000D02*X18613Y270800D01*
X30000Y250000D02*Y248400D01*
Y250000D02*X31387Y250800D01*
X30000Y250000D02*X28613Y250800D01*
X30000Y260000D02*Y258400D01*
Y260000D02*X31387Y260800D01*
X30000Y260000D02*X28613Y260800D01*
X30000Y270000D02*Y268400D01*
Y270000D02*X31387Y270800D01*
X30000Y270000D02*X28613Y270800D01*
X40000Y250000D02*Y248400D01*
Y250000D02*X41387Y250800D01*
X40000Y250000D02*X38613Y250800D01*
X40000Y260000D02*Y258400D01*
Y260000D02*X41387Y260800D01*
X40000Y260000D02*X38613Y260800D01*
X40000Y270000D02*Y268400D01*
Y270000D02*X41387Y270800D01*
X40000Y270000D02*X38613Y270800D01*
X50000Y250000D02*Y248400D01*
Y250000D02*X51387Y250800D01*
X50000Y250000D02*X48613Y250800D01*
X50000Y260000D02*Y258400D01*
Y260000D02*X51387Y260800D01*
X50000Y260000D02*X48613Y260800D01*
X50000Y270000D02*Y268400D01*
Y270000D02*X51387Y270800D01*
X50000Y270000D02*X48613Y270800D01*
X60000Y250000D02*Y248400D01*
Y250000D02*X61387Y250800D01*
X60000Y250000D02*X58613Y250800D01*
X60000Y260000D02*Y258400D01*
Y260000D02*X61387Y260800D01*
X60000Y260000D02*X58613Y260800D01*
X60000Y270000D02*Y268400D01*
Y270000D02*X61387Y270800D01*
X60000Y270000D02*X58613Y270800D01*
X70000Y250000D02*Y248400D01*
Y250000D02*X71387Y250800D01*
X70000Y250000D02*X68613Y250800D01*
X70000Y260000D02*Y258400D01*
Y260000D02*X71387Y260800D01*
X70000Y260000D02*X68613Y260800D01*
X70000Y270000D02*Y268400D01*
Y270000D02*X71387Y270800D01*
X70000Y270000D02*X68613Y270800D01*
X230000Y200000D02*Y198400D01*
Y200000D02*X231387Y200800D01*
X230000Y200000D02*X228613Y200800D01*
X230000Y190000D02*Y188400D01*
Y190000D02*X231387Y190800D01*
X230000Y190000D02*X228613Y190800D01*
X230000Y180000D02*Y178400D01*
Y180000D02*X231387Y180800D01*
X230000Y180000D02*X228613Y180800D01*
X230000Y170000D02*Y168400D01*
Y170000D02*X231387Y170800D01*
X230000Y170000D02*X228613Y170800D01*
X230000Y160000D02*Y158400D01*
Y160000D02*X231387Y160800D01*
X230000Y160000D02*X228613Y160800D01*
X230000Y150000D02*Y148400D01*
Y150000D02*X231387Y150800D01*
X230000Y150000D02*X228613Y150800D01*
X230000Y140000D02*Y138400D01*
Y140000D02*X231387Y140800D01*
X230000Y140000D02*X228613Y140800D01*
X230000Y130000D02*Y128400D01*
Y130000D02*X231387Y130800D01*
X230000Y130000D02*X228613Y130800D01*
X230000Y114000D02*Y112400D01*
Y114000D02*X231387Y114800D01*
X230000Y114000D02*X228613Y114800D01*
X230000Y104000D02*Y102400D01*
Y104000D02*X231387Y104800D01*
X230000Y104000D02*X228613Y104800D01*
X230000Y94000D02*Y92400D01*
Y94000D02*X231387Y94800D01*
X230000Y94000D02*X228613Y94800D01*
X230000Y84000D02*Y82400D01*
Y84000D02*X231387Y84800D01*
X230000Y84000D02*X228613Y84800D01*
X230000Y74000D02*Y72400D01*
Y74000D02*X231387Y74800D01*
X230000Y74000D02*X228613Y74800D01*
X230000Y64000D02*Y62400D01*
Y64000D02*X231387Y64800D01*
X230000Y64000D02*X228613Y64800D01*
X230000Y54000D02*Y52400D01*
Y54000D02*X231387Y54800D01*
X230000Y54000D02*X228613Y54800D01*
X230000Y44000D02*Y42400D01*
Y44000D02*X231387Y44800D01*
X230000Y44000D02*X228613Y44800D01*
X230000Y34000D02*Y32400D01*
Y34000D02*X231387Y34800D01*
X230000Y34000D02*X228613Y34800D01*
X230000Y24000D02*Y22400D01*
Y24000D02*X231387Y24800D01*
X230000Y24000D02*X228613Y24800D01*
X40000Y60000D02*Y58400D01*
Y60000D02*X41387Y60800D01*
X40000Y60000D02*X38613Y60800D01*
X40000Y70000D02*Y68400D01*
Y70000D02*X41387Y70800D01*
X40000Y70000D02*X38613Y70800D01*
X40000Y80000D02*Y78400D01*
Y80000D02*X41387Y80800D01*
X40000Y80000D02*X38613Y80800D01*
X40000Y90000D02*Y88400D01*
Y90000D02*X41387Y90800D01*
X40000Y90000D02*X38613Y90800D01*
X40000Y100000D02*Y98400D01*
Y100000D02*X41387Y100800D01*
X40000Y100000D02*X38613Y100800D01*
X40000Y110000D02*Y108400D01*
Y110000D02*X41387Y110800D01*
X40000Y110000D02*X38613Y110800D01*
X40000Y120000D02*Y118400D01*
Y120000D02*X41387Y120800D01*
X40000Y120000D02*X38613Y120800D01*
X40000Y130000D02*Y128400D01*
Y130000D02*X41387Y130800D01*
X40000Y130000D02*X38613Y130800D01*
X40000Y150000D02*Y148400D01*
Y150000D02*X41387Y150800D01*
X40000Y150000D02*X38613Y150800D01*
X40000Y160000D02*Y158400D01*
Y160000D02*X41387Y160800D01*
X40000Y160000D02*X38613Y160800D01*
X40000Y170000D02*Y168400D01*
Y170000D02*X41387Y170800D01*
X40000Y170000D02*X38613Y170800D01*
X40000Y180000D02*Y178400D01*
Y180000D02*X41387Y180800D01*
X40000Y180000D02*X38613Y180800D01*
X40000Y190000D02*Y188400D01*
Y190000D02*X41387Y190800D01*
X40000Y190000D02*X38613Y190800D01*
X40000Y200000D02*Y198400D01*
Y200000D02*X41387Y200800D01*
X40000Y200000D02*X38613Y200800D01*
X220000Y200000D02*Y198400D01*
Y200000D02*X221387Y200800D01*
X220000Y200000D02*X218613Y200800D01*
X220000Y190000D02*Y188400D01*
Y190000D02*X221387Y190800D01*
X220000Y190000D02*X218613Y190800D01*
X220000Y180000D02*Y178400D01*
Y180000D02*X221387Y180800D01*
X220000Y180000D02*X218613Y180800D01*
X220000Y170000D02*Y168400D01*
Y170000D02*X221387Y170800D01*
X220000Y170000D02*X218613Y170800D01*
X220000Y160000D02*Y158400D01*
Y160000D02*X221387Y160800D01*
X220000Y160000D02*X218613Y160800D01*
X220000Y150000D02*Y148400D01*
Y150000D02*X221387Y150800D01*
X220000Y150000D02*X218613Y150800D01*
X220000Y140000D02*Y138400D01*
Y140000D02*X221387Y140800D01*
X220000Y140000D02*X218613Y140800D01*
X220000Y130000D02*Y128400D01*
Y130000D02*X221387Y130800D01*
X220000Y130000D02*X218613Y130800D01*
X220000Y114000D02*Y112400D01*
Y114000D02*X221387Y114800D01*
X220000Y114000D02*X218613Y114800D01*
X220000Y104000D02*Y102400D01*
Y104000D02*X221387Y104800D01*
X220000Y104000D02*X218613Y104800D01*
X220000Y94000D02*Y92400D01*
Y94000D02*X221387Y94800D01*
X220000Y94000D02*X218613Y94800D01*
X220000Y84000D02*Y82400D01*
Y84000D02*X221387Y84800D01*
X220000Y84000D02*X218613Y84800D01*
X220000Y74000D02*Y72400D01*
Y74000D02*X221387Y74800D01*
X220000Y74000D02*X218613Y74800D01*
X220000Y64000D02*Y62400D01*
Y64000D02*X221387Y64800D01*
X220000Y64000D02*X218613Y64800D01*
X220000Y54000D02*Y52400D01*
Y54000D02*X221387Y54800D01*
X220000Y54000D02*X218613Y54800D01*
X220000Y44000D02*Y42400D01*
Y44000D02*X221387Y44800D01*
X220000Y44000D02*X218613Y44800D01*
X220000Y34000D02*Y32400D01*
Y34000D02*X221387Y34800D01*
X220000Y34000D02*X218613Y34800D01*
X220000Y24000D02*Y22400D01*
Y24000D02*X221387Y24800D01*
X220000Y24000D02*X218613Y24800D01*
X30000Y60000D02*Y58400D01*
Y60000D02*X31387Y60800D01*
X30000Y60000D02*X28613Y60800D01*
X30000Y70000D02*Y68400D01*
Y70000D02*X31387Y70800D01*
X30000Y70000D02*X28613Y70800D01*
X30000Y80000D02*Y78400D01*
Y80000D02*X31387Y80800D01*
X30000Y80000D02*X28613Y80800D01*
X30000Y90000D02*Y88400D01*
Y90000D02*X31387Y90800D01*
X30000Y90000D02*X28613Y90800D01*
X30000Y100000D02*Y98400D01*
Y100000D02*X31387Y100800D01*
X30000Y100000D02*X28613Y100800D01*
X30000Y110000D02*Y108400D01*
Y110000D02*X31387Y110800D01*
X30000Y110000D02*X28613Y110800D01*
X30000Y120000D02*Y118400D01*
Y120000D02*X31387Y120800D01*
X30000Y120000D02*X28613Y120800D01*
X30000Y130000D02*Y128400D01*
Y130000D02*X31387Y130800D01*
X30000Y130000D02*X28613Y130800D01*
X30000Y150000D02*Y148400D01*
Y150000D02*X31387Y150800D01*
X30000Y150000D02*X28613Y150800D01*
X30000Y160000D02*Y158400D01*
Y160000D02*X31387Y160800D01*
X30000Y160000D02*X28613Y160800D01*
X30000Y170000D02*Y168400D01*
Y170000D02*X31387Y170800D01*
X30000Y170000D02*X28613Y170800D01*
X30000Y180000D02*Y178400D01*
Y180000D02*X31387Y180800D01*
X30000Y180000D02*X28613Y180800D01*
X30000Y190000D02*Y188400D01*
Y190000D02*X31387Y190800D01*
X30000Y190000D02*X28613Y190800D01*
X30000Y200000D02*Y198400D01*
Y200000D02*X31387Y200800D01*
X30000Y200000D02*X28613Y200800D01*
X240000Y200000D02*Y198400D01*
Y200000D02*X241387Y200800D01*
X240000Y200000D02*X238613Y200800D01*
X240000Y190000D02*Y188400D01*
Y190000D02*X241387Y190800D01*
X240000Y190000D02*X238613Y190800D01*
X240000Y180000D02*Y178400D01*
Y180000D02*X241387Y180800D01*
X240000Y180000D02*X238613Y180800D01*
X240000Y170000D02*Y168400D01*
Y170000D02*X241387Y170800D01*
X240000Y170000D02*X238613Y170800D01*
X240000Y160000D02*Y158400D01*
Y160000D02*X241387Y160800D01*
X240000Y160000D02*X238613Y160800D01*
X240000Y150000D02*Y148400D01*
Y150000D02*X241387Y150800D01*
X240000Y150000D02*X238613Y150800D01*
X240000Y140000D02*Y138400D01*
Y140000D02*X241387Y140800D01*
X240000Y140000D02*X238613Y140800D01*
X240000Y130000D02*Y128400D01*
Y130000D02*X241387Y130800D01*
X240000Y130000D02*X238613Y130800D01*
X240000Y114000D02*Y112400D01*
Y114000D02*X241387Y114800D01*
X240000Y114000D02*X238613Y114800D01*
X240000Y104000D02*Y102400D01*
Y104000D02*X241387Y104800D01*
X240000Y104000D02*X238613Y104800D01*
X240000Y94000D02*Y92400D01*
Y94000D02*X241387Y94800D01*
X240000Y94000D02*X238613Y94800D01*
X240000Y84000D02*Y82400D01*
Y84000D02*X241387Y84800D01*
X240000Y84000D02*X238613Y84800D01*
X240000Y74000D02*Y72400D01*
Y74000D02*X241387Y74800D01*
X240000Y74000D02*X238613Y74800D01*
X240000Y64000D02*Y62400D01*
Y64000D02*X241387Y64800D01*
X240000Y64000D02*X238613Y64800D01*
X240000Y54000D02*Y52400D01*
Y54000D02*X241387Y54800D01*
X240000Y54000D02*X238613Y54800D01*
X240000Y44000D02*Y42400D01*
Y44000D02*X241387Y44800D01*
X240000Y44000D02*X238613Y44800D01*
X240000Y34000D02*Y32400D01*
Y34000D02*X241387Y34800D01*
X240000Y34000D02*X238613Y34800D01*
X240000Y24000D02*Y22400D01*
Y24000D02*X241387Y24800D01*
X240000Y24000D02*X238613Y24800D01*
X50000Y60000D02*Y58400D01*
Y60000D02*X51387Y60800D01*
X50000Y60000D02*X48613Y60800D01*
X50000Y70000D02*Y68400D01*
Y70000D02*X51387Y70800D01*
X50000Y70000D02*X48613Y70800D01*
X50000Y80000D02*Y78400D01*
Y80000D02*X51387Y80800D01*
X50000Y80000D02*X48613Y80800D01*
X50000Y90000D02*Y88400D01*
Y90000D02*X51387Y90800D01*
X50000Y90000D02*X48613Y90800D01*
X50000Y100000D02*Y98400D01*
Y100000D02*X51387Y100800D01*
X50000Y100000D02*X48613Y100800D01*
X50000Y110000D02*Y108400D01*
Y110000D02*X51387Y110800D01*
X50000Y110000D02*X48613Y110800D01*
X50000Y120000D02*Y118400D01*
Y120000D02*X51387Y120800D01*
X50000Y120000D02*X48613Y120800D01*
X50000Y130000D02*Y128400D01*
Y130000D02*X51387Y130800D01*
X50000Y130000D02*X48613Y130800D01*
X50000Y150000D02*Y148400D01*
Y150000D02*X51387Y150800D01*
X50000Y150000D02*X48613Y150800D01*
X50000Y160000D02*Y158400D01*
Y160000D02*X51387Y160800D01*
X50000Y160000D02*X48613Y160800D01*
X50000Y170000D02*Y168400D01*
Y170000D02*X51387Y170800D01*
X50000Y170000D02*X48613Y170800D01*
X50000Y180000D02*Y178400D01*
Y180000D02*X51387Y180800D01*
X50000Y180000D02*X48613Y180800D01*
X50000Y190000D02*Y188400D01*
Y190000D02*X51387Y190800D01*
X50000Y190000D02*X48613Y190800D01*
X50000Y200000D02*Y198400D01*
Y200000D02*X51387Y200800D01*
X50000Y200000D02*X48613Y200800D01*
X15000Y376250D02*Y374650D01*
Y376250D02*X16387Y377050D01*
X15000Y376250D02*X13613Y377050D01*
X135000Y378500D02*X136500Y375500D01*
X138000Y378500D01*
X136500Y375500D02*Y372500D01*
X139800Y375800D02*X142050D01*
X139800Y372500D02*X142800D01*
X139800Y378500D02*Y372500D01*
Y378500D02*X142800D01*
X147600D02*X148350Y377750D01*
X145350Y378500D02*X147600D01*
X144600Y377750D02*X145350Y378500D01*
X144600Y377750D02*Y376250D01*
X145350Y375500D01*
X147600D01*
X148350Y374750D01*
Y373250D01*
X147600Y372500D02*X148350Y373250D01*
X145350Y372500D02*X147600D01*
X144600Y373250D02*X145350Y372500D01*
X98000Y377300D02*X99200Y378500D01*
Y372500D01*
X98000D02*X100250D01*
X102050Y377300D02*X103250Y378500D01*
Y372500D01*
X102050D02*X104300D01*
X106100Y374750D02*X109100Y378500D01*
X106100Y374750D02*X109850D01*
X109100Y378500D02*Y372500D01*
X45000Y373250D02*X45750Y372500D01*
X45000Y377750D02*Y373250D01*
Y377750D02*X45750Y378500D01*
X47250D01*
X48000Y377750D01*
Y373250D01*
X47250Y372500D02*X48000Y373250D01*
X45750Y372500D02*X47250D01*
X45000Y374000D02*X48000Y377000D01*
X49800Y372500D02*X50550D01*
X52350Y373250D02*X53100Y372500D01*
X52350Y377750D02*Y373250D01*
Y377750D02*X53100Y378500D01*
X54600D01*
X55350Y377750D01*
Y373250D01*
X54600Y372500D02*X55350Y373250D01*
X53100Y372500D02*X54600D01*
X52350Y374000D02*X55350Y377000D01*
X57150Y374750D02*X60150Y378500D01*
X57150Y374750D02*X60900D01*
X60150Y378500D02*Y372500D01*
X62700Y373250D02*X63450Y372500D01*
X62700Y377750D02*Y373250D01*
Y377750D02*X63450Y378500D01*
X64950D01*
X65700Y377750D01*
Y373250D01*
X64950Y372500D02*X65700Y373250D01*
X63450Y372500D02*X64950D01*
X62700Y374000D02*X65700Y377000D01*
X3000Y393500D02*X3750Y392750D01*
X750Y393500D02*X3000D01*
X0Y392750D02*X750Y393500D01*
X0Y392750D02*Y391250D01*
X750Y390500D01*
X3000D01*
X3750Y389750D01*
Y388250D01*
X3000Y387500D02*X3750Y388250D01*
X750Y387500D02*X3000D01*
X0Y388250D02*X750Y387500D01*
X5550Y390500D02*Y388250D01*
X6300Y387500D01*
X8550Y390500D02*Y386000D01*
X7800Y385250D02*X8550Y386000D01*
X6300Y385250D02*X7800D01*
X5550Y386000D02*X6300Y385250D01*
Y387500D02*X7800D01*
X8550Y388250D01*
X11100Y389750D02*Y387500D01*
Y389750D02*X11850Y390500D01*
X12600D01*
X13350Y389750D01*
Y387500D01*
Y389750D02*X14100Y390500D01*
X14850D01*
X15600Y389750D01*
Y387500D01*
X10350Y390500D02*X11100Y389750D01*
X17400Y393500D02*Y387500D01*
Y388250D02*X18150Y387500D01*
X19650D01*
X20400Y388250D01*
Y389750D02*Y388250D01*
X19650Y390500D02*X20400Y389750D01*
X18150Y390500D02*X19650D01*
X17400Y389750D02*X18150Y390500D01*
X22200Y389750D02*Y388250D01*
Y389750D02*X22950Y390500D01*
X24450D01*
X25200Y389750D01*
Y388250D01*
X24450Y387500D02*X25200Y388250D01*
X22950Y387500D02*X24450D01*
X22200Y388250D02*X22950Y387500D01*
X27000Y393500D02*Y388250D01*
X27750Y387500D01*
X0Y384250D02*X29250D01*
X41750Y393500D02*Y387500D01*
X43700Y393500D02*X44750Y392450D01*
Y388550D01*
X43700Y387500D02*X44750Y388550D01*
X41000Y387500D02*X43700D01*
X41000Y393500D02*X43700D01*
G54D46*X46550Y392000D02*Y391850D01*
G54D45*Y389750D02*Y387500D01*
X50300Y390500D02*X51050Y389750D01*
X48800Y390500D02*X50300D01*
X48050Y389750D02*X48800Y390500D01*
X48050Y389750D02*Y388250D01*
X48800Y387500D01*
X51050Y390500D02*Y388250D01*
X51800Y387500D01*
X48800D02*X50300D01*
X51050Y388250D01*
X54350Y389750D02*Y387500D01*
Y389750D02*X55100Y390500D01*
X55850D01*
X56600Y389750D01*
Y387500D01*
Y389750D02*X57350Y390500D01*
X58100D01*
X58850Y389750D01*
Y387500D01*
X53600Y390500D02*X54350Y389750D01*
X60650Y387500D02*X61400D01*
X65900Y388250D02*X66650Y387500D01*
X65900Y392750D02*X66650Y393500D01*
X65900Y392750D02*Y388250D01*
X68450Y393500D02*X69950D01*
X69200D02*Y387500D01*
X68450D02*X69950D01*
X72500Y389750D02*Y387500D01*
Y389750D02*X73250Y390500D01*
X74000D01*
X74750Y389750D01*
Y387500D01*
X71750Y390500D02*X72500Y389750D01*
X77300Y390500D02*X79550D01*
X76550Y389750D02*X77300Y390500D01*
X76550Y389750D02*Y388250D01*
X77300Y387500D01*
X79550D01*
X81350Y393500D02*Y387500D01*
Y389750D02*X82100Y390500D01*
X83600D01*
X84350Y389750D01*
Y387500D01*
X86150Y393500D02*X86900Y392750D01*
Y388250D01*
X86150Y387500D02*X86900Y388250D01*
X41000Y384250D02*X88700D01*
X96050Y387500D02*X98000D01*
X95000Y388550D02*X96050Y387500D01*
X95000Y392450D02*Y388550D01*
Y392450D02*X96050Y393500D01*
X98000D01*
X99800Y389750D02*Y388250D01*
Y389750D02*X100550Y390500D01*
X102050D01*
X102800Y389750D01*
Y388250D01*
X102050Y387500D02*X102800Y388250D01*
X100550Y387500D02*X102050D01*
X99800Y388250D02*X100550Y387500D01*
X104600Y390500D02*Y388250D01*
X105350Y387500D01*
X106850D01*
X107600Y388250D01*
Y390500D02*Y388250D01*
X110150Y389750D02*Y387500D01*
Y389750D02*X110900Y390500D01*
X111650D01*
X112400Y389750D01*
Y387500D01*
X109400Y390500D02*X110150Y389750D01*
X114950Y393500D02*Y388250D01*
X115700Y387500D01*
X114200Y391250D02*X115700D01*
X95000Y384250D02*X117200D01*
X130750Y393500D02*Y387500D01*
X130000Y393500D02*X133000D01*
X133750Y392750D01*
Y391250D01*
X133000Y390500D02*X133750Y391250D01*
X130750Y390500D02*X133000D01*
X135550Y393500D02*Y388250D01*
X136300Y387500D01*
X140050Y390500D02*X140800Y389750D01*
X138550Y390500D02*X140050D01*
X137800Y389750D02*X138550Y390500D01*
X137800Y389750D02*Y388250D01*
X138550Y387500D01*
X140800Y390500D02*Y388250D01*
X141550Y387500D01*
X138550D02*X140050D01*
X140800Y388250D01*
X144100Y393500D02*Y388250D01*
X144850Y387500D01*
X143350Y391250D02*X144850D01*
X147100Y387500D02*X149350D01*
X146350Y388250D02*X147100Y387500D01*
X146350Y389750D02*Y388250D01*
Y389750D02*X147100Y390500D01*
X148600D01*
X149350Y389750D01*
X146350Y389000D02*X149350D01*
Y389750D02*Y389000D01*
X154150Y393500D02*Y387500D01*
X153400D02*X154150Y388250D01*
X151900Y387500D02*X153400D01*
X151150Y388250D02*X151900Y387500D01*
X151150Y389750D02*Y388250D01*
Y389750D02*X151900Y390500D01*
X153400D01*
X154150Y389750D01*
X157450Y390500D02*Y389750D01*
Y388250D02*Y387500D01*
X155950Y392750D02*Y392000D01*
Y392750D02*X156700Y393500D01*
X158200D01*
X158950Y392750D01*
Y392000D01*
X157450Y390500D02*X158950Y392000D01*
X130000Y384250D02*X160750D01*
X0Y408500D02*X3000D01*
X1500D02*Y402500D01*
X4800Y408500D02*Y402500D01*
Y404750D02*X5550Y405500D01*
X7050D01*
X7800Y404750D01*
Y402500D01*
X10350D02*X12600D01*
X9600Y403250D02*X10350Y402500D01*
X9600Y404750D02*Y403250D01*
Y404750D02*X10350Y405500D01*
X11850D01*
X12600Y404750D01*
X9600Y404000D02*X12600D01*
Y404750D02*Y404000D01*
X15150Y404750D02*Y402500D01*
Y404750D02*X15900Y405500D01*
X17400D01*
X14400D02*X15150Y404750D01*
X19950Y402500D02*X22200D01*
X19200Y403250D02*X19950Y402500D01*
X19200Y404750D02*Y403250D01*
Y404750D02*X19950Y405500D01*
X21450D01*
X22200Y404750D01*
X19200Y404000D02*X22200D01*
Y404750D02*Y404000D01*
X28950Y405500D02*X29700Y404750D01*
X27450Y405500D02*X28950D01*
X26700Y404750D02*X27450Y405500D01*
X26700Y404750D02*Y403250D01*
X27450Y402500D01*
X29700Y405500D02*Y403250D01*
X30450Y402500D01*
X27450D02*X28950D01*
X29700Y403250D01*
X33000Y404750D02*Y402500D01*
Y404750D02*X33750Y405500D01*
X35250D01*
X32250D02*X33000Y404750D01*
X37800Y402500D02*X40050D01*
X37050Y403250D02*X37800Y402500D01*
X37050Y404750D02*Y403250D01*
Y404750D02*X37800Y405500D01*
X39300D01*
X40050Y404750D01*
X37050Y404000D02*X40050D01*
Y404750D02*Y404000D01*
X44550Y407750D02*X45300Y408500D01*
X46800D01*
X47550Y407750D01*
X46800Y402500D02*X47550Y403250D01*
X45300Y402500D02*X46800D01*
X44550Y403250D02*X45300Y402500D01*
Y405800D02*X46800D01*
X47550Y407750D02*Y406550D01*
Y405050D02*Y403250D01*
Y405050D02*X46800Y405800D01*
X47550Y406550D02*X46800Y405800D01*
X55050Y408500D02*Y402500D01*
X54300D02*X55050Y403250D01*
X52800Y402500D02*X54300D01*
X52050Y403250D02*X52800Y402500D01*
X52050Y404750D02*Y403250D01*
Y404750D02*X52800Y405500D01*
X54300D01*
X55050Y404750D01*
G54D46*X56850Y407000D02*Y406850D01*
G54D45*Y404750D02*Y402500D01*
X59100Y407750D02*Y402500D01*
Y407750D02*X59850Y408500D01*
X60600D01*
X58350Y405500D02*X59850D01*
X62850Y407750D02*Y402500D01*
Y407750D02*X63600Y408500D01*
X64350D01*
X62100Y405500D02*X63600D01*
X66600Y402500D02*X68850D01*
X65850Y403250D02*X66600Y402500D01*
X65850Y404750D02*Y403250D01*
Y404750D02*X66600Y405500D01*
X68100D01*
X68850Y404750D01*
X65850Y404000D02*X68850D01*
Y404750D02*Y404000D01*
X71400Y404750D02*Y402500D01*
Y404750D02*X72150Y405500D01*
X73650D01*
X70650D02*X71400Y404750D01*
X76200Y402500D02*X78450D01*
X75450Y403250D02*X76200Y402500D01*
X75450Y404750D02*Y403250D01*
Y404750D02*X76200Y405500D01*
X77700D01*
X78450Y404750D01*
X75450Y404000D02*X78450D01*
Y404750D02*Y404000D01*
X81000Y404750D02*Y402500D01*
Y404750D02*X81750Y405500D01*
X82500D01*
X83250Y404750D01*
Y402500D01*
X80250Y405500D02*X81000Y404750D01*
X85800Y408500D02*Y403250D01*
X86550Y402500D01*
X85050Y406250D02*X86550D01*
X93750Y408500D02*Y402500D01*
X93000D02*X93750Y403250D01*
X91500Y402500D02*X93000D01*
X90750Y403250D02*X91500Y402500D01*
X90750Y404750D02*Y403250D01*
Y404750D02*X91500Y405500D01*
X93000D01*
X93750Y404750D01*
X96300D02*Y402500D01*
Y404750D02*X97050Y405500D01*
X98550D01*
X95550D02*X96300Y404750D01*
G54D46*X100350Y407000D02*Y406850D01*
G54D45*Y404750D02*Y402500D01*
X101850Y408500D02*Y403250D01*
X102600Y402500D01*
X104100Y408500D02*Y403250D01*
X104850Y402500D01*
X109800D02*X112050D01*
X112800Y403250D01*
X112050Y404000D02*X112800Y403250D01*
X109800Y404000D02*X112050D01*
X109050Y404750D02*X109800Y404000D01*
X109050Y404750D02*X109800Y405500D01*
X112050D01*
X112800Y404750D01*
X109050Y403250D02*X109800Y402500D01*
G54D46*X114600Y407000D02*Y406850D01*
G54D45*Y404750D02*Y402500D01*
X116100Y405500D02*X119100D01*
X116100Y402500D02*X119100Y405500D01*
X116100Y402500D02*X119100D01*
X121650D02*X123900D01*
X120900Y403250D02*X121650Y402500D01*
X120900Y404750D02*Y403250D01*
Y404750D02*X121650Y405500D01*
X123150D01*
X123900Y404750D01*
X120900Y404000D02*X123900D01*
Y404750D02*Y404000D01*
X126450Y402500D02*X128700D01*
X129450Y403250D01*
X128700Y404000D02*X129450Y403250D01*
X126450Y404000D02*X128700D01*
X125700Y404750D02*X126450Y404000D01*
X125700Y404750D02*X126450Y405500D01*
X128700D01*
X129450Y404750D01*
X125700Y403250D02*X126450Y402500D01*
X133950Y405500D02*Y403250D01*
X134700Y402500D01*
X136200D01*
X136950Y403250D01*
Y405500D02*Y403250D01*
X139500Y402500D02*X141750D01*
X142500Y403250D01*
X141750Y404000D02*X142500Y403250D01*
X139500Y404000D02*X141750D01*
X138750Y404750D02*X139500Y404000D01*
X138750Y404750D02*X139500Y405500D01*
X141750D01*
X142500Y404750D01*
X138750Y403250D02*X139500Y402500D01*
X145050D02*X147300D01*
X144300Y403250D02*X145050Y402500D01*
X144300Y404750D02*Y403250D01*
Y404750D02*X145050Y405500D01*
X146550D01*
X147300Y404750D01*
X144300Y404000D02*X147300D01*
Y404750D02*Y404000D01*
X152100Y408500D02*Y402500D01*
X151350D02*X152100Y403250D01*
X149850Y402500D02*X151350D01*
X149100Y403250D02*X149850Y402500D01*
X149100Y404750D02*Y403250D01*
Y404750D02*X149850Y405500D01*
X151350D01*
X152100Y404750D01*
G54D46*X156600Y407000D02*Y406850D01*
G54D45*Y404750D02*Y402500D01*
X158850Y404750D02*Y402500D01*
Y404750D02*X159600Y405500D01*
X160350D01*
X161100Y404750D01*
Y402500D01*
X158100Y405500D02*X158850Y404750D01*
X166350Y408500D02*Y403250D01*
X167100Y402500D01*
X165600Y406250D02*X167100D01*
X168600Y408500D02*Y402500D01*
Y404750D02*X169350Y405500D01*
X170850D01*
X171600Y404750D01*
Y402500D01*
G54D46*X173400Y407000D02*Y406850D01*
G54D45*Y404750D02*Y402500D01*
X175650D02*X177900D01*
X178650Y403250D01*
X177900Y404000D02*X178650Y403250D01*
X175650Y404000D02*X177900D01*
X174900Y404750D02*X175650Y404000D01*
X174900Y404750D02*X175650Y405500D01*
X177900D01*
X178650Y404750D01*
X174900Y403250D02*X175650Y402500D01*
X183150Y408500D02*Y403250D01*
X183900Y402500D01*
X187650Y405500D02*X188400Y404750D01*
X186150Y405500D02*X187650D01*
X185400Y404750D02*X186150Y405500D01*
X185400Y404750D02*Y403250D01*
X186150Y402500D01*
X188400Y405500D02*Y403250D01*
X189150Y402500D01*
X186150D02*X187650D01*
X188400Y403250D01*
X190950Y405500D02*Y403250D01*
X191700Y402500D01*
X193950Y405500D02*Y401000D01*
X193200Y400250D02*X193950Y401000D01*
X191700Y400250D02*X193200D01*
X190950Y401000D02*X191700Y400250D01*
Y402500D02*X193200D01*
X193950Y403250D01*
X195750Y404750D02*Y403250D01*
Y404750D02*X196500Y405500D01*
X198000D01*
X198750Y404750D01*
Y403250D01*
X198000Y402500D02*X198750Y403250D01*
X196500Y402500D02*X198000D01*
X195750Y403250D02*X196500Y402500D01*
X200550Y405500D02*Y403250D01*
X201300Y402500D01*
X202800D01*
X203550Y403250D01*
Y405500D02*Y403250D01*
X206100Y408500D02*Y403250D01*
X206850Y402500D01*
X205350Y406250D02*X206850D01*
X208350Y401000D02*X209850Y402500D01*
X214350Y407750D02*X215100Y408500D01*
X217350D01*
X218100Y407750D01*
Y406250D01*
X214350Y402500D02*X218100Y406250D01*
X214350Y402500D02*X218100D01*
X219900Y403250D02*X220650Y402500D01*
X219900Y407750D02*Y403250D01*
Y407750D02*X220650Y408500D01*
X222150D01*
X222900Y407750D01*
Y403250D01*
X222150Y402500D02*X222900Y403250D01*
X220650Y402500D02*X222150D01*
X219900Y404000D02*X222900Y407000D01*
X224700Y403250D02*X225450Y402500D01*
X224700Y407750D02*Y403250D01*
Y407750D02*X225450Y408500D01*
X226950D01*
X227700Y407750D01*
Y403250D01*
X226950Y402500D02*X227700Y403250D01*
X225450Y402500D02*X226950D01*
X224700Y404000D02*X227700Y407000D01*
X232200Y408500D02*Y402500D01*
Y404750D02*X232950Y405500D01*
X234450D01*
X235200Y404750D01*
Y402500D01*
X237000Y404750D02*Y403250D01*
Y404750D02*X237750Y405500D01*
X239250D01*
X240000Y404750D01*
Y403250D01*
X239250Y402500D02*X240000Y403250D01*
X237750Y402500D02*X239250D01*
X237000Y403250D02*X237750Y402500D01*
X241800Y408500D02*Y403250D01*
X242550Y402500D01*
X244800D02*X247050D01*
X244050Y403250D02*X244800Y402500D01*
X244050Y404750D02*Y403250D01*
Y404750D02*X244800Y405500D01*
X246300D01*
X247050Y404750D01*
X244050Y404000D02*X247050D01*
Y404750D02*Y404000D01*
X249600Y402500D02*X251850D01*
X252600Y403250D01*
X251850Y404000D02*X252600Y403250D01*
X249600Y404000D02*X251850D01*
X248850Y404750D02*X249600Y404000D01*
X248850Y404750D02*X249600Y405500D01*
X251850D01*
X252600Y404750D01*
X248850Y403250D02*X249600Y402500D01*
X257850Y408500D02*Y403250D01*
X258600Y402500D01*
X257100Y406250D02*X258600D01*
X260100Y404750D02*Y403250D01*
Y404750D02*X260850Y405500D01*
X262350D01*
X263100Y404750D01*
Y403250D01*
X262350Y402500D02*X263100Y403250D01*
X260850Y402500D02*X262350D01*
X260100Y403250D02*X260850Y402500D01*
X265650Y408500D02*Y403250D01*
X266400Y402500D01*
X264900Y406250D02*X266400D01*
X270150Y405500D02*X270900Y404750D01*
X268650Y405500D02*X270150D01*
X267900Y404750D02*X268650Y405500D01*
X267900Y404750D02*Y403250D01*
X268650Y402500D01*
X270900Y405500D02*Y403250D01*
X271650Y402500D01*
X268650D02*X270150D01*
X270900Y403250D01*
X273450Y408500D02*Y403250D01*
X274200Y402500D01*
G54D47*X0Y320000D02*X250000D01*
X0D02*Y0D01*
X250000Y320000D02*Y0D01*
X0D02*X250000D01*
G54D45*X200000Y333500D02*Y327500D01*
Y333500D02*X202250Y330500D01*
X204500Y333500D01*
Y327500D01*
X208550Y330500D02*X209300Y329750D01*
X207050Y330500D02*X208550D01*
X206300Y329750D02*X207050Y330500D01*
X206300Y329750D02*Y328250D01*
X207050Y327500D01*
X209300Y330500D02*Y328250D01*
X210050Y327500D01*
X207050D02*X208550D01*
X209300Y328250D01*
X211850Y330500D02*X214850Y327500D01*
X211850D02*X214850Y330500D01*
G54D46*X216650Y332000D02*Y331850D01*
G54D45*Y329750D02*Y327500D01*
X218900Y329750D02*Y327500D01*
Y329750D02*X219650Y330500D01*
X220400D01*
X221150Y329750D01*
Y327500D01*
Y329750D02*X221900Y330500D01*
X222650D01*
X223400Y329750D01*
Y327500D01*
X218150Y330500D02*X218900Y329750D01*
X225200Y330500D02*Y328250D01*
X225950Y327500D01*
X227450D01*
X228200Y328250D01*
Y330500D02*Y328250D01*
X230750Y329750D02*Y327500D01*
Y329750D02*X231500Y330500D01*
X232250D01*
X233000Y329750D01*
Y327500D01*
Y329750D02*X233750Y330500D01*
X234500D01*
X235250Y329750D01*
Y327500D01*
X230000Y330500D02*X230750Y329750D01*
X240500Y333500D02*Y327500D01*
X242450Y333500D02*X243500Y332450D01*
Y328550D01*
X242450Y327500D02*X243500Y328550D01*
X239750Y327500D02*X242450D01*
X239750Y333500D02*X242450D01*
G54D46*X245300Y332000D02*Y331850D01*
G54D45*Y329750D02*Y327500D01*
X247550Y329750D02*Y327500D01*
Y329750D02*X248300Y330500D01*
X249050D01*
X249800Y329750D01*
Y327500D01*
Y329750D02*X250550Y330500D01*
X251300D01*
X252050Y329750D01*
Y327500D01*
X246800Y330500D02*X247550Y329750D01*
X254600Y327500D02*X256850D01*
X253850Y328250D02*X254600Y327500D01*
X253850Y329750D02*Y328250D01*
Y329750D02*X254600Y330500D01*
X256100D01*
X256850Y329750D01*
X253850Y329000D02*X256850D01*
Y329750D02*Y329000D01*
X259400Y329750D02*Y327500D01*
Y329750D02*X260150Y330500D01*
X260900D01*
X261650Y329750D01*
Y327500D01*
X258650Y330500D02*X259400Y329750D01*
X264200Y327500D02*X266450D01*
X267200Y328250D01*
X266450Y329000D02*X267200Y328250D01*
X264200Y329000D02*X266450D01*
X263450Y329750D02*X264200Y329000D01*
X263450Y329750D02*X264200Y330500D01*
X266450D01*
X267200Y329750D01*
X263450Y328250D02*X264200Y327500D01*
G54D46*X269000Y332000D02*Y331850D01*
G54D45*Y329750D02*Y327500D01*
X270500Y329750D02*Y328250D01*
Y329750D02*X271250Y330500D01*
X272750D01*
X273500Y329750D01*
Y328250D01*
X272750Y327500D02*X273500Y328250D01*
X271250Y327500D02*X272750D01*
X270500Y328250D02*X271250Y327500D01*
X276050Y329750D02*Y327500D01*
Y329750D02*X276800Y330500D01*
X277550D01*
X278300Y329750D01*
Y327500D01*
X275300Y330500D02*X276050Y329750D01*
X280850Y327500D02*X283100D01*
X283850Y328250D01*
X283100Y329000D02*X283850Y328250D01*
X280850Y329000D02*X283100D01*
X280100Y329750D02*X280850Y329000D01*
X280100Y329750D02*X280850Y330500D01*
X283100D01*
X283850Y329750D01*
X280100Y328250D02*X280850Y327500D01*
X285650Y331250D02*X286400D01*
X285650Y329750D02*X286400D01*
X290900Y332750D02*X291650Y333500D01*
X293900D01*
X294650Y332750D01*
Y331250D01*
X290900Y327500D02*X294650Y331250D01*
X290900Y327500D02*X294650D01*
X296450Y333500D02*X299450D01*
X296450D02*Y330500D01*
X297200Y331250D01*
X298700D01*
X299450Y330500D01*
Y328250D01*
X298700Y327500D02*X299450Y328250D01*
X297200Y327500D02*X298700D01*
X296450Y328250D02*X297200Y327500D01*
X301250Y328250D02*X302000Y327500D01*
X301250Y332750D02*Y328250D01*
Y332750D02*X302000Y333500D01*
X303500D01*
X304250Y332750D01*
Y328250D01*
X303500Y327500D02*X304250Y328250D01*
X302000Y327500D02*X303500D01*
X301250Y329000D02*X304250Y332000D01*
X306050Y328250D02*X306800Y327500D01*
X306050Y332750D02*Y328250D01*
Y332750D02*X306800Y333500D01*
X308300D01*
X309050Y332750D01*
Y328250D01*
X308300Y327500D02*X309050Y328250D01*
X306800Y327500D02*X308300D01*
X306050Y329000D02*X309050Y332000D01*
X310850Y327500D02*X311600D01*
X313400Y328250D02*X314150Y327500D01*
X313400Y332750D02*Y328250D01*
Y332750D02*X314150Y333500D01*
X315650D01*
X316400Y332750D01*
Y328250D01*
X315650Y327500D02*X316400Y328250D01*
X314150Y327500D02*X315650D01*
X313400Y329000D02*X316400Y332000D01*
X318200Y328250D02*X318950Y327500D01*
X318200Y332750D02*Y328250D01*
Y332750D02*X318950Y333500D01*
X320450D01*
X321200Y332750D01*
Y328250D01*
X320450Y327500D02*X321200Y328250D01*
X318950Y327500D02*X320450D01*
X318200Y329000D02*X321200Y332000D01*
X323000Y328250D02*X323750Y327500D01*
X323000Y332750D02*Y328250D01*
Y332750D02*X323750Y333500D01*
X325250D01*
X326000Y332750D01*
Y328250D01*
X325250Y327500D02*X326000Y328250D01*
X323750Y327500D02*X325250D01*
X323000Y329000D02*X326000Y332000D01*
X327800Y328250D02*X328550Y327500D01*
X327800Y332750D02*Y328250D01*
Y332750D02*X328550Y333500D01*
X330050D01*
X330800Y332750D01*
Y328250D01*
X330050Y327500D02*X330800Y328250D01*
X328550Y327500D02*X330050D01*
X327800Y329000D02*X330800Y332000D01*
X332600Y328250D02*X333350Y327500D01*
X332600Y332750D02*Y328250D01*
Y332750D02*X333350Y333500D01*
X334850D01*
X335600Y332750D01*
Y328250D01*
X334850Y327500D02*X335600Y328250D01*
X333350Y327500D02*X334850D01*
X332600Y329000D02*X335600Y332000D01*
X337400Y328250D02*X338150Y327500D01*
X337400Y332750D02*Y328250D01*
Y332750D02*X338150Y333500D01*
X339650D01*
X340400Y332750D01*
Y328250D01*
X339650Y327500D02*X340400Y328250D01*
X338150Y327500D02*X339650D01*
X337400Y329000D02*X340400Y332000D01*
X345650Y329750D02*Y327500D01*
Y329750D02*X346400Y330500D01*
X347150D01*
X347900Y329750D01*
Y327500D01*
Y329750D02*X348650Y330500D01*
X349400D01*
X350150Y329750D01*
Y327500D01*
X344900Y330500D02*X345650Y329750D01*
G54D46*X351950Y332000D02*Y331850D01*
G54D45*Y329750D02*Y327500D01*
X353450Y333500D02*Y328250D01*
X354200Y327500D01*
X356450D02*X358700D01*
X359450Y328250D01*
X358700Y329000D02*X359450Y328250D01*
X356450Y329000D02*X358700D01*
X355700Y329750D02*X356450Y329000D01*
X355700Y329750D02*X356450Y330500D01*
X358700D01*
X359450Y329750D01*
X355700Y328250D02*X356450Y327500D01*
X363950Y330500D02*Y328250D01*
X364700Y327500D01*
X365450D01*
X366200Y328250D01*
Y330500D02*Y328250D01*
X366950Y327500D01*
X367700D01*
X368450Y328250D01*
Y330500D02*Y328250D01*
G54D46*X370250Y332000D02*Y331850D01*
G54D45*Y329750D02*Y327500D01*
X374750Y333500D02*Y327500D01*
X374000D02*X374750Y328250D01*
X372500Y327500D02*X374000D01*
X371750Y328250D02*X372500Y327500D01*
X371750Y329750D02*Y328250D01*
Y329750D02*X372500Y330500D01*
X374000D01*
X374750Y329750D01*
X377300Y327500D02*X379550D01*
X376550Y328250D02*X377300Y327500D01*
X376550Y329750D02*Y328250D01*
Y329750D02*X377300Y330500D01*
X378800D01*
X379550Y329750D01*
X376550Y329000D02*X379550D01*
Y329750D02*Y329000D01*
X381350Y326000D02*X382850Y327500D01*
X387350Y332750D02*X388100Y333500D01*
X389600D01*
X390350Y332750D01*
X389600Y327500D02*X390350Y328250D01*
X388100Y327500D02*X389600D01*
X387350Y328250D02*X388100Y327500D01*
Y330800D02*X389600D01*
X390350Y332750D02*Y331550D01*
Y330050D02*Y328250D01*
Y330050D02*X389600Y330800D01*
X390350Y331550D02*X389600Y330800D01*
X392150Y332750D02*X392900Y333500D01*
X395150D01*
X395900Y332750D01*
Y331250D01*
X392150Y327500D02*X395900Y331250D01*
X392150Y327500D02*X395900D01*
X397700Y328250D02*X398450Y327500D01*
X397700Y332750D02*Y328250D01*
Y332750D02*X398450Y333500D01*
X399950D01*
X400700Y332750D01*
Y328250D01*
X399950Y327500D02*X400700Y328250D01*
X398450Y327500D02*X399950D01*
X397700Y329000D02*X400700Y332000D01*
X402500Y328250D02*X403250Y327500D01*
X402500Y332750D02*Y328250D01*
Y332750D02*X403250Y333500D01*
X404750D01*
X405500Y332750D01*
Y328250D01*
X404750Y327500D02*X405500Y328250D01*
X403250Y327500D02*X404750D01*
X402500Y329000D02*X405500Y332000D01*
X407300Y327500D02*X408050D01*
X409850Y328250D02*X410600Y327500D01*
X409850Y332750D02*Y328250D01*
Y332750D02*X410600Y333500D01*
X412100D01*
X412850Y332750D01*
Y328250D01*
X412100Y327500D02*X412850Y328250D01*
X410600Y327500D02*X412100D01*
X409850Y329000D02*X412850Y332000D01*
X414650Y328250D02*X415400Y327500D01*
X414650Y332750D02*Y328250D01*
Y332750D02*X415400Y333500D01*
X416900D01*
X417650Y332750D01*
Y328250D01*
X416900Y327500D02*X417650Y328250D01*
X415400Y327500D02*X416900D01*
X414650Y329000D02*X417650Y332000D01*
X419450Y328250D02*X420200Y327500D01*
X419450Y332750D02*Y328250D01*
Y332750D02*X420200Y333500D01*
X421700D01*
X422450Y332750D01*
Y328250D01*
X421700Y327500D02*X422450Y328250D01*
X420200Y327500D02*X421700D01*
X419450Y329000D02*X422450Y332000D01*
X424250Y328250D02*X425000Y327500D01*
X424250Y332750D02*Y328250D01*
Y332750D02*X425000Y333500D01*
X426500D01*
X427250Y332750D01*
Y328250D01*
X426500Y327500D02*X427250Y328250D01*
X425000Y327500D02*X426500D01*
X424250Y329000D02*X427250Y332000D01*
X429050Y328250D02*X429800Y327500D01*
X429050Y332750D02*Y328250D01*
Y332750D02*X429800Y333500D01*
X431300D01*
X432050Y332750D01*
Y328250D01*
X431300Y327500D02*X432050Y328250D01*
X429800Y327500D02*X431300D01*
X429050Y329000D02*X432050Y332000D01*
X433850Y328250D02*X434600Y327500D01*
X433850Y332750D02*Y328250D01*
Y332750D02*X434600Y333500D01*
X436100D01*
X436850Y332750D01*
Y328250D01*
X436100Y327500D02*X436850Y328250D01*
X434600Y327500D02*X436100D01*
X433850Y329000D02*X436850Y332000D01*
X442100Y329750D02*Y327500D01*
Y329750D02*X442850Y330500D01*
X443600D01*
X444350Y329750D01*
Y327500D01*
Y329750D02*X445100Y330500D01*
X445850D01*
X446600Y329750D01*
Y327500D01*
X441350Y330500D02*X442100Y329750D01*
G54D46*X448400Y332000D02*Y331850D01*
G54D45*Y329750D02*Y327500D01*
X449900Y333500D02*Y328250D01*
X450650Y327500D01*
X452900D02*X455150D01*
X455900Y328250D01*
X455150Y329000D02*X455900Y328250D01*
X452900Y329000D02*X455150D01*
X452150Y329750D02*X452900Y329000D01*
X452150Y329750D02*X452900Y330500D01*
X455150D01*
X455900Y329750D01*
X452150Y328250D02*X452900Y327500D01*
X460400Y333500D02*Y327500D01*
Y329750D02*X461150Y330500D01*
X462650D01*
X463400Y329750D01*
Y327500D01*
G54D46*X465200Y332000D02*Y331850D01*
G54D45*Y329750D02*Y327500D01*
X468950Y330500D02*X469700Y329750D01*
X467450Y330500D02*X468950D01*
X466700Y329750D02*X467450Y330500D01*
X466700Y329750D02*Y328250D01*
X467450Y327500D01*
X468950D01*
X469700Y328250D01*
X466700Y326000D02*X467450Y325250D01*
X468950D01*
X469700Y326000D01*
Y330500D02*Y326000D01*
X471500Y333500D02*Y327500D01*
Y329750D02*X472250Y330500D01*
X473750D01*
X474500Y329750D01*
Y327500D01*
X0Y-9500D02*X3000D01*
X3750Y-8750D01*
Y-6950D02*Y-8750D01*
X3000Y-6200D02*X3750Y-6950D01*
X750Y-6200D02*X3000D01*
X750Y-3500D02*Y-9500D01*
X0Y-3500D02*X3000D01*
X3750Y-4250D01*
Y-5450D01*
X3000Y-6200D02*X3750Y-5450D01*
X5550Y-7250D02*Y-8750D01*
Y-7250D02*X6300Y-6500D01*
X7800D01*
X8550Y-7250D01*
Y-8750D01*
X7800Y-9500D02*X8550Y-8750D01*
X6300Y-9500D02*X7800D01*
X5550Y-8750D02*X6300Y-9500D01*
X12600Y-6500D02*X13350Y-7250D01*
X11100Y-6500D02*X12600D01*
X10350Y-7250D02*X11100Y-6500D01*
X10350Y-7250D02*Y-8750D01*
X11100Y-9500D01*
X13350Y-6500D02*Y-8750D01*
X14100Y-9500D01*
X11100D02*X12600D01*
X13350Y-8750D01*
X16650Y-7250D02*Y-9500D01*
Y-7250D02*X17400Y-6500D01*
X18900D01*
X15900D02*X16650Y-7250D01*
X23700Y-3500D02*Y-9500D01*
X22950D02*X23700Y-8750D01*
X21450Y-9500D02*X22950D01*
X20700Y-8750D02*X21450Y-9500D01*
X20700Y-7250D02*Y-8750D01*
Y-7250D02*X21450Y-6500D01*
X22950D01*
X23700Y-7250D01*
X28200D02*Y-8750D01*
Y-7250D02*X28950Y-6500D01*
X30450D01*
X31200Y-7250D01*
Y-8750D01*
X30450Y-9500D02*X31200Y-8750D01*
X28950Y-9500D02*X30450D01*
X28200Y-8750D02*X28950Y-9500D01*
X33000Y-6500D02*Y-8750D01*
X33750Y-9500D01*
X35250D01*
X36000Y-8750D01*
Y-6500D02*Y-8750D01*
X38550Y-3500D02*Y-8750D01*
X39300Y-9500D01*
X37800Y-5750D02*X39300D01*
X40800Y-3500D02*Y-8750D01*
X41550Y-9500D01*
G54D46*X43050Y-5000D02*Y-5150D01*
G54D45*Y-7250D02*Y-9500D01*
X45300Y-7250D02*Y-9500D01*
Y-7250D02*X46050Y-6500D01*
X46800D01*
X47550Y-7250D01*
Y-9500D01*
X44550Y-6500D02*X45300Y-7250D01*
X50100Y-9500D02*X52350D01*
X49350Y-8750D02*X50100Y-9500D01*
X49350Y-7250D02*Y-8750D01*
Y-7250D02*X50100Y-6500D01*
X51600D01*
X52350Y-7250D01*
X49350Y-8000D02*X52350D01*
Y-7250D02*Y-8000D01*
G54D46*X56850Y-5000D02*Y-5150D01*
G54D45*Y-7250D02*Y-9500D01*
X59100D02*X61350D01*
X62100Y-8750D01*
X61350Y-8000D02*X62100Y-8750D01*
X59100Y-8000D02*X61350D01*
X58350Y-7250D02*X59100Y-8000D01*
X58350Y-7250D02*X59100Y-6500D01*
X61350D01*
X62100Y-7250D01*
X58350Y-8750D02*X59100Y-9500D01*
X67350Y-3500D02*Y-8750D01*
X68100Y-9500D01*
X66600Y-5750D02*X68100D01*
X69600Y-3500D02*Y-9500D01*
Y-7250D02*X70350Y-6500D01*
X71850D01*
X72600Y-7250D01*
Y-9500D01*
X75150D02*X77400D01*
X74400Y-8750D02*X75150Y-9500D01*
X74400Y-7250D02*Y-8750D01*
Y-7250D02*X75150Y-6500D01*
X76650D01*
X77400Y-7250D01*
X74400Y-8000D02*X77400D01*
Y-7250D02*Y-8000D01*
X82650Y-6500D02*X84900D01*
X81900Y-7250D02*X82650Y-6500D01*
X81900Y-7250D02*Y-8750D01*
X82650Y-9500D01*
X84900D01*
X87450D02*X89700D01*
X86700Y-8750D02*X87450Y-9500D01*
X86700Y-7250D02*Y-8750D01*
Y-7250D02*X87450Y-6500D01*
X88950D01*
X89700Y-7250D01*
X86700Y-8000D02*X89700D01*
Y-7250D02*Y-8000D01*
X92250Y-7250D02*Y-9500D01*
Y-7250D02*X93000Y-6500D01*
X93750D01*
X94500Y-7250D01*
Y-9500D01*
X91500Y-6500D02*X92250Y-7250D01*
X97050Y-3500D02*Y-8750D01*
X97800Y-9500D01*
X96300Y-5750D02*X97800D01*
X100050Y-9500D02*X102300D01*
X99300Y-8750D02*X100050Y-9500D01*
X99300Y-7250D02*Y-8750D01*
Y-7250D02*X100050Y-6500D01*
X101550D01*
X102300Y-7250D01*
X99300Y-8000D02*X102300D01*
Y-7250D02*Y-8000D01*
X104850Y-7250D02*Y-9500D01*
Y-7250D02*X105600Y-6500D01*
X107100D01*
X104100D02*X104850Y-7250D01*
X108900Y-3500D02*Y-8750D01*
X109650Y-9500D01*
G54D46*X111150Y-5000D02*Y-5150D01*
G54D45*Y-7250D02*Y-9500D01*
X113400Y-7250D02*Y-9500D01*
Y-7250D02*X114150Y-6500D01*
X114900D01*
X115650Y-7250D01*
Y-9500D01*
X112650Y-6500D02*X113400Y-7250D01*
X118200Y-9500D02*X120450D01*
X117450Y-8750D02*X118200Y-9500D01*
X117450Y-7250D02*Y-8750D01*
Y-7250D02*X118200Y-6500D01*
X119700D01*
X120450Y-7250D01*
X117450Y-8000D02*X120450D01*
Y-7250D02*Y-8000D01*
X124950Y-7250D02*Y-8750D01*
Y-7250D02*X125700Y-6500D01*
X127200D01*
X127950Y-7250D01*
Y-8750D01*
X127200Y-9500D02*X127950Y-8750D01*
X125700Y-9500D02*X127200D01*
X124950Y-8750D02*X125700Y-9500D01*
X130500Y-4250D02*Y-9500D01*
Y-4250D02*X131250Y-3500D01*
X132000D01*
X129750Y-6500D02*X131250D01*
X136950Y-3500D02*Y-8750D01*
X137700Y-9500D01*
X136200Y-5750D02*X137700D01*
X139200Y-3500D02*Y-9500D01*
Y-7250D02*X139950Y-6500D01*
X141450D01*
X142200Y-7250D01*
Y-9500D01*
G54D46*X144000Y-5000D02*Y-5150D01*
G54D45*Y-7250D02*Y-9500D01*
X146250D02*X148500D01*
X149250Y-8750D01*
X148500Y-8000D02*X149250Y-8750D01*
X146250Y-8000D02*X148500D01*
X145500Y-7250D02*X146250Y-8000D01*
X145500Y-7250D02*X146250Y-6500D01*
X148500D01*
X149250Y-7250D01*
X145500Y-8750D02*X146250Y-9500D01*
X153750Y-8750D02*X154500Y-9500D01*
X153750Y-7550D02*Y-8750D01*
Y-7550D02*X154800Y-6500D01*
X155700D01*
X156750Y-7550D01*
Y-8750D01*
X156000Y-9500D02*X156750Y-8750D01*
X154500Y-9500D02*X156000D01*
X153750Y-5450D02*X154800Y-6500D01*
X153750Y-4250D02*Y-5450D01*
Y-4250D02*X154500Y-3500D01*
X156000D01*
X156750Y-4250D01*
Y-5450D01*
X155700Y-6500D02*X156750Y-5450D01*
X158550Y-9500D02*X159300D01*
X161100Y-8750D02*X161850Y-9500D01*
X161100Y-4250D02*Y-8750D01*
Y-4250D02*X161850Y-3500D01*
X163350D01*
X164100Y-4250D01*
Y-8750D01*
X163350Y-9500D02*X164100Y-8750D01*
X161850Y-9500D02*X163350D01*
X161100Y-8000D02*X164100Y-5000D01*
X165900Y-8750D02*X166650Y-9500D01*
X165900Y-4250D02*Y-8750D01*
Y-4250D02*X166650Y-3500D01*
X168150D01*
X168900Y-4250D01*
Y-8750D01*
X168150Y-9500D02*X168900Y-8750D01*
X166650Y-9500D02*X168150D01*
X165900Y-8000D02*X168900Y-5000D01*
X170700Y-8750D02*X171450Y-9500D01*
X170700Y-4250D02*Y-8750D01*
Y-4250D02*X171450Y-3500D01*
X172950D01*
X173700Y-4250D01*
Y-8750D01*
X172950Y-9500D02*X173700Y-8750D01*
X171450Y-9500D02*X172950D01*
X170700Y-8000D02*X173700Y-5000D01*
X175500Y-8750D02*X176250Y-9500D01*
X175500Y-4250D02*Y-8750D01*
Y-4250D02*X176250Y-3500D01*
X177750D01*
X178500Y-4250D01*
Y-8750D01*
X177750Y-9500D02*X178500Y-8750D01*
X176250Y-9500D02*X177750D01*
X175500Y-8000D02*X178500Y-5000D01*
X180300Y-8750D02*X181050Y-9500D01*
X180300Y-4250D02*Y-8750D01*
Y-4250D02*X181050Y-3500D01*
X182550D01*
X183300Y-4250D01*
Y-8750D01*
X182550Y-9500D02*X183300Y-8750D01*
X181050Y-9500D02*X182550D01*
X180300Y-8000D02*X183300Y-5000D01*
X185100Y-8750D02*X185850Y-9500D01*
X185100Y-4250D02*Y-8750D01*
Y-4250D02*X185850Y-3500D01*
X187350D01*
X188100Y-4250D01*
Y-8750D01*
X187350Y-9500D02*X188100Y-8750D01*
X185850Y-9500D02*X187350D01*
X185100Y-8000D02*X188100Y-5000D01*
X193350Y-7250D02*Y-9500D01*
Y-7250D02*X194100Y-6500D01*
X194850D01*
X195600Y-7250D01*
Y-9500D01*
Y-7250D02*X196350Y-6500D01*
X197100D01*
X197850Y-7250D01*
Y-9500D01*
X192600Y-6500D02*X193350Y-7250D01*
G54D46*X199650Y-5000D02*Y-5150D01*
G54D45*Y-7250D02*Y-9500D01*
X201150Y-3500D02*Y-8750D01*
X201900Y-9500D01*
X206850Y-7250D02*Y-9500D01*
Y-7250D02*X207600Y-6500D01*
X209100D01*
X206100D02*X206850Y-7250D01*
X211650Y-9500D02*X213900D01*
X210900Y-8750D02*X211650Y-9500D01*
X210900Y-7250D02*Y-8750D01*
Y-7250D02*X211650Y-6500D01*
X213150D01*
X213900Y-7250D01*
X210900Y-8000D02*X213900D01*
Y-7250D02*Y-8000D01*
X216450Y-6500D02*X218700D01*
X215700Y-7250D02*X216450Y-6500D01*
X215700Y-7250D02*Y-8750D01*
X216450Y-9500D01*
X218700D01*
X221250Y-3500D02*Y-8750D01*
X222000Y-9500D01*
X220500Y-5750D02*X222000D01*
X225750Y-6500D02*X226500Y-7250D01*
X224250Y-6500D02*X225750D01*
X223500Y-7250D02*X224250Y-6500D01*
X223500Y-7250D02*Y-8750D01*
X224250Y-9500D01*
X226500Y-6500D02*Y-8750D01*
X227250Y-9500D01*
X224250D02*X225750D01*
X226500Y-8750D01*
X229800Y-7250D02*Y-9500D01*
Y-7250D02*X230550Y-6500D01*
X231300D01*
X232050Y-7250D01*
Y-9500D01*
X229050Y-6500D02*X229800Y-7250D01*
X236100Y-6500D02*X236850Y-7250D01*
X234600Y-6500D02*X236100D01*
X233850Y-7250D02*X234600Y-6500D01*
X233850Y-7250D02*Y-8750D01*
X234600Y-9500D01*
X236100D01*
X236850Y-8750D01*
X233850Y-11000D02*X234600Y-11750D01*
X236100D01*
X236850Y-11000D01*
Y-6500D02*Y-11000D01*
X238650Y-3500D02*Y-8750D01*
X239400Y-9500D01*
X241650D02*X243900D01*
X240900Y-8750D02*X241650Y-9500D01*
X240900Y-7250D02*Y-8750D01*
Y-7250D02*X241650Y-6500D01*
X243150D01*
X243900Y-7250D01*
X240900Y-8000D02*X243900D01*
Y-7250D02*Y-8000D01*
X248400Y-6500D02*X251400D01*
X255900Y-8750D02*X256650Y-9500D01*
X255900Y-4250D02*Y-8750D01*
Y-4250D02*X256650Y-3500D01*
X258150D01*
X258900Y-4250D01*
Y-8750D01*
X258150Y-9500D02*X258900Y-8750D01*
X256650Y-9500D02*X258150D01*
X255900Y-8000D02*X258900Y-5000D01*
X260700Y-11000D02*X262200Y-9500D01*
X264000Y-8750D02*X264750Y-9500D01*
X264000Y-4250D02*Y-8750D01*
Y-4250D02*X264750Y-3500D01*
X266250D01*
X267000Y-4250D01*
Y-8750D01*
X266250Y-9500D02*X267000Y-8750D01*
X264750Y-9500D02*X266250D01*
X264000Y-8000D02*X267000Y-5000D01*
X272250Y-3500D02*Y-8750D01*
X273000Y-9500D01*
X271500Y-5750D02*X273000D01*
X274500Y-7250D02*Y-8750D01*
Y-7250D02*X275250Y-6500D01*
X276750D01*
X277500Y-7250D01*
Y-8750D01*
X276750Y-9500D02*X277500Y-8750D01*
X275250Y-9500D02*X276750D01*
X274500Y-8750D02*X275250Y-9500D01*
X282000Y-4250D02*X282750Y-3500D01*
X285000D01*
X285750Y-4250D01*
Y-5750D01*
X282000Y-9500D02*X285750Y-5750D01*
X282000Y-9500D02*X285750D01*
X287550Y-3500D02*X290550D01*
X287550D02*Y-6500D01*
X288300Y-5750D01*
X289800D01*
X290550Y-6500D01*
Y-8750D01*
X289800Y-9500D02*X290550Y-8750D01*
X288300Y-9500D02*X289800D01*
X287550Y-8750D02*X288300Y-9500D01*
X292350Y-8750D02*X293100Y-9500D01*
X292350Y-4250D02*Y-8750D01*
Y-4250D02*X293100Y-3500D01*
X294600D01*
X295350Y-4250D01*
Y-8750D01*
X294600Y-9500D02*X295350Y-8750D01*
X293100Y-9500D02*X294600D01*
X292350Y-8000D02*X295350Y-5000D01*
X297150Y-8750D02*X297900Y-9500D01*
X297150Y-4250D02*Y-8750D01*
Y-4250D02*X297900Y-3500D01*
X299400D01*
X300150Y-4250D01*
Y-8750D01*
X299400Y-9500D02*X300150Y-8750D01*
X297900Y-9500D02*X299400D01*
X297150Y-8000D02*X300150Y-5000D01*
X301950Y-9500D02*X302700D01*
X304500Y-8750D02*X305250Y-9500D01*
X304500Y-4250D02*Y-8750D01*
Y-4250D02*X305250Y-3500D01*
X306750D01*
X307500Y-4250D01*
Y-8750D01*
X306750Y-9500D02*X307500Y-8750D01*
X305250Y-9500D02*X306750D01*
X304500Y-8000D02*X307500Y-5000D01*
X309300Y-8750D02*X310050Y-9500D01*
X309300Y-4250D02*Y-8750D01*
Y-4250D02*X310050Y-3500D01*
X311550D01*
X312300Y-4250D01*
Y-8750D01*
X311550Y-9500D02*X312300Y-8750D01*
X310050Y-9500D02*X311550D01*
X309300Y-8000D02*X312300Y-5000D01*
X314100Y-8750D02*X314850Y-9500D01*
X314100Y-4250D02*Y-8750D01*
Y-4250D02*X314850Y-3500D01*
X316350D01*
X317100Y-4250D01*
Y-8750D01*
X316350Y-9500D02*X317100Y-8750D01*
X314850Y-9500D02*X316350D01*
X314100Y-8000D02*X317100Y-5000D01*
X318900Y-8750D02*X319650Y-9500D01*
X318900Y-4250D02*Y-8750D01*
Y-4250D02*X319650Y-3500D01*
X321150D01*
X321900Y-4250D01*
Y-8750D01*
X321150Y-9500D02*X321900Y-8750D01*
X319650Y-9500D02*X321150D01*
X318900Y-8000D02*X321900Y-5000D01*
X323700Y-8750D02*X324450Y-9500D01*
X323700Y-4250D02*Y-8750D01*
Y-4250D02*X324450Y-3500D01*
X325950D01*
X326700Y-4250D01*
Y-8750D01*
X325950Y-9500D02*X326700Y-8750D01*
X324450Y-9500D02*X325950D01*
X323700Y-8000D02*X326700Y-5000D01*
X328500Y-8750D02*X329250Y-9500D01*
X328500Y-4250D02*Y-8750D01*
Y-4250D02*X329250Y-3500D01*
X330750D01*
X331500Y-4250D01*
Y-8750D01*
X330750Y-9500D02*X331500Y-8750D01*
X329250Y-9500D02*X330750D01*
X328500Y-8000D02*X331500Y-5000D01*
X333300Y-11000D02*X334800Y-9500D01*
X336600Y-4250D02*X337350Y-3500D01*
X338850D01*
X339600Y-4250D01*
X338850Y-9500D02*X339600Y-8750D01*
X337350Y-9500D02*X338850D01*
X336600Y-8750D02*X337350Y-9500D01*
Y-6200D02*X338850D01*
X339600Y-4250D02*Y-5450D01*
Y-6950D02*Y-8750D01*
Y-6950D02*X338850Y-6200D01*
X339600Y-5450D02*X338850Y-6200D01*
X341400Y-4250D02*X342150Y-3500D01*
X344400D01*
X345150Y-4250D01*
Y-5750D01*
X341400Y-9500D02*X345150Y-5750D01*
X341400Y-9500D02*X345150D01*
X346950Y-8750D02*X347700Y-9500D01*
X346950Y-4250D02*Y-8750D01*
Y-4250D02*X347700Y-3500D01*
X349200D01*
X349950Y-4250D01*
Y-8750D01*
X349200Y-9500D02*X349950Y-8750D01*
X347700Y-9500D02*X349200D01*
X346950Y-8000D02*X349950Y-5000D01*
X351750Y-8750D02*X352500Y-9500D01*
X351750Y-4250D02*Y-8750D01*
Y-4250D02*X352500Y-3500D01*
X354000D01*
X354750Y-4250D01*
Y-8750D01*
X354000Y-9500D02*X354750Y-8750D01*
X352500Y-9500D02*X354000D01*
X351750Y-8000D02*X354750Y-5000D01*
X356550Y-9500D02*X357300D01*
X359100Y-8750D02*X359850Y-9500D01*
X359100Y-4250D02*Y-8750D01*
Y-4250D02*X359850Y-3500D01*
X361350D01*
X362100Y-4250D01*
Y-8750D01*
X361350Y-9500D02*X362100Y-8750D01*
X359850Y-9500D02*X361350D01*
X359100Y-8000D02*X362100Y-5000D01*
X363900Y-8750D02*X364650Y-9500D01*
X363900Y-4250D02*Y-8750D01*
Y-4250D02*X364650Y-3500D01*
X366150D01*
X366900Y-4250D01*
Y-8750D01*
X366150Y-9500D02*X366900Y-8750D01*
X364650Y-9500D02*X366150D01*
X363900Y-8000D02*X366900Y-5000D01*
X368700Y-8750D02*X369450Y-9500D01*
X368700Y-4250D02*Y-8750D01*
Y-4250D02*X369450Y-3500D01*
X370950D01*
X371700Y-4250D01*
Y-8750D01*
X370950Y-9500D02*X371700Y-8750D01*
X369450Y-9500D02*X370950D01*
X368700Y-8000D02*X371700Y-5000D01*
X373500Y-8750D02*X374250Y-9500D01*
X373500Y-4250D02*Y-8750D01*
Y-4250D02*X374250Y-3500D01*
X375750D01*
X376500Y-4250D01*
Y-8750D01*
X375750Y-9500D02*X376500Y-8750D01*
X374250Y-9500D02*X375750D01*
X373500Y-8000D02*X376500Y-5000D01*
X378300Y-8750D02*X379050Y-9500D01*
X378300Y-4250D02*Y-8750D01*
Y-4250D02*X379050Y-3500D01*
X380550D01*
X381300Y-4250D01*
Y-8750D01*
X380550Y-9500D02*X381300Y-8750D01*
X379050Y-9500D02*X380550D01*
X378300Y-8000D02*X381300Y-5000D01*
X383100Y-8750D02*X383850Y-9500D01*
X383100Y-4250D02*Y-8750D01*
Y-4250D02*X383850Y-3500D01*
X385350D01*
X386100Y-4250D01*
Y-8750D01*
X385350Y-9500D02*X386100Y-8750D01*
X383850Y-9500D02*X385350D01*
X383100Y-8000D02*X386100Y-5000D01*
X391350Y-7250D02*Y-9500D01*
Y-7250D02*X392100Y-6500D01*
X392850D01*
X393600Y-7250D01*
Y-9500D01*
Y-7250D02*X394350Y-6500D01*
X395100D01*
X395850Y-7250D01*
Y-9500D01*
X390600Y-6500D02*X391350Y-7250D01*
G54D46*X397650Y-5000D02*Y-5150D01*
G54D45*Y-7250D02*Y-9500D01*
X399150Y-3500D02*Y-8750D01*
X399900Y-9500D01*
X402150D02*X404400D01*
X405150Y-8750D01*
X404400Y-8000D02*X405150Y-8750D01*
X402150Y-8000D02*X404400D01*
X401400Y-7250D02*X402150Y-8000D01*
X401400Y-7250D02*X402150Y-6500D01*
X404400D01*
X405150Y-7250D01*
X401400Y-8750D02*X402150Y-9500D01*
X200750Y348500D02*Y342500D01*
X202700Y348500D02*X203750Y347450D01*
Y343550D01*
X202700Y342500D02*X203750Y343550D01*
X200000Y342500D02*X202700D01*
X200000Y348500D02*X202700D01*
X207800Y345500D02*X208550Y344750D01*
X206300Y345500D02*X207800D01*
X205550Y344750D02*X206300Y345500D01*
X205550Y344750D02*Y343250D01*
X206300Y342500D01*
X208550Y345500D02*Y343250D01*
X209300Y342500D01*
X206300D02*X207800D01*
X208550Y343250D01*
X211850Y348500D02*Y343250D01*
X212600Y342500D01*
X211100Y346250D02*X212600D01*
X214850Y342500D02*X217100D01*
X214100Y343250D02*X214850Y342500D01*
X214100Y344750D02*Y343250D01*
Y344750D02*X214850Y345500D01*
X216350D01*
X217100Y344750D01*
X214100Y344000D02*X217100D01*
Y344750D02*Y344000D01*
X218900Y346250D02*X219650D01*
X218900Y344750D02*X219650D01*
X224150Y348500D02*X227150D01*
X225650D02*Y342500D01*
X228950Y348500D02*Y342500D01*
Y344750D02*X229700Y345500D01*
X231200D01*
X231950Y344750D01*
Y342500D01*
X233750Y345500D02*Y343250D01*
X234500Y342500D01*
X236000D01*
X236750Y343250D01*
Y345500D02*Y343250D01*
X241250Y347750D02*X242000Y348500D01*
X244250D01*
X245000Y347750D01*
Y346250D01*
X241250Y342500D02*X245000Y346250D01*
X241250Y342500D02*X245000D01*
X246800Y347750D02*X247550Y348500D01*
X249800D01*
X250550Y347750D01*
Y346250D01*
X246800Y342500D02*X250550Y346250D01*
X246800Y342500D02*X250550D01*
X255050Y348500D02*Y342500D01*
Y348500D02*X257300Y345500D01*
X259550Y348500D01*
Y342500D01*
X263600Y345500D02*X264350Y344750D01*
X262100Y345500D02*X263600D01*
X261350Y344750D02*X262100Y345500D01*
X261350Y344750D02*Y343250D01*
X262100Y342500D01*
X264350Y345500D02*Y343250D01*
X265100Y342500D01*
X262100D02*X263600D01*
X264350Y343250D01*
X266900Y345500D02*Y343250D01*
X267650Y342500D01*
X269900Y345500D02*Y341000D01*
X269150Y340250D02*X269900Y341000D01*
X267650Y340250D02*X269150D01*
X266900Y341000D02*X267650Y340250D01*
Y342500D02*X269150D01*
X269900Y343250D01*
X274400Y347750D02*X275150Y348500D01*
X277400D01*
X278150Y347750D01*
Y346250D01*
X274400Y342500D02*X278150Y346250D01*
X274400Y342500D02*X278150D01*
X279950Y343250D02*X280700Y342500D01*
X279950Y347750D02*Y343250D01*
Y347750D02*X280700Y348500D01*
X282200D01*
X282950Y347750D01*
Y343250D01*
X282200Y342500D02*X282950Y343250D01*
X280700Y342500D02*X282200D01*
X279950Y344000D02*X282950Y347000D01*
X284750Y347300D02*X285950Y348500D01*
Y342500D01*
X284750D02*X287000D01*
X288800Y344750D02*X291800Y348500D01*
X288800Y344750D02*X292550D01*
X291800Y348500D02*Y342500D01*
X297050Y343250D02*X297800Y342500D01*
X297050Y347750D02*Y343250D01*
Y347750D02*X297800Y348500D01*
X299300D01*
X300050Y347750D01*
Y343250D01*
X299300Y342500D02*X300050Y343250D01*
X297800Y342500D02*X299300D01*
X297050Y344000D02*X300050Y347000D01*
X301850Y347750D02*X302600Y348500D01*
X304850D01*
X305600Y347750D01*
Y346250D01*
X301850Y342500D02*X305600Y346250D01*
X301850Y342500D02*X305600D01*
X307400Y346250D02*X308150D01*
X307400Y344750D02*X308150D01*
X309950Y347750D02*X310700Y348500D01*
X312950D01*
X313700Y347750D01*
Y346250D01*
X309950Y342500D02*X313700Y346250D01*
X309950Y342500D02*X313700D01*
X317750Y348500D02*X318500Y347750D01*
X316250Y348500D02*X317750D01*
X315500Y347750D02*X316250Y348500D01*
X315500Y347750D02*Y343250D01*
X316250Y342500D01*
X317750Y345800D02*X318500Y345050D01*
X315500Y345800D02*X317750D01*
X316250Y342500D02*X317750D01*
X318500Y343250D01*
Y345050D02*Y343250D01*
X320300Y346250D02*X321050D01*
X320300Y344750D02*X321050D01*
X322850Y343250D02*X323600Y342500D01*
X322850Y347750D02*Y343250D01*
Y347750D02*X323600Y348500D01*
X325100D01*
X325850Y347750D01*
Y343250D01*
X325100Y342500D02*X325850Y343250D01*
X323600Y342500D02*X325100D01*
X322850Y344000D02*X325850Y347000D01*
X327650Y344750D02*X330650Y348500D01*
X327650Y344750D02*X331400D01*
X330650Y348500D02*Y342500D01*
X335900Y347000D02*Y342500D01*
Y347000D02*X336950Y348500D01*
X338600D01*
X339650Y347000D01*
Y342500D01*
X335900Y345500D02*X339650D01*
X341450Y348500D02*Y342500D01*
Y348500D02*X343700Y345500D01*
X345950Y348500D01*
Y342500D01*
X353450Y348500D02*X354200Y347750D01*
X351200Y348500D02*X353450D01*
X350450Y347750D02*X351200Y348500D01*
X350450Y347750D02*Y343250D01*
X351200Y342500D01*
X353450D01*
X354200Y343250D01*
Y344750D02*Y343250D01*
X353450Y345500D02*X354200Y344750D01*
X351950Y345500D02*X353450D01*
X356000Y348500D02*Y342500D01*
Y348500D02*X358250Y345500D01*
X360500Y348500D01*
Y342500D01*
X362300Y348500D02*X365300D01*
X363800D02*Y342500D01*
X369800Y348500D02*Y343250D01*
X370550Y342500D01*
X372050D01*
X372800Y343250D01*
Y348500D02*Y343250D01*
X374600Y348500D02*X377600D01*
X376100D02*Y342500D01*
X380450D02*X382400D01*
X379400Y343550D02*X380450Y342500D01*
X379400Y347450D02*Y343550D01*
Y347450D02*X380450Y348500D01*
X382400D01*
X200000Y362000D02*Y357500D01*
Y362000D02*X201050Y363500D01*
X202700D01*
X203750Y362000D01*
Y357500D01*
X200000Y360500D02*X203750D01*
X205550D02*Y358250D01*
X206300Y357500D01*
X207800D01*
X208550Y358250D01*
Y360500D02*Y358250D01*
X211100Y363500D02*Y358250D01*
X211850Y357500D01*
X210350Y361250D02*X211850D01*
X213350Y363500D02*Y357500D01*
Y359750D02*X214100Y360500D01*
X215600D01*
X216350Y359750D01*
Y357500D01*
X218150Y359750D02*Y358250D01*
Y359750D02*X218900Y360500D01*
X220400D01*
X221150Y359750D01*
Y358250D01*
X220400Y357500D02*X221150Y358250D01*
X218900Y357500D02*X220400D01*
X218150Y358250D02*X218900Y357500D01*
X223700Y359750D02*Y357500D01*
Y359750D02*X224450Y360500D01*
X225950D01*
X222950D02*X223700Y359750D01*
X227750Y361250D02*X228500D01*
X227750Y359750D02*X228500D01*
X233750D02*Y357500D01*
Y359750D02*X234500Y360500D01*
X236000D01*
X233000D02*X233750Y359750D01*
X237800Y360500D02*Y358250D01*
X238550Y357500D01*
X240800Y360500D02*Y356000D01*
X240050Y355250D02*X240800Y356000D01*
X238550Y355250D02*X240050D01*
X237800Y356000D02*X238550Y355250D01*
Y357500D02*X240050D01*
X240800Y358250D01*
X244850Y360500D02*X245600Y359750D01*
X243350Y360500D02*X244850D01*
X242600Y359750D02*X243350Y360500D01*
X242600Y359750D02*Y358250D01*
X243350Y357500D01*
X245600Y360500D02*Y358250D01*
X246350Y357500D01*
X243350D02*X244850D01*
X245600Y358250D01*
X248900Y359750D02*Y357500D01*
Y359750D02*X249650Y360500D01*
X250400D01*
X251150Y359750D01*
Y357500D01*
X248150Y360500D02*X248900Y359750D01*
X200000Y378500D02*X203000D01*
X201500D02*Y372500D01*
G54D46*X204800Y377000D02*Y376850D01*
G54D45*Y374750D02*Y372500D01*
X207050Y378500D02*Y373250D01*
X207800Y372500D01*
X206300Y376250D02*X207800D01*
X209300Y378500D02*Y373250D01*
X210050Y372500D01*
X212300D02*X214550D01*
X211550Y373250D02*X212300Y372500D01*
X211550Y374750D02*Y373250D01*
Y374750D02*X212300Y375500D01*
X213800D01*
X214550Y374750D01*
X211550Y374000D02*X214550D01*
Y374750D02*Y374000D01*
X216350Y376250D02*X217100D01*
X216350Y374750D02*X217100D01*
X221600D02*X224600Y378500D01*
X221600Y374750D02*X225350D01*
X224600Y378500D02*Y372500D01*
X227150Y377300D02*X228350Y378500D01*
Y372500D01*
X227150D02*X229400D01*
X231200Y374750D02*X234200Y378500D01*
X231200Y374750D02*X234950D01*
X234200Y378500D02*Y372500D01*
X236750Y377750D02*X237500Y378500D01*
X239000D01*
X239750Y377750D01*
X239000Y372500D02*X239750Y373250D01*
X237500Y372500D02*X239000D01*
X236750Y373250D02*X237500Y372500D01*
Y375800D02*X239000D01*
X239750Y377750D02*Y376550D01*
Y375050D02*Y373250D01*
Y375050D02*X239000Y375800D01*
X239750Y376550D02*X239000Y375800D01*
X242300Y372500D02*X244550D01*
X245300Y373250D01*
X244550Y374000D02*X245300Y373250D01*
X242300Y374000D02*X244550D01*
X241550Y374750D02*X242300Y374000D01*
X241550Y374750D02*X242300Y375500D01*
X244550D01*
X245300Y374750D01*
X241550Y373250D02*X242300Y372500D01*
X247100Y378500D02*Y372500D01*
Y374750D02*X247850Y375500D01*
X249350D01*
X250100Y374750D01*
Y372500D01*
G54D46*X251900Y377000D02*Y376850D01*
G54D45*Y374750D02*Y372500D01*
X254150D02*X256400D01*
X253400Y373250D02*X254150Y372500D01*
X253400Y374750D02*Y373250D01*
Y374750D02*X254150Y375500D01*
X255650D01*
X256400Y374750D01*
X253400Y374000D02*X256400D01*
Y374750D02*Y374000D01*
X258200Y378500D02*Y373250D01*
X258950Y372500D01*
X263450Y378500D02*Y372500D01*
X262700D02*X263450Y373250D01*
X261200Y372500D02*X262700D01*
X260450Y373250D02*X261200Y372500D01*
X260450Y374750D02*Y373250D01*
Y374750D02*X261200Y375500D01*
X262700D01*
X263450Y374750D01*
X267950Y375500D02*X270950D01*
X275450Y378500D02*Y372500D01*
Y378500D02*X278450D01*
X275450Y375800D02*X277700D01*
X282500Y375500D02*X283250Y374750D01*
X281000Y375500D02*X282500D01*
X280250Y374750D02*X281000Y375500D01*
X280250Y374750D02*Y373250D01*
X281000Y372500D01*
X283250Y375500D02*Y373250D01*
X284000Y372500D01*
X281000D02*X282500D01*
X283250Y373250D01*
X285800Y378500D02*Y372500D01*
Y373250D02*X286550Y372500D01*
X288050D01*
X288800Y373250D01*
Y374750D02*Y373250D01*
X288050Y375500D02*X288800Y374750D01*
X286550Y375500D02*X288050D01*
X285800Y374750D02*X286550Y375500D01*
X291350Y374750D02*Y372500D01*
Y374750D02*X292100Y375500D01*
X293600D01*
X290600D02*X291350Y374750D01*
G54D46*X295400Y377000D02*Y376850D01*
G54D45*Y374750D02*Y372500D01*
X297650Y375500D02*X299900D01*
X296900Y374750D02*X297650Y375500D01*
X296900Y374750D02*Y373250D01*
X297650Y372500D01*
X299900D01*
X303950Y375500D02*X304700Y374750D01*
X302450Y375500D02*X303950D01*
X301700Y374750D02*X302450Y375500D01*
X301700Y374750D02*Y373250D01*
X302450Y372500D01*
X304700Y375500D02*Y373250D01*
X305450Y372500D01*
X302450D02*X303950D01*
X304700Y373250D01*
X308000Y378500D02*Y373250D01*
X308750Y372500D01*
X307250Y376250D02*X308750D01*
G54D46*X310250Y377000D02*Y376850D01*
G54D45*Y374750D02*Y372500D01*
X311750Y374750D02*Y373250D01*
Y374750D02*X312500Y375500D01*
X314000D01*
X314750Y374750D01*
Y373250D01*
X314000Y372500D02*X314750Y373250D01*
X312500Y372500D02*X314000D01*
X311750Y373250D02*X312500Y372500D01*
X317300Y374750D02*Y372500D01*
Y374750D02*X318050Y375500D01*
X318800D01*
X319550Y374750D01*
Y372500D01*
X316550Y375500D02*X317300Y374750D01*
X324800Y378500D02*Y372500D01*
X326750Y378500D02*X327800Y377450D01*
Y373550D01*
X326750Y372500D02*X327800Y373550D01*
X324050Y372500D02*X326750D01*
X324050Y378500D02*X326750D01*
X330350Y374750D02*Y372500D01*
Y374750D02*X331100Y375500D01*
X332600D01*
X329600D02*X330350Y374750D01*
X336650Y375500D02*X337400Y374750D01*
X335150Y375500D02*X336650D01*
X334400Y374750D02*X335150Y375500D01*
X334400Y374750D02*Y373250D01*
X335150Y372500D01*
X337400Y375500D02*Y373250D01*
X338150Y372500D01*
X335150D02*X336650D01*
X337400Y373250D01*
X339950Y375500D02*Y373250D01*
X340700Y372500D01*
X341450D01*
X342200Y373250D01*
Y375500D02*Y373250D01*
X342950Y372500D01*
X343700D01*
X344450Y373250D01*
Y375500D02*Y373250D01*
G54D46*X346250Y377000D02*Y376850D01*
G54D45*Y374750D02*Y372500D01*
X348500Y374750D02*Y372500D01*
Y374750D02*X349250Y375500D01*
X350000D01*
X350750Y374750D01*
Y372500D01*
X347750Y375500D02*X348500Y374750D01*
X354800Y375500D02*X355550Y374750D01*
X353300Y375500D02*X354800D01*
X352550Y374750D02*X353300Y375500D01*
X352550Y374750D02*Y373250D01*
X353300Y372500D01*
X354800D01*
X355550Y373250D01*
X352550Y371000D02*X353300Y370250D01*
X354800D01*
X355550Y371000D01*
Y375500D02*Y371000D01*
M02*
