G04 start of page 7 for group -4079 idx -4079 *
G04 Title: 4143shield, topsilk *
G04 Creator: pcb 20110918 *
G04 CreationDate: Thu 22 May 2014 02:26:04 AM GMT UTC *
G04 For: ryan *
G04 Format: Gerber/RS-274X *
G04 PCB-Dimensions: 250000 320000 *
G04 PCB-Coordinate-Origin: lower left *
%MOIN*%
%FSLAX25Y25*%
%LNTOPSILK*%
%ADD40C,0.0100*%
%ADD39C,0.0001*%
G54D39*G36*
X135304Y121841D02*X135381Y122563D01*
X136856Y123420D01*
X170000Y140000D01*
X151771Y149148D01*
X145629Y152663D01*
X139693Y156520D01*
X135375Y159379D01*
X135495Y163410D01*
X135463Y177321D01*
X138804Y179524D01*
X141989Y181716D01*
X135489Y181748D01*
Y210350D01*
X138810D01*
Y203921D01*
X145504Y208213D01*
X142146Y210416D01*
X142108Y225742D01*
X138810Y223642D01*
Y212863D01*
X135478Y212835D01*
X135472Y232643D01*
Y232838D01*
X138370Y234688D01*
X144793Y238817D01*
X149042Y241595D01*
X149085Y211202D01*
X149281Y210556D01*
X149932Y210356D01*
X166175Y210307D01*
X151814Y200959D01*
X146865Y197850D01*
X135554Y190471D01*
X135896Y190445D01*
X143806Y190363D01*
X149020Y190467D01*
X149085Y174857D01*
X144002Y171613D01*
X139010Y168239D01*
X148808Y161978D01*
Y168439D01*
X185663Y149993D01*
X205574Y139995D01*
X170114Y122216D01*
X205574Y104436D01*
X155568Y79420D01*
X148831Y76095D01*
X148808Y93874D01*
X169995Y104442D01*
X135304Y121841D01*
G37*
G36*
X144153Y168527D02*X146583Y170143D01*
Y166991D01*
X144153Y168527D01*
G37*
G36*
X158075Y185925D02*X169446Y191666D01*
X172452Y193120D01*
X203854Y193131D01*
Y185914D01*
X158075Y185925D01*
G37*
G36*
X175750Y161468D02*Y168413D01*
X186303D01*
Y177045D01*
X186308Y177304D01*
X175750Y177299D01*
Y184243D01*
X203886Y184320D01*
X203860Y177273D01*
X193606Y177256D01*
X193335Y176920D01*
X193318Y161420D01*
X175750Y161468D01*
G37*
G36*
X175707Y194780D02*X175729Y201795D01*
X175724Y202039D01*
X186303Y202028D01*
Y210632D01*
X175707Y210616D01*
X175729Y217625D01*
X175724Y217870D01*
X203854Y217853D01*
X203860Y210632D01*
X193313Y210627D01*
Y194802D01*
X175707Y194780D01*
G37*
G36*
Y219503D02*X175761Y242441D01*
X203865Y228384D01*
X203860Y219524D01*
X196861D01*
Y223013D01*
X193410Y224755D01*
X193313Y219524D01*
X186303D01*
X186308Y228298D01*
X182967Y229823D01*
X182711Y229881D01*
X182745Y219492D01*
X175707Y219503D01*
G37*
G54D40*X198000Y294000D02*Y290000D01*
X199300Y294000D02*X200000Y293300D01*
Y290700D01*
X199300Y290000D02*X200000Y290700D01*
X197500Y290000D02*X199300D01*
X197500Y294000D02*X199300D01*
X201200D02*X203200D01*
X201200D02*Y292000D01*
X201700Y292500D01*
X202700D01*
X203200Y292000D01*
Y290500D01*
X202700Y290000D02*X203200Y290500D01*
X201700Y290000D02*X202700D01*
X201200Y290500D02*X201700Y290000D01*
X185500Y294000D02*Y290000D01*
X186800Y294000D02*X187500Y293300D01*
Y290700D01*
X186800Y290000D02*X187500Y290700D01*
X185000Y290000D02*X186800D01*
X185000Y294000D02*X186800D01*
X190200D02*X190700Y293500D01*
X189200Y294000D02*X190200D01*
X188700Y293500D02*X189200Y294000D01*
X188700Y293500D02*Y290500D01*
X189200Y290000D01*
X190200Y292200D02*X190700Y291700D01*
X188700Y292200D02*X190200D01*
X189200Y290000D02*X190200D01*
X190700Y290500D01*
Y291700D02*Y290500D01*
X160000Y294000D02*X162000D01*
X160000D02*Y292000D01*
X160500Y292500D01*
X161500D01*
X162000Y292000D01*
Y290500D01*
X161500Y290000D02*X162000Y290500D01*
X160500Y290000D02*X161500D01*
X160000Y290500D02*X160500Y290000D01*
X163200Y294000D02*X164200Y290000D01*
X165200Y294000D01*
X168200D02*X170200D01*
X170700Y293500D01*
Y292500D01*
X170200Y292000D02*X170700Y292500D01*
X168700Y292000D02*X170200D01*
X168700Y294000D02*Y290000D01*
X169500Y292000D02*X170700Y290000D01*
X171900Y294000D02*X172900D01*
X172400D02*Y290000D01*
X171900D02*X172900D01*
X174100Y293500D02*Y290500D01*
Y293500D02*X174600Y294000D01*
X175600D01*
X176100Y293500D01*
Y290500D01*
X175600Y290000D02*X176100Y290500D01*
X174600Y290000D02*X175600D01*
X174100Y290500D02*X174600Y290000D01*
X132500Y294000D02*X134500D01*
X132500D02*Y292000D01*
X133000Y292500D01*
X134000D01*
X134500Y292000D01*
Y290500D01*
X134000Y290000D02*X134500Y290500D01*
X133000Y290000D02*X134000D01*
X132500Y290500D02*X133000Y290000D01*
X135700Y294000D02*X136700Y290000D01*
X137700Y294000D01*
X140700Y293000D02*Y290000D01*
Y293000D02*X141400Y294000D01*
X142500D01*
X143200Y293000D01*
Y290000D01*
X140700Y292000D02*X143200D01*
X144400Y294000D02*X146400D01*
X146900Y293500D01*
Y292500D01*
X146400Y292000D02*X146900Y292500D01*
X144900Y292000D02*X146400D01*
X144900Y294000D02*Y290000D01*
X145700Y292000D02*X146900Y290000D01*
X148600Y294000D02*Y290000D01*
X149900Y294000D02*X150600Y293300D01*
Y290700D01*
X149900Y290000D02*X150600Y290700D01*
X148100Y290000D02*X149900D01*
X148100Y294000D02*X149900D01*
X109500D02*X110000Y293500D01*
X108000Y294000D02*X109500D01*
X107500Y293500D02*X108000Y294000D01*
X107500Y293500D02*Y290500D01*
X108000Y290000D01*
X109500D01*
X110000Y290500D01*
Y291500D02*Y290500D01*
X109500Y292000D02*X110000Y291500D01*
X108500Y292000D02*X109500D01*
X111200Y294000D02*Y290000D01*
Y294000D02*X113700Y290000D01*
Y294000D02*Y290000D01*
X115400Y294000D02*Y290000D01*
X116700Y294000D02*X117400Y293300D01*
Y290700D01*
X116700Y290000D02*X117400Y290700D01*
X114900Y290000D02*X116700D01*
X114900Y294000D02*X116700D01*
X32500Y312750D02*Y303750D01*
Y307125D02*X33625Y308250D01*
X35875D01*
X37000Y307125D01*
Y303750D01*
X40825Y312750D02*Y304875D01*
X41950Y303750D01*
X39700Y309375D02*X41950D01*
X45325Y312750D02*Y304875D01*
X46450Y303750D01*
X44200Y309375D02*X46450D01*
X49825Y307125D02*Y300375D01*
X48700Y308250D02*X49825Y307125D01*
X50950Y308250D01*
X53200D01*
X54325Y307125D01*
Y304875D01*
X53200Y303750D02*X54325Y304875D01*
X50950Y303750D02*X53200D01*
X49825Y304875D02*X50950Y303750D01*
X57025Y309375D02*X58150D01*
X57025Y307125D02*X58150D01*
X60850Y304875D02*X67600Y311625D01*
X70300Y304875D02*X77050Y311625D01*
X79750Y308250D02*Y304875D01*
X80875Y303750D01*
X82000D01*
X83125Y304875D01*
Y308250D02*Y304875D01*
X84250Y303750D01*
X85375D01*
X86500Y304875D01*
Y308250D02*Y304875D01*
X89200Y308250D02*Y304875D01*
X90325Y303750D01*
X91450D01*
X92575Y304875D01*
Y308250D02*Y304875D01*
X93700Y303750D01*
X94825D01*
X95950Y304875D01*
Y308250D02*Y304875D01*
X98650Y308250D02*Y304875D01*
X99775Y303750D01*
X100900D01*
X102025Y304875D01*
Y308250D02*Y304875D01*
X103150Y303750D01*
X104275D01*
X105400Y304875D01*
Y308250D02*Y304875D01*
X108100Y303750D02*X109225D01*
X113050Y307125D02*Y303750D01*
Y307125D02*X114175Y308250D01*
X115300D01*
X116425Y307125D01*
Y303750D01*
Y307125D02*X117550Y308250D01*
X118675D01*
X119800Y307125D01*
Y303750D01*
X111925Y308250D02*X113050Y307125D01*
X125875Y308250D02*X127000Y307125D01*
X123625Y308250D02*X125875D01*
X122500Y307125D02*X123625Y308250D01*
X122500Y307125D02*Y304875D01*
X123625Y303750D01*
X127000Y308250D02*Y304875D01*
X128125Y303750D01*
X123625D02*X125875D01*
X127000Y304875D01*
X131950Y307125D02*Y303750D01*
Y307125D02*X133075Y308250D01*
X135325D01*
X130825D02*X131950Y307125D01*
X139150Y303750D02*X142525D01*
X143650Y304875D01*
X142525Y306000D02*X143650Y304875D01*
X139150Y306000D02*X142525D01*
X138025Y307125D02*X139150Y306000D01*
X138025Y307125D02*X139150Y308250D01*
X142525D01*
X143650Y307125D01*
X138025Y304875D02*X139150Y303750D01*
X146350Y308250D02*Y304875D01*
X147475Y303750D01*
X148600D01*
X149725Y304875D01*
Y308250D02*Y304875D01*
X150850Y303750D01*
X151975D01*
X153100Y304875D01*
Y308250D02*Y304875D01*
X159175Y308250D02*X160300Y307125D01*
X156925Y308250D02*X159175D01*
X155800Y307125D02*X156925Y308250D01*
X155800Y307125D02*Y304875D01*
X156925Y303750D01*
X160300Y308250D02*Y304875D01*
X161425Y303750D01*
X156925D02*X159175D01*
X160300Y304875D01*
X165250Y307125D02*Y303750D01*
Y307125D02*X166375Y308250D01*
X168625D01*
X164125D02*X165250Y307125D01*
X172450Y303750D02*X175825D01*
X176950Y304875D01*
X175825Y306000D02*X176950Y304875D01*
X172450Y306000D02*X175825D01*
X171325Y307125D02*X172450Y306000D01*
X171325Y307125D02*X172450Y308250D01*
X175825D01*
X176950Y307125D01*
X171325Y304875D02*X172450Y303750D01*
X179650D02*X180775D01*
X183475Y307125D02*Y304875D01*
Y307125D02*X184600Y308250D01*
X186850D01*
X187975Y307125D01*
Y304875D01*
X186850Y303750D02*X187975Y304875D01*
X184600Y303750D02*X186850D01*
X183475Y304875D02*X184600Y303750D01*
X191800Y307125D02*Y303750D01*
Y307125D02*X192925Y308250D01*
X195175D01*
X190675D02*X191800Y307125D01*
X201250Y308250D02*X202375Y307125D01*
X199000Y308250D02*X201250D01*
X197875Y307125D02*X199000Y308250D01*
X197875Y307125D02*Y304875D01*
X199000Y303750D01*
X201250D01*
X202375Y304875D01*
X197875Y301500D02*X199000Y300375D01*
X201250D01*
X202375Y301500D01*
Y308250D02*Y301500D01*
X82000Y270000D02*X85000D01*
X82000D02*X81000Y270700D01*
Y271800D02*Y270700D01*
Y271800D02*X82000Y272500D01*
X85000D01*
X83000D02*Y270000D01*
X81000Y275700D02*X81500Y276200D01*
X81000Y275700D02*Y274200D01*
X81500Y273700D02*X81000Y274200D01*
X81500Y273700D02*X84500D01*
X85000Y274200D01*
Y275700D02*Y274200D01*
Y275700D02*X84500Y276200D01*
X83500D02*X84500D01*
X83000Y275700D02*X83500Y276200D01*
X83000Y275700D02*Y274700D01*
X81000Y277400D02*X85000D01*
X81000D02*X85000Y279900D01*
X81000D02*X85000D01*
X81000Y281600D02*X85000D01*
X81000Y282900D02*X81700Y283600D01*
X84300D01*
X85000Y282900D02*X84300Y283600D01*
X85000Y282900D02*Y281100D01*
X81000Y282900D02*Y281100D01*
Y262000D02*Y260000D01*
X83000D01*
X82500Y260500D01*
Y261500D02*Y260500D01*
Y261500D02*X83000Y262000D01*
X84500D01*
X85000Y261500D02*X84500Y262000D01*
X85000Y261500D02*Y260500D01*
X84500Y260000D02*X85000Y260500D01*
X81000Y263200D02*X85000Y264200D01*
X81000Y265200D01*
Y249500D02*X81500Y250000D01*
X81000Y249500D02*Y248000D01*
X81500Y247500D02*X81000Y248000D01*
X81500Y247500D02*X82500D01*
X83000Y248000D01*
Y249500D02*Y248000D01*
Y249500D02*X83500Y250000D01*
X84500D01*
X85000Y249500D02*X84500Y250000D01*
X85000Y249500D02*Y248000D01*
X84500Y247500D02*X85000Y248000D01*
X82000Y251200D02*X82100D01*
X83500D02*X85000D01*
X83000Y253700D02*X83500Y254200D01*
X83000Y253700D02*Y252700D01*
X83500Y252200D02*X83000Y252700D01*
X83500Y252200D02*X84500D01*
X85000Y252700D01*
Y253700D02*Y252700D01*
Y253700D02*X84500Y254200D01*
X86000Y252200D02*X86500Y252700D01*
Y253700D02*Y252700D01*
Y253700D02*X86000Y254200D01*
X83000D02*X86000D01*
X69500Y280000D02*X72500D01*
X69500D02*X68500Y280700D01*
Y281800D02*Y280700D01*
Y281800D02*X69500Y282500D01*
X72500D01*
X70500D02*Y280000D01*
X69000Y283700D02*X72000D01*
X69000D02*X68500Y284200D01*
Y285200D02*Y284200D01*
Y285200D02*X69000Y285700D01*
X72000D01*
X72500Y285200D02*X72000Y285700D01*
X72500Y285200D02*Y284200D01*
X72000Y283700D02*X72500Y284200D01*
X69300Y286900D02*X68500Y287700D01*
X72500D01*
Y288400D02*Y286900D01*
X59500Y280000D02*X62500D01*
X59500D02*X58500Y280700D01*
Y281800D02*Y280700D01*
Y281800D02*X59500Y282500D01*
X62500D01*
X60500D02*Y280000D01*
X59000Y283700D02*X62000D01*
X59000D02*X58500Y284200D01*
Y285200D02*Y284200D01*
Y285200D02*X59000Y285700D01*
X62000D01*
X62500Y285200D02*X62000Y285700D01*
X62500Y285200D02*Y284200D01*
X62000Y283700D02*X62500Y284200D01*
X62000Y286900D02*X62500Y287400D01*
X59000Y286900D02*X62000D01*
X59000D02*X58500Y287400D01*
Y288400D02*Y287400D01*
Y288400D02*X59000Y288900D01*
X62000D01*
X62500Y288400D02*X62000Y288900D01*
X62500Y288400D02*Y287400D01*
X61500Y286900D02*X59500Y288900D01*
X49500Y280000D02*X52500D01*
X49500D02*X48500Y280700D01*
Y281800D02*Y280700D01*
Y281800D02*X49500Y282500D01*
X52500D01*
X50500D02*Y280000D01*
X48500Y284700D02*Y283700D01*
Y284200D02*X52500D01*
Y284700D02*Y283700D01*
X49000Y285900D02*X48500Y286400D01*
Y287400D02*Y286400D01*
Y287400D02*X49000Y287900D01*
X52500Y287400D02*X52000Y287900D01*
X52500Y287400D02*Y286400D01*
X52000Y285900D02*X52500Y286400D01*
X50300Y287400D02*Y286400D01*
X49000Y287900D02*X49800D01*
X50800D02*X52000D01*
X50800D02*X50300Y287400D01*
X49800Y287900D02*X50300Y287400D01*
X39500Y280000D02*X42500D01*
X39500D02*X38500Y280700D01*
Y281800D02*Y280700D01*
Y281800D02*X39500Y282500D01*
X42500D01*
X40500D02*Y280000D01*
X38500Y284700D02*Y283700D01*
Y284200D02*X42500D01*
Y284700D02*Y283700D01*
X39000Y285900D02*X38500Y286400D01*
Y287900D02*Y286400D01*
Y287900D02*X39000Y288400D01*
X40000D01*
X42500Y285900D02*X40000Y288400D01*
X42500D02*Y285900D01*
X29500Y280000D02*X32500D01*
X29500D02*X28500Y280700D01*
Y281800D02*Y280700D01*
Y281800D02*X29500Y282500D01*
X32500D01*
X30500D02*Y280000D01*
X28500Y284700D02*Y283700D01*
Y284200D02*X32500D01*
Y284700D02*Y283700D01*
X29300Y285900D02*X28500Y286700D01*
X32500D01*
Y287400D02*Y285900D01*
X19500Y280000D02*X22500D01*
X19500D02*X18500Y280700D01*
Y281800D02*Y280700D01*
Y281800D02*X19500Y282500D01*
X22500D01*
X20500D02*Y280000D01*
X18500Y284700D02*Y283700D01*
Y284200D02*X22500D01*
Y284700D02*Y283700D01*
X22000Y285900D02*X22500Y286400D01*
X19000Y285900D02*X22000D01*
X19000D02*X18500Y286400D01*
Y287400D02*Y286400D01*
Y287400D02*X19000Y287900D01*
X22000D01*
X22500Y287400D02*X22000Y287900D01*
X22500Y287400D02*Y286400D01*
X21500Y285900D02*X19500Y287900D01*
X6500Y249500D02*X7000Y250000D01*
X6500Y249500D02*Y248000D01*
X7000Y247500D02*X6500Y248000D01*
X7000Y247500D02*X8000D01*
X8500Y248000D01*
Y249500D02*Y248000D01*
Y249500D02*X9000Y250000D01*
X10000D01*
X10500Y249500D02*X10000Y250000D01*
X10500Y249500D02*Y248000D01*
X10000Y247500D02*X10500Y248000D01*
X7500Y251200D02*X7600D01*
X9000D02*X10500D01*
X8500Y253700D02*X9000Y254200D01*
X8500Y253700D02*Y252700D01*
X9000Y252200D02*X8500Y252700D01*
X9000Y252200D02*X10000D01*
X10500Y252700D01*
Y253700D02*Y252700D01*
Y253700D02*X10000Y254200D01*
X11500Y252200D02*X12000Y252700D01*
Y253700D02*Y252700D01*
Y253700D02*X11500Y254200D01*
X8500D02*X11500D01*
X6500Y262000D02*Y260000D01*
X8500D01*
X8000Y260500D01*
Y261500D02*Y260500D01*
Y261500D02*X8500Y262000D01*
X10000D01*
X10500Y261500D02*X10000Y262000D01*
X10500Y261500D02*Y260500D01*
X10000Y260000D02*X10500Y260500D01*
X6500Y263200D02*X10500Y264200D01*
X6500Y265200D01*
X7500Y270000D02*X10500D01*
X7500D02*X6500Y270700D01*
Y271800D02*Y270700D01*
Y271800D02*X7500Y272500D01*
X10500D01*
X8500D02*Y270000D01*
X6500Y275700D02*X7000Y276200D01*
X6500Y275700D02*Y274200D01*
X7000Y273700D02*X6500Y274200D01*
X7000Y273700D02*X10000D01*
X10500Y274200D01*
Y275700D02*Y274200D01*
Y275700D02*X10000Y276200D01*
X9000D02*X10000D01*
X8500Y275700D02*X9000Y276200D01*
X8500Y275700D02*Y274700D01*
X6500Y277400D02*X10500D01*
X6500D02*X10500Y279900D01*
X6500D02*X10500D01*
X6500Y281600D02*X10500D01*
X6500Y282900D02*X7200Y283600D01*
X9800D01*
X10500Y282900D02*X9800Y283600D01*
X10500Y282900D02*Y281100D01*
X6500Y282900D02*Y281100D01*
X229500Y211000D02*X224500Y215000D01*
X229500Y216000D02*Y211000D01*
X224500Y215000D02*X232500D01*
X226100Y218400D02*X224500Y220000D01*
X232500D01*
Y221400D02*Y218400D01*
X229500Y223800D02*X224500Y227800D01*
X229500Y228800D02*Y223800D01*
X224500Y227800D02*X232500D01*
X225500Y231200D02*X224500Y232200D01*
Y234200D02*Y232200D01*
Y234200D02*X225500Y235200D01*
X232500Y234200D02*X231500Y235200D01*
X232500Y234200D02*Y232200D01*
X231500Y231200D02*X232500Y232200D01*
X228100Y234200D02*Y232200D01*
X225500Y235200D02*X227100D01*
X229100D02*X231500D01*
X229100D02*X228100Y234200D01*
X227100Y235200D02*X228100Y234200D01*
X232500Y241600D02*Y238600D01*
Y241600D02*X231500Y242600D01*
X230500Y241600D02*X231500Y242600D01*
X230500Y241600D02*Y238600D01*
X229500Y237600D02*X230500Y238600D01*
X229500Y237600D02*X228500Y238600D01*
Y241600D02*Y238600D01*
Y241600D02*X229500Y242600D01*
X231500Y237600D02*X232500Y238600D01*
X224500Y245000D02*X232500D01*
X229500D02*X228500Y246000D01*
Y248000D02*Y246000D01*
Y248000D02*X229500Y249000D01*
X232500D01*
X226500Y251400D02*X226700D01*
X229500D02*X232500D01*
Y257400D02*Y254400D01*
X231500Y253400D02*X232500Y254400D01*
X229500Y253400D02*X231500D01*
X229500D02*X228500Y254400D01*
Y256400D02*Y254400D01*
Y256400D02*X229500Y257400D01*
X230500D02*Y253400D01*
X229500Y257400D02*X230500D01*
X224500Y259800D02*X231500D01*
X232500Y260800D01*
X224500Y266800D02*X232500D01*
Y265800D02*X231500Y266800D01*
X232500Y265800D02*Y263800D01*
X231500Y262800D02*X232500Y263800D01*
X229500Y262800D02*X231500D01*
X229500D02*X228500Y263800D01*
Y265800D02*Y263800D01*
Y265800D02*X229500Y266800D01*
X228500Y272800D02*X232500Y274800D01*
X228500Y276800D02*X232500Y274800D01*
Y280200D02*Y279200D01*
X231500Y282600D02*X232500Y283600D01*
X225500Y282600D02*X231500D01*
X225500D02*X224500Y283600D01*
Y285600D02*Y283600D01*
Y285600D02*X225500Y286600D01*
X231500D01*
X232500Y285600D02*X231500Y286600D01*
X232500Y285600D02*Y283600D01*
X230500Y282600D02*X226500Y286600D01*
X226100Y289000D02*X224500Y290600D01*
X232500D01*
Y292000D02*Y289000D01*
X236500Y212500D02*X242500D01*
X240250D02*X239500Y213250D01*
Y214750D02*Y213250D01*
Y214750D02*X240250Y215500D01*
X242500D01*
X236500Y218050D02*X241750D01*
X242500Y218800D01*
X238750D02*Y217300D01*
X236500Y221050D02*X241750D01*
X242500Y221800D01*
X238750D02*Y220300D01*
X240250Y224050D02*X244750D01*
X239500Y223300D02*X240250Y224050D01*
X239500Y224800D01*
Y226300D02*Y224800D01*
Y226300D02*X240250Y227050D01*
X241750D01*
X242500Y226300D02*X241750Y227050D01*
X242500Y226300D02*Y224800D01*
X241750Y224050D02*X242500Y224800D01*
X238750Y229600D02*Y228850D01*
X240250Y229600D02*Y228850D01*
X241750Y231400D02*X237250Y235900D01*
X241750Y237700D02*X237250Y242200D01*
X239500Y246250D02*X240250Y247000D01*
X239500Y246250D02*Y244750D01*
X240250Y244000D02*X239500Y244750D01*
X240250Y244000D02*X241750D01*
X242500Y244750D01*
Y246250D02*Y244750D01*
Y246250D02*X241750Y247000D01*
X244000Y244000D02*X244750Y244750D01*
Y246250D02*Y244750D01*
Y246250D02*X244000Y247000D01*
X239500D02*X244000D01*
X238000Y248800D02*X238150D01*
X240250D02*X242500D01*
X236500Y251050D02*X241750D01*
X242500Y251800D01*
X238750D02*Y250300D01*
X242500Y254050D02*Y253300D01*
X238000Y255850D02*X238150D01*
X240250D02*X242500D01*
X240250Y257350D02*X241750D01*
X240250D02*X239500Y258100D01*
Y259600D02*Y258100D01*
Y259600D02*X240250Y260350D01*
X241750D01*
X242500Y259600D02*X241750Y260350D01*
X242500Y259600D02*Y258100D01*
X241750Y257350D02*X242500Y258100D01*
X241750Y262150D02*X237250Y266650D01*
X236500Y268450D02*X242500D01*
X241750D02*X242500Y269200D01*
Y270700D02*Y269200D01*
Y270700D02*X241750Y271450D01*
X240250D02*X241750D01*
X239500Y270700D02*X240250Y271450D01*
X239500Y270700D02*Y269200D01*
X240250Y268450D02*X239500Y269200D01*
X237250Y273250D02*X241750D01*
X237250D02*X236500Y274000D01*
Y275500D02*Y274000D01*
Y275500D02*X237250Y276250D01*
X241750D01*
X242500Y275500D02*X241750Y276250D01*
X242500Y275500D02*Y274000D01*
X241750Y273250D02*X242500Y274000D01*
X236500Y281050D02*X242500D01*
Y280300D02*X241750Y281050D01*
X242500Y280300D02*Y278800D01*
X241750Y278050D02*X242500Y278800D01*
X240250Y278050D02*X241750D01*
X240250D02*X239500Y278800D01*
Y280300D02*Y278800D01*
Y280300D02*X240250Y281050D01*
Y283600D02*X242500D01*
X240250D02*X239500Y284350D01*
Y285850D02*Y284350D01*
Y282850D02*X240250Y283600D01*
X242500Y290650D02*Y288400D01*
Y290650D02*X241750Y291400D01*
X241000Y290650D02*X241750Y291400D01*
X241000Y290650D02*Y288400D01*
X240250Y287650D02*X241000Y288400D01*
X240250Y287650D02*X239500Y288400D01*
Y290650D02*Y288400D01*
Y290650D02*X240250Y291400D01*
X241750Y287650D02*X242500Y288400D01*
X238000Y293200D02*X242500D01*
X238000D02*X236500Y294250D01*
Y295900D02*Y294250D01*
Y295900D02*X238000Y296950D01*
X242500D01*
X239500D02*Y293200D01*
M02*
