G04 start of page 11 for group -3984 idx -3984 *
G04 Title: 4143shield, fab *
G04 Creator: pcb 20110918 *
G04 CreationDate: Fri 27 Jun 2014 10:28:21 PM GMT UTC *
G04 For: ryan *
G04 Format: Gerber/RS-274X *
G04 PCB-Dimensions: 223000 305000 *
G04 PCB-Coordinate-Origin: lower left *
%MOIN*%
%FSLAX25Y25*%
%LNFAB*%
%ADD102C,0.0100*%
%ADD101C,0.0075*%
%ADD100C,0.0060*%
%ADD99C,0.0080*%
G54D99*X207800Y292600D02*X211000D01*
X207800D02*Y289400D01*
X211000D01*
Y292600D02*Y289400D01*
X12400Y292600D02*X15600D01*
X12400D02*Y289400D01*
X15600D01*
Y292600D02*Y289400D01*
X13400Y317850D02*X16600D01*
X13400D02*Y314650D01*
X16600D01*
Y317850D02*Y314650D01*
G54D100*X135000Y318500D02*X136500Y315500D01*
X138000Y318500D01*
X136500Y315500D02*Y312500D01*
X139800Y315800D02*X142050D01*
X139800Y312500D02*X142800D01*
X139800Y318500D02*Y312500D01*
Y318500D02*X142800D01*
X147600D02*X148350Y317750D01*
X145350Y318500D02*X147600D01*
X144600Y317750D02*X145350Y318500D01*
X144600Y317750D02*Y316250D01*
X145350Y315500D01*
X147600D01*
X148350Y314750D01*
Y313250D01*
X147600Y312500D02*X148350Y313250D01*
X145350Y312500D02*X147600D01*
X144600Y313250D02*X145350Y312500D01*
X98000Y317750D02*X98750Y318500D01*
X101000D01*
X101750Y317750D01*
Y316250D01*
X98000Y312500D02*X101750Y316250D01*
X98000Y312500D02*X101750D01*
X45000Y313250D02*X45750Y312500D01*
X45000Y317750D02*Y313250D01*
Y317750D02*X45750Y318500D01*
X47250D01*
X48000Y317750D01*
Y313250D01*
X47250Y312500D02*X48000Y313250D01*
X45750Y312500D02*X47250D01*
X45000Y314000D02*X48000Y317000D01*
X49800Y312500D02*X50550D01*
X52350Y317300D02*X53550Y318500D01*
Y312500D01*
X52350D02*X54600D01*
X56400Y317750D02*X57150Y318500D01*
X59400D01*
X60150Y317750D01*
Y316250D01*
X56400Y312500D02*X60150Y316250D01*
X56400Y312500D02*X60150D01*
X61950Y318500D02*X64950D01*
X61950D02*Y315500D01*
X62700Y316250D01*
X64200D01*
X64950Y315500D01*
Y313250D01*
X64200Y312500D02*X64950Y313250D01*
X62700Y312500D02*X64200D01*
X61950Y313250D02*X62700Y312500D01*
X190400Y32800D02*G75*G03X192000Y32800I800J0D01*G01*
G75*G03X190400Y32800I-800J0D01*G01*
Y42800D02*G75*G03X192000Y42800I800J0D01*G01*
G75*G03X190400Y42800I-800J0D01*G01*
X180400Y32800D02*G75*G03X182000Y32800I800J0D01*G01*
G75*G03X180400Y32800I-800J0D01*G01*
Y42800D02*G75*G03X182000Y42800I800J0D01*G01*
G75*G03X180400Y42800I-800J0D01*G01*
X170400Y32800D02*G75*G03X172000Y32800I800J0D01*G01*
G75*G03X170400Y32800I-800J0D01*G01*
Y42800D02*G75*G03X172000Y42800I800J0D01*G01*
G75*G03X170400Y42800I-800J0D01*G01*
X160400Y32800D02*G75*G03X162000Y32800I800J0D01*G01*
G75*G03X160400Y32800I-800J0D01*G01*
Y42800D02*G75*G03X162000Y42800I800J0D01*G01*
G75*G03X160400Y42800I-800J0D01*G01*
X150400Y32800D02*G75*G03X152000Y32800I800J0D01*G01*
G75*G03X150400Y32800I-800J0D01*G01*
Y42800D02*G75*G03X152000Y42800I800J0D01*G01*
G75*G03X150400Y42800I-800J0D01*G01*
X140400Y32800D02*G75*G03X142000Y32800I800J0D01*G01*
G75*G03X140400Y32800I-800J0D01*G01*
Y42800D02*G75*G03X142000Y42800I800J0D01*G01*
G75*G03X140400Y42800I-800J0D01*G01*
X130400Y32800D02*G75*G03X132000Y32800I800J0D01*G01*
G75*G03X130400Y32800I-800J0D01*G01*
Y42800D02*G75*G03X132000Y42800I800J0D01*G01*
G75*G03X130400Y42800I-800J0D01*G01*
X120400Y32800D02*G75*G03X122000Y32800I800J0D01*G01*
G75*G03X120400Y32800I-800J0D01*G01*
Y42800D02*G75*G03X122000Y42800I800J0D01*G01*
G75*G03X120400Y42800I-800J0D01*G01*
X110400Y32800D02*G75*G03X112000Y32800I800J0D01*G01*
G75*G03X110400Y32800I-800J0D01*G01*
Y42800D02*G75*G03X112000Y42800I800J0D01*G01*
G75*G03X110400Y42800I-800J0D01*G01*
X100400Y32800D02*G75*G03X102000Y32800I800J0D01*G01*
G75*G03X100400Y32800I-800J0D01*G01*
Y42800D02*G75*G03X102000Y42800I800J0D01*G01*
G75*G03X100400Y42800I-800J0D01*G01*
X90400Y32800D02*G75*G03X92000Y32800I800J0D01*G01*
G75*G03X90400Y32800I-800J0D01*G01*
Y42800D02*G75*G03X92000Y42800I800J0D01*G01*
G75*G03X90400Y42800I-800J0D01*G01*
X80400Y32800D02*G75*G03X82000Y32800I800J0D01*G01*
G75*G03X80400Y32800I-800J0D01*G01*
Y42800D02*G75*G03X82000Y42800I800J0D01*G01*
G75*G03X80400Y42800I-800J0D01*G01*
X70400Y32800D02*G75*G03X72000Y32800I800J0D01*G01*
G75*G03X70400Y32800I-800J0D01*G01*
Y42800D02*G75*G03X72000Y42800I800J0D01*G01*
G75*G03X70400Y42800I-800J0D01*G01*
X60400Y32800D02*G75*G03X62000Y32800I800J0D01*G01*
G75*G03X60400Y32800I-800J0D01*G01*
Y42800D02*G75*G03X62000Y42800I800J0D01*G01*
G75*G03X60400Y42800I-800J0D01*G01*
X50400Y32800D02*G75*G03X52000Y32800I800J0D01*G01*
G75*G03X50400Y32800I-800J0D01*G01*
Y42800D02*G75*G03X52000Y42800I800J0D01*G01*
G75*G03X50400Y42800I-800J0D01*G01*
X40400Y32800D02*G75*G03X42000Y32800I800J0D01*G01*
G75*G03X40400Y32800I-800J0D01*G01*
Y42800D02*G75*G03X42000Y42800I800J0D01*G01*
G75*G03X40400Y42800I-800J0D01*G01*
X30400Y32800D02*G75*G03X32000Y32800I800J0D01*G01*
G75*G03X30400Y32800I-800J0D01*G01*
Y42800D02*G75*G03X32000Y42800I800J0D01*G01*
G75*G03X30400Y42800I-800J0D01*G01*
X190400Y12800D02*G75*G03X192000Y12800I800J0D01*G01*
G75*G03X190400Y12800I-800J0D01*G01*
Y22800D02*G75*G03X192000Y22800I800J0D01*G01*
G75*G03X190400Y22800I-800J0D01*G01*
X180400Y12800D02*G75*G03X182000Y12800I800J0D01*G01*
G75*G03X180400Y12800I-800J0D01*G01*
Y22800D02*G75*G03X182000Y22800I800J0D01*G01*
G75*G03X180400Y22800I-800J0D01*G01*
X170400Y12800D02*G75*G03X172000Y12800I800J0D01*G01*
G75*G03X170400Y12800I-800J0D01*G01*
Y22800D02*G75*G03X172000Y22800I800J0D01*G01*
G75*G03X170400Y22800I-800J0D01*G01*
X160400Y12800D02*G75*G03X162000Y12800I800J0D01*G01*
G75*G03X160400Y12800I-800J0D01*G01*
Y22800D02*G75*G03X162000Y22800I800J0D01*G01*
G75*G03X160400Y22800I-800J0D01*G01*
X150400Y12800D02*G75*G03X152000Y12800I800J0D01*G01*
G75*G03X150400Y12800I-800J0D01*G01*
Y22800D02*G75*G03X152000Y22800I800J0D01*G01*
G75*G03X150400Y22800I-800J0D01*G01*
X140400Y12800D02*G75*G03X142000Y12800I800J0D01*G01*
G75*G03X140400Y12800I-800J0D01*G01*
Y22800D02*G75*G03X142000Y22800I800J0D01*G01*
G75*G03X140400Y22800I-800J0D01*G01*
X130400Y12800D02*G75*G03X132000Y12800I800J0D01*G01*
G75*G03X130400Y12800I-800J0D01*G01*
Y22800D02*G75*G03X132000Y22800I800J0D01*G01*
G75*G03X130400Y22800I-800J0D01*G01*
X120400Y12800D02*G75*G03X122000Y12800I800J0D01*G01*
G75*G03X120400Y12800I-800J0D01*G01*
Y22800D02*G75*G03X122000Y22800I800J0D01*G01*
G75*G03X120400Y22800I-800J0D01*G01*
X110400Y12800D02*G75*G03X112000Y12800I800J0D01*G01*
G75*G03X110400Y12800I-800J0D01*G01*
Y22800D02*G75*G03X112000Y22800I800J0D01*G01*
G75*G03X110400Y22800I-800J0D01*G01*
X100400Y12800D02*G75*G03X102000Y12800I800J0D01*G01*
G75*G03X100400Y12800I-800J0D01*G01*
Y22800D02*G75*G03X102000Y22800I800J0D01*G01*
G75*G03X100400Y22800I-800J0D01*G01*
X90400Y12800D02*G75*G03X92000Y12800I800J0D01*G01*
G75*G03X90400Y12800I-800J0D01*G01*
Y22800D02*G75*G03X92000Y22800I800J0D01*G01*
G75*G03X90400Y22800I-800J0D01*G01*
X80400Y12800D02*G75*G03X82000Y12800I800J0D01*G01*
G75*G03X80400Y12800I-800J0D01*G01*
Y22800D02*G75*G03X82000Y22800I800J0D01*G01*
G75*G03X80400Y22800I-800J0D01*G01*
X70400Y12800D02*G75*G03X72000Y12800I800J0D01*G01*
G75*G03X70400Y12800I-800J0D01*G01*
Y22800D02*G75*G03X72000Y22800I800J0D01*G01*
G75*G03X70400Y22800I-800J0D01*G01*
X60400Y12800D02*G75*G03X62000Y12800I800J0D01*G01*
G75*G03X60400Y12800I-800J0D01*G01*
Y22800D02*G75*G03X62000Y22800I800J0D01*G01*
G75*G03X60400Y22800I-800J0D01*G01*
X50400Y12800D02*G75*G03X52000Y12800I800J0D01*G01*
G75*G03X50400Y12800I-800J0D01*G01*
Y22800D02*G75*G03X52000Y22800I800J0D01*G01*
G75*G03X50400Y22800I-800J0D01*G01*
X40400Y12800D02*G75*G03X42000Y12800I800J0D01*G01*
G75*G03X40400Y12800I-800J0D01*G01*
Y22800D02*G75*G03X42000Y22800I800J0D01*G01*
G75*G03X40400Y22800I-800J0D01*G01*
X30400Y12800D02*G75*G03X32000Y12800I800J0D01*G01*
G75*G03X30400Y12800I-800J0D01*G01*
Y22800D02*G75*G03X32000Y22800I800J0D01*G01*
G75*G03X30400Y22800I-800J0D01*G01*
X128200Y273000D02*G75*G03X129800Y273000I800J0D01*G01*
G75*G03X128200Y273000I-800J0D01*G01*
Y251500D02*G75*G03X129800Y251500I800J0D01*G01*
G75*G03X128200Y251500I-800J0D01*G01*
X142000Y273000D02*G75*G03X143600Y273000I800J0D01*G01*
G75*G03X142000Y273000I-800J0D01*G01*
Y251500D02*G75*G03X143600Y251500I800J0D01*G01*
G75*G03X142000Y251500I-800J0D01*G01*
X155800Y273000D02*G75*G03X157400Y273000I800J0D01*G01*
G75*G03X155800Y273000I-800J0D01*G01*
Y251500D02*G75*G03X157400Y251500I800J0D01*G01*
G75*G03X155800Y251500I-800J0D01*G01*
X169600Y273000D02*G75*G03X171200Y273000I800J0D01*G01*
G75*G03X169600Y273000I-800J0D01*G01*
Y251500D02*G75*G03X171200Y251500I800J0D01*G01*
G75*G03X169600Y251500I-800J0D01*G01*
X183400Y273000D02*G75*G03X185000Y273000I800J0D01*G01*
G75*G03X183400Y273000I-800J0D01*G01*
Y251500D02*G75*G03X185000Y251500I800J0D01*G01*
G75*G03X183400Y251500I-800J0D01*G01*
X197200Y273000D02*G75*G03X198800Y273000I800J0D01*G01*
G75*G03X197200Y273000I-800J0D01*G01*
Y251500D02*G75*G03X198800Y251500I800J0D01*G01*
G75*G03X197200Y251500I-800J0D01*G01*
X14200Y331250D02*G75*G03X15800Y331250I800J0D01*G01*
G75*G03X14200Y331250I-800J0D01*G01*
X135000Y333500D02*X136500Y330500D01*
X138000Y333500D01*
X136500Y330500D02*Y327500D01*
X139800Y330800D02*X142050D01*
X139800Y327500D02*X142800D01*
X139800Y333500D02*Y327500D01*
Y333500D02*X142800D01*
X147600D02*X148350Y332750D01*
X145350Y333500D02*X147600D01*
X144600Y332750D02*X145350Y333500D01*
X144600Y332750D02*Y331250D01*
X145350Y330500D01*
X147600D01*
X148350Y329750D01*
Y328250D01*
X147600Y327500D02*X148350Y328250D01*
X145350Y327500D02*X147600D01*
X144600Y328250D02*X145350Y327500D01*
X98000Y328250D02*X98750Y327500D01*
X98000Y329450D02*Y328250D01*
Y329450D02*X99050Y330500D01*
X99950D01*
X101000Y329450D01*
Y328250D01*
X100250Y327500D02*X101000Y328250D01*
X98750Y327500D02*X100250D01*
X98000Y331550D02*X99050Y330500D01*
X98000Y332750D02*Y331550D01*
Y332750D02*X98750Y333500D01*
X100250D01*
X101000Y332750D01*
Y331550D01*
X99950Y330500D02*X101000Y331550D01*
X102800Y328250D02*X103550Y327500D01*
X102800Y332750D02*Y328250D01*
Y332750D02*X103550Y333500D01*
X105050D01*
X105800Y332750D01*
Y328250D01*
X105050Y327500D02*X105800Y328250D01*
X103550Y327500D02*X105050D01*
X102800Y329000D02*X105800Y332000D01*
X45000Y328250D02*X45750Y327500D01*
X45000Y332750D02*Y328250D01*
Y332750D02*X45750Y333500D01*
X47250D01*
X48000Y332750D01*
Y328250D01*
X47250Y327500D02*X48000Y328250D01*
X45750Y327500D02*X47250D01*
X45000Y329000D02*X48000Y332000D01*
X49800Y327500D02*X50550D01*
X52350Y328250D02*X53100Y327500D01*
X52350Y332750D02*Y328250D01*
Y332750D02*X53100Y333500D01*
X54600D01*
X55350Y332750D01*
Y328250D01*
X54600Y327500D02*X55350Y328250D01*
X53100Y327500D02*X54600D01*
X52350Y329000D02*X55350Y332000D01*
X57150Y329750D02*X60150Y333500D01*
X57150Y329750D02*X60900D01*
X60150Y333500D02*Y327500D01*
X64950Y333500D02*X65700Y332750D01*
X63450Y333500D02*X64950D01*
X62700Y332750D02*X63450Y333500D01*
X62700Y332750D02*Y328250D01*
X63450Y327500D01*
X64950Y330800D02*X65700Y330050D01*
X62700Y330800D02*X64950D01*
X63450Y327500D02*X64950D01*
X65700Y328250D01*
Y330050D02*Y328250D01*
X60800Y254200D02*X63200Y251800D01*
X60800D02*X63200Y254200D01*
X60800Y264200D02*X63200Y261800D01*
X60800D02*X63200Y264200D01*
X60800Y274200D02*X63200Y271800D01*
X60800D02*X63200Y274200D01*
X70800Y254200D02*X73200Y251800D01*
X70800D02*X73200Y254200D01*
X70800Y264200D02*X73200Y261800D01*
X70800D02*X73200Y264200D01*
X70800Y274200D02*X73200Y271800D01*
X70800D02*X73200Y274200D01*
X80800Y254200D02*X83200Y251800D01*
X80800D02*X83200Y254200D01*
X80800Y264200D02*X83200Y261800D01*
X80800D02*X83200Y264200D01*
X80800Y274200D02*X83200Y271800D01*
X80800D02*X83200Y274200D01*
X90800Y254200D02*X93200Y251800D01*
X90800D02*X93200Y254200D01*
X90800Y264200D02*X93200Y261800D01*
X90800D02*X93200Y264200D01*
X90800Y274200D02*X93200Y271800D01*
X90800D02*X93200Y274200D01*
X100800Y254200D02*X103200Y251800D01*
X100800D02*X103200Y254200D01*
X100800Y264200D02*X103200Y261800D01*
X100800D02*X103200Y264200D01*
X100800Y274200D02*X103200Y271800D01*
X100800D02*X103200Y274200D01*
X110800Y254200D02*X113200Y251800D01*
X110800D02*X113200Y254200D01*
X110800Y264200D02*X113200Y261800D01*
X110800D02*X113200Y264200D01*
X110800Y274200D02*X113200Y271800D01*
X110800D02*X113200Y274200D01*
X13800Y347450D02*X16200Y345050D01*
X13800D02*X16200Y347450D01*
X135000Y348500D02*X136500Y345500D01*
X138000Y348500D01*
X136500Y345500D02*Y342500D01*
X139800Y345800D02*X142050D01*
X139800Y342500D02*X142800D01*
X139800Y348500D02*Y342500D01*
Y348500D02*X142800D01*
X147600D02*X148350Y347750D01*
X145350Y348500D02*X147600D01*
X144600Y347750D02*X145350Y348500D01*
X144600Y347750D02*Y346250D01*
X145350Y345500D01*
X147600D01*
X148350Y344750D01*
Y343250D01*
X147600Y342500D02*X148350Y343250D01*
X145350Y342500D02*X147600D01*
X144600Y343250D02*X145350Y342500D01*
X98000Y347300D02*X99200Y348500D01*
Y342500D01*
X98000D02*X100250D01*
X102050Y343250D02*X102800Y342500D01*
X102050Y344450D02*Y343250D01*
Y344450D02*X103100Y345500D01*
X104000D01*
X105050Y344450D01*
Y343250D01*
X104300Y342500D02*X105050Y343250D01*
X102800Y342500D02*X104300D01*
X102050Y346550D02*X103100Y345500D01*
X102050Y347750D02*Y346550D01*
Y347750D02*X102800Y348500D01*
X104300D01*
X105050Y347750D01*
Y346550D01*
X104000Y345500D02*X105050Y346550D01*
X45000Y343250D02*X45750Y342500D01*
X45000Y347750D02*Y343250D01*
Y347750D02*X45750Y348500D01*
X47250D01*
X48000Y347750D01*
Y343250D01*
X47250Y342500D02*X48000Y343250D01*
X45750Y342500D02*X47250D01*
X45000Y344000D02*X48000Y347000D01*
X49800Y342500D02*X50550D01*
X52350Y343250D02*X53100Y342500D01*
X52350Y347750D02*Y343250D01*
Y347750D02*X53100Y348500D01*
X54600D01*
X55350Y347750D01*
Y343250D01*
X54600Y342500D02*X55350Y343250D01*
X53100Y342500D02*X54600D01*
X52350Y344000D02*X55350Y347000D01*
X57150Y344750D02*X60150Y348500D01*
X57150Y344750D02*X60900D01*
X60150Y348500D02*Y342500D01*
X62700Y343250D02*X63450Y342500D01*
X62700Y347750D02*Y343250D01*
Y347750D02*X63450Y348500D01*
X64950D01*
X65700Y347750D01*
Y343250D01*
X64950Y342500D02*X65700Y343250D01*
X63450Y342500D02*X64950D01*
X62700Y344000D02*X65700Y347000D01*
X22000Y254600D02*Y251400D01*
X20400Y253000D02*X23600D01*
X22000Y264600D02*Y261400D01*
X20400Y263000D02*X23600D01*
X22000Y274600D02*Y271400D01*
X20400Y273000D02*X23600D01*
X32000Y254600D02*Y251400D01*
X30400Y253000D02*X33600D01*
X32000Y264600D02*Y261400D01*
X30400Y263000D02*X33600D01*
X32000Y274600D02*Y271400D01*
X30400Y273000D02*X33600D01*
X42000Y254600D02*Y251400D01*
X40400Y253000D02*X43600D01*
X42000Y264600D02*Y261400D01*
X40400Y263000D02*X43600D01*
X42000Y274600D02*Y271400D01*
X40400Y273000D02*X43600D01*
X52000Y254600D02*Y251400D01*
X50400Y253000D02*X53600D01*
X52000Y264600D02*Y261400D01*
X50400Y263000D02*X53600D01*
X52000Y274600D02*Y271400D01*
X50400Y273000D02*X53600D01*
X15000Y362850D02*Y359650D01*
X13400Y361250D02*X16600D01*
X135000Y363500D02*X136500Y360500D01*
X138000Y363500D01*
X136500Y360500D02*Y357500D01*
X139800Y360800D02*X142050D01*
X139800Y357500D02*X142800D01*
X139800Y363500D02*Y357500D01*
Y363500D02*X142800D01*
X147600D02*X148350Y362750D01*
X145350Y363500D02*X147600D01*
X144600Y362750D02*X145350Y363500D01*
X144600Y362750D02*Y361250D01*
X145350Y360500D01*
X147600D01*
X148350Y359750D01*
Y358250D01*
X147600Y357500D02*X148350Y358250D01*
X145350Y357500D02*X147600D01*
X144600Y358250D02*X145350Y357500D01*
X98000Y362300D02*X99200Y363500D01*
Y357500D01*
X98000D02*X100250D01*
X102050Y362750D02*X102800Y363500D01*
X105050D01*
X105800Y362750D01*
Y361250D01*
X102050Y357500D02*X105800Y361250D01*
X102050Y357500D02*X105800D01*
X45000Y358250D02*X45750Y357500D01*
X45000Y362750D02*Y358250D01*
Y362750D02*X45750Y363500D01*
X47250D01*
X48000Y362750D01*
Y358250D01*
X47250Y357500D02*X48000Y358250D01*
X45750Y357500D02*X47250D01*
X45000Y359000D02*X48000Y362000D01*
X49800Y357500D02*X50550D01*
X52350Y358250D02*X53100Y357500D01*
X52350Y362750D02*Y358250D01*
Y362750D02*X53100Y363500D01*
X54600D01*
X55350Y362750D01*
Y358250D01*
X54600Y357500D02*X55350Y358250D01*
X53100Y357500D02*X54600D01*
X52350Y359000D02*X55350Y362000D01*
X57150Y362750D02*X57900Y363500D01*
X59400D01*
X60150Y362750D01*
X59400Y357500D02*X60150Y358250D01*
X57900Y357500D02*X59400D01*
X57150Y358250D02*X57900Y357500D01*
Y360800D02*X59400D01*
X60150Y362750D02*Y361550D01*
Y360050D02*Y358250D01*
Y360050D02*X59400Y360800D01*
X60150Y361550D02*X59400Y360800D01*
X61950Y358250D02*X62700Y357500D01*
X61950Y359450D02*Y358250D01*
Y359450D02*X63000Y360500D01*
X63900D01*
X64950Y359450D01*
Y358250D01*
X64200Y357500D02*X64950Y358250D01*
X62700Y357500D02*X64200D01*
X61950Y361550D02*X63000Y360500D01*
X61950Y362750D02*Y361550D01*
Y362750D02*X62700Y363500D01*
X64200D01*
X64950Y362750D01*
Y361550D01*
X63900Y360500D02*X64950Y361550D01*
X197000Y231000D02*Y229400D01*
Y231000D02*X198387Y231800D01*
X197000Y231000D02*X195613Y231800D01*
X197000Y221000D02*Y219400D01*
Y221000D02*X198387Y221800D01*
X197000Y221000D02*X195613Y221800D01*
X197000Y211000D02*Y209400D01*
Y211000D02*X198387Y211800D01*
X197000Y211000D02*X195613Y211800D01*
X197000Y201000D02*Y199400D01*
Y201000D02*X198387Y201800D01*
X197000Y201000D02*X195613Y201800D01*
X197000Y191000D02*Y189400D01*
Y191000D02*X198387Y191800D01*
X197000Y191000D02*X195613Y191800D01*
X197000Y181000D02*Y179400D01*
Y181000D02*X198387Y181800D01*
X197000Y181000D02*X195613Y181800D01*
X197000Y171000D02*Y169400D01*
Y171000D02*X198387Y171800D01*
X197000Y171000D02*X195613Y171800D01*
X197000Y161000D02*Y159400D01*
Y161000D02*X198387Y161800D01*
X197000Y161000D02*X195613Y161800D01*
X197000Y145000D02*Y143400D01*
Y145000D02*X198387Y145800D01*
X197000Y145000D02*X195613Y145800D01*
X197000Y135000D02*Y133400D01*
Y135000D02*X198387Y135800D01*
X197000Y135000D02*X195613Y135800D01*
X197000Y125000D02*Y123400D01*
Y125000D02*X198387Y125800D01*
X197000Y125000D02*X195613Y125800D01*
X197000Y115000D02*Y113400D01*
Y115000D02*X198387Y115800D01*
X197000Y115000D02*X195613Y115800D01*
X197000Y105000D02*Y103400D01*
Y105000D02*X198387Y105800D01*
X197000Y105000D02*X195613Y105800D01*
X197000Y95000D02*Y93400D01*
Y95000D02*X198387Y95800D01*
X197000Y95000D02*X195613Y95800D01*
X197000Y85000D02*Y83400D01*
Y85000D02*X198387Y85800D01*
X197000Y85000D02*X195613Y85800D01*
X197000Y75000D02*Y73400D01*
Y75000D02*X198387Y75800D01*
X197000Y75000D02*X195613Y75800D01*
X197000Y65000D02*Y63400D01*
Y65000D02*X198387Y65800D01*
X197000Y65000D02*X195613Y65800D01*
X197000Y55000D02*Y53400D01*
Y55000D02*X198387Y55800D01*
X197000Y55000D02*X195613Y55800D01*
X27000Y91000D02*Y89400D01*
Y91000D02*X28387Y91800D01*
X27000Y91000D02*X25613Y91800D01*
X27000Y101000D02*Y99400D01*
Y101000D02*X28387Y101800D01*
X27000Y101000D02*X25613Y101800D01*
X27000Y111000D02*Y109400D01*
Y111000D02*X28387Y111800D01*
X27000Y111000D02*X25613Y111800D01*
X27000Y121000D02*Y119400D01*
Y121000D02*X28387Y121800D01*
X27000Y121000D02*X25613Y121800D01*
X27000Y131000D02*Y129400D01*
Y131000D02*X28387Y131800D01*
X27000Y131000D02*X25613Y131800D01*
X27000Y141000D02*Y139400D01*
Y141000D02*X28387Y141800D01*
X27000Y141000D02*X25613Y141800D01*
X27000Y151000D02*Y149400D01*
Y151000D02*X28387Y151800D01*
X27000Y151000D02*X25613Y151800D01*
X27000Y161000D02*Y159400D01*
Y161000D02*X28387Y161800D01*
X27000Y161000D02*X25613Y161800D01*
X27000Y181000D02*Y179400D01*
Y181000D02*X28387Y181800D01*
X27000Y181000D02*X25613Y181800D01*
X27000Y191000D02*Y189400D01*
Y191000D02*X28387Y191800D01*
X27000Y191000D02*X25613Y191800D01*
X27000Y201000D02*Y199400D01*
Y201000D02*X28387Y201800D01*
X27000Y201000D02*X25613Y201800D01*
X27000Y211000D02*Y209400D01*
Y211000D02*X28387Y211800D01*
X27000Y211000D02*X25613Y211800D01*
X27000Y221000D02*Y219400D01*
Y221000D02*X28387Y221800D01*
X27000Y221000D02*X25613Y221800D01*
X27000Y231000D02*Y229400D01*
Y231000D02*X28387Y231800D01*
X27000Y231000D02*X25613Y231800D01*
X207000Y231000D02*Y229400D01*
Y231000D02*X208387Y231800D01*
X207000Y231000D02*X205613Y231800D01*
X207000Y221000D02*Y219400D01*
Y221000D02*X208387Y221800D01*
X207000Y221000D02*X205613Y221800D01*
X207000Y211000D02*Y209400D01*
Y211000D02*X208387Y211800D01*
X207000Y211000D02*X205613Y211800D01*
X207000Y201000D02*Y199400D01*
Y201000D02*X208387Y201800D01*
X207000Y201000D02*X205613Y201800D01*
X207000Y191000D02*Y189400D01*
Y191000D02*X208387Y191800D01*
X207000Y191000D02*X205613Y191800D01*
X207000Y181000D02*Y179400D01*
Y181000D02*X208387Y181800D01*
X207000Y181000D02*X205613Y181800D01*
X207000Y171000D02*Y169400D01*
Y171000D02*X208387Y171800D01*
X207000Y171000D02*X205613Y171800D01*
X207000Y161000D02*Y159400D01*
Y161000D02*X208387Y161800D01*
X207000Y161000D02*X205613Y161800D01*
X207000Y145000D02*Y143400D01*
Y145000D02*X208387Y145800D01*
X207000Y145000D02*X205613Y145800D01*
X207000Y135000D02*Y133400D01*
Y135000D02*X208387Y135800D01*
X207000Y135000D02*X205613Y135800D01*
X207000Y125000D02*Y123400D01*
Y125000D02*X208387Y125800D01*
X207000Y125000D02*X205613Y125800D01*
X207000Y115000D02*Y113400D01*
Y115000D02*X208387Y115800D01*
X207000Y115000D02*X205613Y115800D01*
X207000Y105000D02*Y103400D01*
Y105000D02*X208387Y105800D01*
X207000Y105000D02*X205613Y105800D01*
X207000Y95000D02*Y93400D01*
Y95000D02*X208387Y95800D01*
X207000Y95000D02*X205613Y95800D01*
X207000Y85000D02*Y83400D01*
Y85000D02*X208387Y85800D01*
X207000Y85000D02*X205613Y85800D01*
X207000Y75000D02*Y73400D01*
Y75000D02*X208387Y75800D01*
X207000Y75000D02*X205613Y75800D01*
X207000Y65000D02*Y63400D01*
Y65000D02*X208387Y65800D01*
X207000Y65000D02*X205613Y65800D01*
X207000Y55000D02*Y53400D01*
Y55000D02*X208387Y55800D01*
X207000Y55000D02*X205613Y55800D01*
X17000Y91000D02*Y89400D01*
Y91000D02*X18387Y91800D01*
X17000Y91000D02*X15613Y91800D01*
X17000Y101000D02*Y99400D01*
Y101000D02*X18387Y101800D01*
X17000Y101000D02*X15613Y101800D01*
X17000Y111000D02*Y109400D01*
Y111000D02*X18387Y111800D01*
X17000Y111000D02*X15613Y111800D01*
X17000Y121000D02*Y119400D01*
Y121000D02*X18387Y121800D01*
X17000Y121000D02*X15613Y121800D01*
X17000Y131000D02*Y129400D01*
Y131000D02*X18387Y131800D01*
X17000Y131000D02*X15613Y131800D01*
X17000Y141000D02*Y139400D01*
Y141000D02*X18387Y141800D01*
X17000Y141000D02*X15613Y141800D01*
X17000Y151000D02*Y149400D01*
Y151000D02*X18387Y151800D01*
X17000Y151000D02*X15613Y151800D01*
X17000Y161000D02*Y159400D01*
Y161000D02*X18387Y161800D01*
X17000Y161000D02*X15613Y161800D01*
X17000Y181000D02*Y179400D01*
Y181000D02*X18387Y181800D01*
X17000Y181000D02*X15613Y181800D01*
X17000Y191000D02*Y189400D01*
Y191000D02*X18387Y191800D01*
X17000Y191000D02*X15613Y191800D01*
X17000Y201000D02*Y199400D01*
Y201000D02*X18387Y201800D01*
X17000Y201000D02*X15613Y201800D01*
X17000Y211000D02*Y209400D01*
Y211000D02*X18387Y211800D01*
X17000Y211000D02*X15613Y211800D01*
X17000Y221000D02*Y219400D01*
Y221000D02*X18387Y221800D01*
X17000Y221000D02*X15613Y221800D01*
X17000Y231000D02*Y229400D01*
Y231000D02*X18387Y231800D01*
X17000Y231000D02*X15613Y231800D01*
X207000Y267000D02*Y265400D01*
Y267000D02*X208387Y267800D01*
X207000Y267000D02*X205613Y267800D01*
X15000Y376250D02*Y374650D01*
Y376250D02*X16387Y377050D01*
X15000Y376250D02*X13613Y377050D01*
X135000Y378500D02*X136500Y375500D01*
X138000Y378500D01*
X136500Y375500D02*Y372500D01*
X139800Y375800D02*X142050D01*
X139800Y372500D02*X142800D01*
X139800Y378500D02*Y372500D01*
Y378500D02*X142800D01*
X147600D02*X148350Y377750D01*
X145350Y378500D02*X147600D01*
X144600Y377750D02*X145350Y378500D01*
X144600Y377750D02*Y376250D01*
X145350Y375500D01*
X147600D01*
X148350Y374750D01*
Y373250D01*
X147600Y372500D02*X148350Y373250D01*
X145350Y372500D02*X147600D01*
X144600Y373250D02*X145350Y372500D01*
X100250Y378500D02*X101000Y377750D01*
X98750Y378500D02*X100250D01*
X98000Y377750D02*X98750Y378500D01*
X98000Y377750D02*Y373250D01*
X98750Y372500D01*
X100250Y375800D02*X101000Y375050D01*
X98000Y375800D02*X100250D01*
X98750Y372500D02*X100250D01*
X101000Y373250D01*
Y375050D02*Y373250D01*
X102800Y378500D02*X105800D01*
X102800D02*Y375500D01*
X103550Y376250D01*
X105050D01*
X105800Y375500D01*
Y373250D01*
X105050Y372500D02*X105800Y373250D01*
X103550Y372500D02*X105050D01*
X102800Y373250D02*X103550Y372500D01*
X45000Y373250D02*X45750Y372500D01*
X45000Y377750D02*Y373250D01*
Y377750D02*X45750Y378500D01*
X47250D01*
X48000Y377750D01*
Y373250D01*
X47250Y372500D02*X48000Y373250D01*
X45750Y372500D02*X47250D01*
X45000Y374000D02*X48000Y377000D01*
X49800Y372500D02*X50550D01*
X52350Y373250D02*X53100Y372500D01*
X52350Y377750D02*Y373250D01*
Y377750D02*X53100Y378500D01*
X54600D01*
X55350Y377750D01*
Y373250D01*
X54600Y372500D02*X55350Y373250D01*
X53100Y372500D02*X54600D01*
X52350Y374000D02*X55350Y377000D01*
X57150Y377750D02*X57900Y378500D01*
X59400D01*
X60150Y377750D01*
X59400Y372500D02*X60150Y373250D01*
X57900Y372500D02*X59400D01*
X57150Y373250D02*X57900Y372500D01*
Y375800D02*X59400D01*
X60150Y377750D02*Y376550D01*
Y375050D02*Y373250D01*
Y375050D02*X59400Y375800D01*
X60150Y376550D02*X59400Y375800D01*
X61950Y378500D02*X64950D01*
X61950D02*Y375500D01*
X62700Y376250D01*
X64200D01*
X64950Y375500D01*
Y373250D01*
X64200Y372500D02*X64950Y373250D01*
X62700Y372500D02*X64200D01*
X61950Y373250D02*X62700Y372500D01*
X3000Y393500D02*X3750Y392750D01*
X750Y393500D02*X3000D01*
X0Y392750D02*X750Y393500D01*
X0Y392750D02*Y391250D01*
X750Y390500D01*
X3000D01*
X3750Y389750D01*
Y388250D01*
X3000Y387500D02*X3750Y388250D01*
X750Y387500D02*X3000D01*
X0Y388250D02*X750Y387500D01*
X5550Y390500D02*Y388250D01*
X6300Y387500D01*
X8550Y390500D02*Y386000D01*
X7800Y385250D02*X8550Y386000D01*
X6300Y385250D02*X7800D01*
X5550Y386000D02*X6300Y385250D01*
Y387500D02*X7800D01*
X8550Y388250D01*
X11100Y389750D02*Y387500D01*
Y389750D02*X11850Y390500D01*
X12600D01*
X13350Y389750D01*
Y387500D01*
Y389750D02*X14100Y390500D01*
X14850D01*
X15600Y389750D01*
Y387500D01*
X10350Y390500D02*X11100Y389750D01*
X17400Y393500D02*Y387500D01*
Y388250D02*X18150Y387500D01*
X19650D01*
X20400Y388250D01*
Y389750D02*Y388250D01*
X19650Y390500D02*X20400Y389750D01*
X18150Y390500D02*X19650D01*
X17400Y389750D02*X18150Y390500D01*
X22200Y389750D02*Y388250D01*
Y389750D02*X22950Y390500D01*
X24450D01*
X25200Y389750D01*
Y388250D01*
X24450Y387500D02*X25200Y388250D01*
X22950Y387500D02*X24450D01*
X22200Y388250D02*X22950Y387500D01*
X27000Y393500D02*Y388250D01*
X27750Y387500D01*
X0Y384250D02*X29250D01*
X41750Y393500D02*Y387500D01*
X43700Y393500D02*X44750Y392450D01*
Y388550D01*
X43700Y387500D02*X44750Y388550D01*
X41000Y387500D02*X43700D01*
X41000Y393500D02*X43700D01*
G54D101*X46550Y392000D02*Y391850D01*
G54D100*Y389750D02*Y387500D01*
X50300Y390500D02*X51050Y389750D01*
X48800Y390500D02*X50300D01*
X48050Y389750D02*X48800Y390500D01*
X48050Y389750D02*Y388250D01*
X48800Y387500D01*
X51050Y390500D02*Y388250D01*
X51800Y387500D01*
X48800D02*X50300D01*
X51050Y388250D01*
X54350Y389750D02*Y387500D01*
Y389750D02*X55100Y390500D01*
X55850D01*
X56600Y389750D01*
Y387500D01*
Y389750D02*X57350Y390500D01*
X58100D01*
X58850Y389750D01*
Y387500D01*
X53600Y390500D02*X54350Y389750D01*
X60650Y387500D02*X61400D01*
X65900Y388250D02*X66650Y387500D01*
X65900Y392750D02*X66650Y393500D01*
X65900Y392750D02*Y388250D01*
X68450Y393500D02*X69950D01*
X69200D02*Y387500D01*
X68450D02*X69950D01*
X72500Y389750D02*Y387500D01*
Y389750D02*X73250Y390500D01*
X74000D01*
X74750Y389750D01*
Y387500D01*
X71750Y390500D02*X72500Y389750D01*
X77300Y390500D02*X79550D01*
X76550Y389750D02*X77300Y390500D01*
X76550Y389750D02*Y388250D01*
X77300Y387500D01*
X79550D01*
X81350Y393500D02*Y387500D01*
Y389750D02*X82100Y390500D01*
X83600D01*
X84350Y389750D01*
Y387500D01*
X86150Y393500D02*X86900Y392750D01*
Y388250D01*
X86150Y387500D02*X86900Y388250D01*
X41000Y384250D02*X88700D01*
X96050Y387500D02*X98000D01*
X95000Y388550D02*X96050Y387500D01*
X95000Y392450D02*Y388550D01*
Y392450D02*X96050Y393500D01*
X98000D01*
X99800Y389750D02*Y388250D01*
Y389750D02*X100550Y390500D01*
X102050D01*
X102800Y389750D01*
Y388250D01*
X102050Y387500D02*X102800Y388250D01*
X100550Y387500D02*X102050D01*
X99800Y388250D02*X100550Y387500D01*
X104600Y390500D02*Y388250D01*
X105350Y387500D01*
X106850D01*
X107600Y388250D01*
Y390500D02*Y388250D01*
X110150Y389750D02*Y387500D01*
Y389750D02*X110900Y390500D01*
X111650D01*
X112400Y389750D01*
Y387500D01*
X109400Y390500D02*X110150Y389750D01*
X114950Y393500D02*Y388250D01*
X115700Y387500D01*
X114200Y391250D02*X115700D01*
X95000Y384250D02*X117200D01*
X130750Y393500D02*Y387500D01*
X130000Y393500D02*X133000D01*
X133750Y392750D01*
Y391250D01*
X133000Y390500D02*X133750Y391250D01*
X130750Y390500D02*X133000D01*
X135550Y393500D02*Y388250D01*
X136300Y387500D01*
X140050Y390500D02*X140800Y389750D01*
X138550Y390500D02*X140050D01*
X137800Y389750D02*X138550Y390500D01*
X137800Y389750D02*Y388250D01*
X138550Y387500D01*
X140800Y390500D02*Y388250D01*
X141550Y387500D01*
X138550D02*X140050D01*
X140800Y388250D01*
X144100Y393500D02*Y388250D01*
X144850Y387500D01*
X143350Y391250D02*X144850D01*
X147100Y387500D02*X149350D01*
X146350Y388250D02*X147100Y387500D01*
X146350Y389750D02*Y388250D01*
Y389750D02*X147100Y390500D01*
X148600D01*
X149350Y389750D01*
X146350Y389000D02*X149350D01*
Y389750D02*Y389000D01*
X154150Y393500D02*Y387500D01*
X153400D02*X154150Y388250D01*
X151900Y387500D02*X153400D01*
X151150Y388250D02*X151900Y387500D01*
X151150Y389750D02*Y388250D01*
Y389750D02*X151900Y390500D01*
X153400D01*
X154150Y389750D01*
X157450Y390500D02*Y389750D01*
Y388250D02*Y387500D01*
X155950Y392750D02*Y392000D01*
Y392750D02*X156700Y393500D01*
X158200D01*
X158950Y392750D01*
Y392000D01*
X157450Y390500D02*X158950Y392000D01*
X130000Y384250D02*X160750D01*
X0Y408500D02*X3000D01*
X1500D02*Y402500D01*
X4800Y408500D02*Y402500D01*
Y404750D02*X5550Y405500D01*
X7050D01*
X7800Y404750D01*
Y402500D01*
X10350D02*X12600D01*
X9600Y403250D02*X10350Y402500D01*
X9600Y404750D02*Y403250D01*
Y404750D02*X10350Y405500D01*
X11850D01*
X12600Y404750D01*
X9600Y404000D02*X12600D01*
Y404750D02*Y404000D01*
X15150Y404750D02*Y402500D01*
Y404750D02*X15900Y405500D01*
X17400D01*
X14400D02*X15150Y404750D01*
X19950Y402500D02*X22200D01*
X19200Y403250D02*X19950Y402500D01*
X19200Y404750D02*Y403250D01*
Y404750D02*X19950Y405500D01*
X21450D01*
X22200Y404750D01*
X19200Y404000D02*X22200D01*
Y404750D02*Y404000D01*
X28950Y405500D02*X29700Y404750D01*
X27450Y405500D02*X28950D01*
X26700Y404750D02*X27450Y405500D01*
X26700Y404750D02*Y403250D01*
X27450Y402500D01*
X29700Y405500D02*Y403250D01*
X30450Y402500D01*
X27450D02*X28950D01*
X29700Y403250D01*
X33000Y404750D02*Y402500D01*
Y404750D02*X33750Y405500D01*
X35250D01*
X32250D02*X33000Y404750D01*
X37800Y402500D02*X40050D01*
X37050Y403250D02*X37800Y402500D01*
X37050Y404750D02*Y403250D01*
Y404750D02*X37800Y405500D01*
X39300D01*
X40050Y404750D01*
X37050Y404000D02*X40050D01*
Y404750D02*Y404000D01*
X44550Y408500D02*X47550D01*
X44550D02*Y405500D01*
X45300Y406250D01*
X46800D01*
X47550Y405500D01*
Y403250D01*
X46800Y402500D02*X47550Y403250D01*
X45300Y402500D02*X46800D01*
X44550Y403250D02*X45300Y402500D01*
X55050Y408500D02*Y402500D01*
X54300D02*X55050Y403250D01*
X52800Y402500D02*X54300D01*
X52050Y403250D02*X52800Y402500D01*
X52050Y404750D02*Y403250D01*
Y404750D02*X52800Y405500D01*
X54300D01*
X55050Y404750D01*
G54D101*X56850Y407000D02*Y406850D01*
G54D100*Y404750D02*Y402500D01*
X59100Y407750D02*Y402500D01*
Y407750D02*X59850Y408500D01*
X60600D01*
X58350Y405500D02*X59850D01*
X62850Y407750D02*Y402500D01*
Y407750D02*X63600Y408500D01*
X64350D01*
X62100Y405500D02*X63600D01*
X66600Y402500D02*X68850D01*
X65850Y403250D02*X66600Y402500D01*
X65850Y404750D02*Y403250D01*
Y404750D02*X66600Y405500D01*
X68100D01*
X68850Y404750D01*
X65850Y404000D02*X68850D01*
Y404750D02*Y404000D01*
X71400Y404750D02*Y402500D01*
Y404750D02*X72150Y405500D01*
X73650D01*
X70650D02*X71400Y404750D01*
X76200Y402500D02*X78450D01*
X75450Y403250D02*X76200Y402500D01*
X75450Y404750D02*Y403250D01*
Y404750D02*X76200Y405500D01*
X77700D01*
X78450Y404750D01*
X75450Y404000D02*X78450D01*
Y404750D02*Y404000D01*
X81000Y404750D02*Y402500D01*
Y404750D02*X81750Y405500D01*
X82500D01*
X83250Y404750D01*
Y402500D01*
X80250Y405500D02*X81000Y404750D01*
X85800Y408500D02*Y403250D01*
X86550Y402500D01*
X85050Y406250D02*X86550D01*
X93750Y408500D02*Y402500D01*
X93000D02*X93750Y403250D01*
X91500Y402500D02*X93000D01*
X90750Y403250D02*X91500Y402500D01*
X90750Y404750D02*Y403250D01*
Y404750D02*X91500Y405500D01*
X93000D01*
X93750Y404750D01*
X96300D02*Y402500D01*
Y404750D02*X97050Y405500D01*
X98550D01*
X95550D02*X96300Y404750D01*
G54D101*X100350Y407000D02*Y406850D01*
G54D100*Y404750D02*Y402500D01*
X101850Y408500D02*Y403250D01*
X102600Y402500D01*
X104100Y408500D02*Y403250D01*
X104850Y402500D01*
X109800D02*X112050D01*
X112800Y403250D01*
X112050Y404000D02*X112800Y403250D01*
X109800Y404000D02*X112050D01*
X109050Y404750D02*X109800Y404000D01*
X109050Y404750D02*X109800Y405500D01*
X112050D01*
X112800Y404750D01*
X109050Y403250D02*X109800Y402500D01*
G54D101*X114600Y407000D02*Y406850D01*
G54D100*Y404750D02*Y402500D01*
X116100Y405500D02*X119100D01*
X116100Y402500D02*X119100Y405500D01*
X116100Y402500D02*X119100D01*
X121650D02*X123900D01*
X120900Y403250D02*X121650Y402500D01*
X120900Y404750D02*Y403250D01*
Y404750D02*X121650Y405500D01*
X123150D01*
X123900Y404750D01*
X120900Y404000D02*X123900D01*
Y404750D02*Y404000D01*
X126450Y402500D02*X128700D01*
X129450Y403250D01*
X128700Y404000D02*X129450Y403250D01*
X126450Y404000D02*X128700D01*
X125700Y404750D02*X126450Y404000D01*
X125700Y404750D02*X126450Y405500D01*
X128700D01*
X129450Y404750D01*
X125700Y403250D02*X126450Y402500D01*
X133950Y405500D02*Y403250D01*
X134700Y402500D01*
X136200D01*
X136950Y403250D01*
Y405500D02*Y403250D01*
X139500Y402500D02*X141750D01*
X142500Y403250D01*
X141750Y404000D02*X142500Y403250D01*
X139500Y404000D02*X141750D01*
X138750Y404750D02*X139500Y404000D01*
X138750Y404750D02*X139500Y405500D01*
X141750D01*
X142500Y404750D01*
X138750Y403250D02*X139500Y402500D01*
X145050D02*X147300D01*
X144300Y403250D02*X145050Y402500D01*
X144300Y404750D02*Y403250D01*
Y404750D02*X145050Y405500D01*
X146550D01*
X147300Y404750D01*
X144300Y404000D02*X147300D01*
Y404750D02*Y404000D01*
X152100Y408500D02*Y402500D01*
X151350D02*X152100Y403250D01*
X149850Y402500D02*X151350D01*
X149100Y403250D02*X149850Y402500D01*
X149100Y404750D02*Y403250D01*
Y404750D02*X149850Y405500D01*
X151350D01*
X152100Y404750D01*
G54D101*X156600Y407000D02*Y406850D01*
G54D100*Y404750D02*Y402500D01*
X158850Y404750D02*Y402500D01*
Y404750D02*X159600Y405500D01*
X160350D01*
X161100Y404750D01*
Y402500D01*
X158100Y405500D02*X158850Y404750D01*
X166350Y408500D02*Y403250D01*
X167100Y402500D01*
X165600Y406250D02*X167100D01*
X168600Y408500D02*Y402500D01*
Y404750D02*X169350Y405500D01*
X170850D01*
X171600Y404750D01*
Y402500D01*
G54D101*X173400Y407000D02*Y406850D01*
G54D100*Y404750D02*Y402500D01*
X175650D02*X177900D01*
X178650Y403250D01*
X177900Y404000D02*X178650Y403250D01*
X175650Y404000D02*X177900D01*
X174900Y404750D02*X175650Y404000D01*
X174900Y404750D02*X175650Y405500D01*
X177900D01*
X178650Y404750D01*
X174900Y403250D02*X175650Y402500D01*
X183150Y408500D02*Y403250D01*
X183900Y402500D01*
X187650Y405500D02*X188400Y404750D01*
X186150Y405500D02*X187650D01*
X185400Y404750D02*X186150Y405500D01*
X185400Y404750D02*Y403250D01*
X186150Y402500D01*
X188400Y405500D02*Y403250D01*
X189150Y402500D01*
X186150D02*X187650D01*
X188400Y403250D01*
X190950Y405500D02*Y403250D01*
X191700Y402500D01*
X193950Y405500D02*Y401000D01*
X193200Y400250D02*X193950Y401000D01*
X191700Y400250D02*X193200D01*
X190950Y401000D02*X191700Y400250D01*
Y402500D02*X193200D01*
X193950Y403250D01*
X195750Y404750D02*Y403250D01*
Y404750D02*X196500Y405500D01*
X198000D01*
X198750Y404750D01*
Y403250D01*
X198000Y402500D02*X198750Y403250D01*
X196500Y402500D02*X198000D01*
X195750Y403250D02*X196500Y402500D01*
X200550Y405500D02*Y403250D01*
X201300Y402500D01*
X202800D01*
X203550Y403250D01*
Y405500D02*Y403250D01*
X206100Y408500D02*Y403250D01*
X206850Y402500D01*
X205350Y406250D02*X206850D01*
X208350Y401000D02*X209850Y402500D01*
X214350Y407300D02*X215550Y408500D01*
Y402500D01*
X214350D02*X216600D01*
X219150D02*X222150Y408500D01*
X218400D02*X222150D01*
X224700Y402500D02*X227700Y408500D01*
X223950D02*X227700D01*
X232200D02*Y402500D01*
Y404750D02*X232950Y405500D01*
X234450D01*
X235200Y404750D01*
Y402500D01*
X237000Y404750D02*Y403250D01*
Y404750D02*X237750Y405500D01*
X239250D01*
X240000Y404750D01*
Y403250D01*
X239250Y402500D02*X240000Y403250D01*
X237750Y402500D02*X239250D01*
X237000Y403250D02*X237750Y402500D01*
X241800Y408500D02*Y403250D01*
X242550Y402500D01*
X244800D02*X247050D01*
X244050Y403250D02*X244800Y402500D01*
X244050Y404750D02*Y403250D01*
Y404750D02*X244800Y405500D01*
X246300D01*
X247050Y404750D01*
X244050Y404000D02*X247050D01*
Y404750D02*Y404000D01*
X249600Y402500D02*X251850D01*
X252600Y403250D01*
X251850Y404000D02*X252600Y403250D01*
X249600Y404000D02*X251850D01*
X248850Y404750D02*X249600Y404000D01*
X248850Y404750D02*X249600Y405500D01*
X251850D01*
X252600Y404750D01*
X248850Y403250D02*X249600Y402500D01*
X257850Y408500D02*Y403250D01*
X258600Y402500D01*
X257100Y406250D02*X258600D01*
X260100Y404750D02*Y403250D01*
Y404750D02*X260850Y405500D01*
X262350D01*
X263100Y404750D01*
Y403250D01*
X262350Y402500D02*X263100Y403250D01*
X260850Y402500D02*X262350D01*
X260100Y403250D02*X260850Y402500D01*
X265650Y408500D02*Y403250D01*
X266400Y402500D01*
X264900Y406250D02*X266400D01*
X270150Y405500D02*X270900Y404750D01*
X268650Y405500D02*X270150D01*
X267900Y404750D02*X268650Y405500D01*
X267900Y404750D02*Y403250D01*
X268650Y402500D01*
X270900Y405500D02*Y403250D01*
X271650Y402500D01*
X268650D02*X270150D01*
X270900Y403250D01*
X273450Y408500D02*Y403250D01*
X274200Y402500D01*
G54D102*X0Y305000D02*X223000D01*
X0D02*Y0D01*
X223000Y305000D02*Y0D01*
X0D02*X223000D01*
G54D100*X200000Y318500D02*Y312500D01*
Y318500D02*X202250Y315500D01*
X204500Y318500D01*
Y312500D01*
X208550Y315500D02*X209300Y314750D01*
X207050Y315500D02*X208550D01*
X206300Y314750D02*X207050Y315500D01*
X206300Y314750D02*Y313250D01*
X207050Y312500D01*
X209300Y315500D02*Y313250D01*
X210050Y312500D01*
X207050D02*X208550D01*
X209300Y313250D01*
X211850Y315500D02*X214850Y312500D01*
X211850D02*X214850Y315500D01*
G54D101*X216650Y317000D02*Y316850D01*
G54D100*Y314750D02*Y312500D01*
X218900Y314750D02*Y312500D01*
Y314750D02*X219650Y315500D01*
X220400D01*
X221150Y314750D01*
Y312500D01*
Y314750D02*X221900Y315500D01*
X222650D01*
X223400Y314750D01*
Y312500D01*
X218150Y315500D02*X218900Y314750D01*
X225200Y315500D02*Y313250D01*
X225950Y312500D01*
X227450D01*
X228200Y313250D01*
Y315500D02*Y313250D01*
X230750Y314750D02*Y312500D01*
Y314750D02*X231500Y315500D01*
X232250D01*
X233000Y314750D01*
Y312500D01*
Y314750D02*X233750Y315500D01*
X234500D01*
X235250Y314750D01*
Y312500D01*
X230000Y315500D02*X230750Y314750D01*
X240500Y318500D02*Y312500D01*
X242450Y318500D02*X243500Y317450D01*
Y313550D01*
X242450Y312500D02*X243500Y313550D01*
X239750Y312500D02*X242450D01*
X239750Y318500D02*X242450D01*
G54D101*X245300Y317000D02*Y316850D01*
G54D100*Y314750D02*Y312500D01*
X247550Y314750D02*Y312500D01*
Y314750D02*X248300Y315500D01*
X249050D01*
X249800Y314750D01*
Y312500D01*
Y314750D02*X250550Y315500D01*
X251300D01*
X252050Y314750D01*
Y312500D01*
X246800Y315500D02*X247550Y314750D01*
X254600Y312500D02*X256850D01*
X253850Y313250D02*X254600Y312500D01*
X253850Y314750D02*Y313250D01*
Y314750D02*X254600Y315500D01*
X256100D01*
X256850Y314750D01*
X253850Y314000D02*X256850D01*
Y314750D02*Y314000D01*
X259400Y314750D02*Y312500D01*
Y314750D02*X260150Y315500D01*
X260900D01*
X261650Y314750D01*
Y312500D01*
X258650Y315500D02*X259400Y314750D01*
X264200Y312500D02*X266450D01*
X267200Y313250D01*
X266450Y314000D02*X267200Y313250D01*
X264200Y314000D02*X266450D01*
X263450Y314750D02*X264200Y314000D01*
X263450Y314750D02*X264200Y315500D01*
X266450D01*
X267200Y314750D01*
X263450Y313250D02*X264200Y312500D01*
G54D101*X269000Y317000D02*Y316850D01*
G54D100*Y314750D02*Y312500D01*
X270500Y314750D02*Y313250D01*
Y314750D02*X271250Y315500D01*
X272750D01*
X273500Y314750D01*
Y313250D01*
X272750Y312500D02*X273500Y313250D01*
X271250Y312500D02*X272750D01*
X270500Y313250D02*X271250Y312500D01*
X276050Y314750D02*Y312500D01*
Y314750D02*X276800Y315500D01*
X277550D01*
X278300Y314750D01*
Y312500D01*
X275300Y315500D02*X276050Y314750D01*
X280850Y312500D02*X283100D01*
X283850Y313250D01*
X283100Y314000D02*X283850Y313250D01*
X280850Y314000D02*X283100D01*
X280100Y314750D02*X280850Y314000D01*
X280100Y314750D02*X280850Y315500D01*
X283100D01*
X283850Y314750D01*
X280100Y313250D02*X280850Y312500D01*
X285650Y316250D02*X286400D01*
X285650Y314750D02*X286400D01*
X290900Y317750D02*X291650Y318500D01*
X293900D01*
X294650Y317750D01*
Y316250D01*
X290900Y312500D02*X294650Y316250D01*
X290900Y312500D02*X294650D01*
X296450Y317750D02*X297200Y318500D01*
X299450D01*
X300200Y317750D01*
Y316250D01*
X296450Y312500D02*X300200Y316250D01*
X296450Y312500D02*X300200D01*
X302000Y317750D02*X302750Y318500D01*
X304250D01*
X305000Y317750D01*
X304250Y312500D02*X305000Y313250D01*
X302750Y312500D02*X304250D01*
X302000Y313250D02*X302750Y312500D01*
Y315800D02*X304250D01*
X305000Y317750D02*Y316550D01*
Y315050D02*Y313250D01*
Y315050D02*X304250Y315800D01*
X305000Y316550D02*X304250Y315800D01*
X306800Y313250D02*X307550Y312500D01*
X306800Y317750D02*Y313250D01*
Y317750D02*X307550Y318500D01*
X309050D01*
X309800Y317750D01*
Y313250D01*
X309050Y312500D02*X309800Y313250D01*
X307550Y312500D02*X309050D01*
X306800Y314000D02*X309800Y317000D01*
X311600Y312500D02*X312350D01*
X314150Y313250D02*X314900Y312500D01*
X314150Y317750D02*Y313250D01*
Y317750D02*X314900Y318500D01*
X316400D01*
X317150Y317750D01*
Y313250D01*
X316400Y312500D02*X317150Y313250D01*
X314900Y312500D02*X316400D01*
X314150Y314000D02*X317150Y317000D01*
X318950Y313250D02*X319700Y312500D01*
X318950Y317750D02*Y313250D01*
Y317750D02*X319700Y318500D01*
X321200D01*
X321950Y317750D01*
Y313250D01*
X321200Y312500D02*X321950Y313250D01*
X319700Y312500D02*X321200D01*
X318950Y314000D02*X321950Y317000D01*
X323750Y313250D02*X324500Y312500D01*
X323750Y317750D02*Y313250D01*
Y317750D02*X324500Y318500D01*
X326000D01*
X326750Y317750D01*
Y313250D01*
X326000Y312500D02*X326750Y313250D01*
X324500Y312500D02*X326000D01*
X323750Y314000D02*X326750Y317000D01*
X328550Y313250D02*X329300Y312500D01*
X328550Y317750D02*Y313250D01*
Y317750D02*X329300Y318500D01*
X330800D01*
X331550Y317750D01*
Y313250D01*
X330800Y312500D02*X331550Y313250D01*
X329300Y312500D02*X330800D01*
X328550Y314000D02*X331550Y317000D01*
X333350Y313250D02*X334100Y312500D01*
X333350Y317750D02*Y313250D01*
Y317750D02*X334100Y318500D01*
X335600D01*
X336350Y317750D01*
Y313250D01*
X335600Y312500D02*X336350Y313250D01*
X334100Y312500D02*X335600D01*
X333350Y314000D02*X336350Y317000D01*
X338150Y313250D02*X338900Y312500D01*
X338150Y317750D02*Y313250D01*
Y317750D02*X338900Y318500D01*
X340400D01*
X341150Y317750D01*
Y313250D01*
X340400Y312500D02*X341150Y313250D01*
X338900Y312500D02*X340400D01*
X338150Y314000D02*X341150Y317000D01*
X346400Y314750D02*Y312500D01*
Y314750D02*X347150Y315500D01*
X347900D01*
X348650Y314750D01*
Y312500D01*
Y314750D02*X349400Y315500D01*
X350150D01*
X350900Y314750D01*
Y312500D01*
X345650Y315500D02*X346400Y314750D01*
G54D101*X352700Y317000D02*Y316850D01*
G54D100*Y314750D02*Y312500D01*
X354200Y318500D02*Y313250D01*
X354950Y312500D01*
X357200D02*X359450D01*
X360200Y313250D01*
X359450Y314000D02*X360200Y313250D01*
X357200Y314000D02*X359450D01*
X356450Y314750D02*X357200Y314000D01*
X356450Y314750D02*X357200Y315500D01*
X359450D01*
X360200Y314750D01*
X356450Y313250D02*X357200Y312500D01*
X364700Y315500D02*Y313250D01*
X365450Y312500D01*
X366200D01*
X366950Y313250D01*
Y315500D02*Y313250D01*
X367700Y312500D01*
X368450D01*
X369200Y313250D01*
Y315500D02*Y313250D01*
G54D101*X371000Y317000D02*Y316850D01*
G54D100*Y314750D02*Y312500D01*
X375500Y318500D02*Y312500D01*
X374750D02*X375500Y313250D01*
X373250Y312500D02*X374750D01*
X372500Y313250D02*X373250Y312500D01*
X372500Y314750D02*Y313250D01*
Y314750D02*X373250Y315500D01*
X374750D01*
X375500Y314750D01*
X378050Y312500D02*X380300D01*
X377300Y313250D02*X378050Y312500D01*
X377300Y314750D02*Y313250D01*
Y314750D02*X378050Y315500D01*
X379550D01*
X380300Y314750D01*
X377300Y314000D02*X380300D01*
Y314750D02*Y314000D01*
X382100Y311000D02*X383600Y312500D01*
X388100Y317750D02*X388850Y318500D01*
X390350D01*
X391100Y317750D01*
X390350Y312500D02*X391100Y313250D01*
X388850Y312500D02*X390350D01*
X388100Y313250D02*X388850Y312500D01*
Y315800D02*X390350D01*
X391100Y317750D02*Y316550D01*
Y315050D02*Y313250D01*
Y315050D02*X390350Y315800D01*
X391100Y316550D02*X390350Y315800D01*
X392900Y313250D02*X393650Y312500D01*
X392900Y317750D02*Y313250D01*
Y317750D02*X393650Y318500D01*
X395150D01*
X395900Y317750D01*
Y313250D01*
X395150Y312500D02*X395900Y313250D01*
X393650Y312500D02*X395150D01*
X392900Y314000D02*X395900Y317000D01*
X397700Y318500D02*X400700D01*
X397700D02*Y315500D01*
X398450Y316250D01*
X399950D01*
X400700Y315500D01*
Y313250D01*
X399950Y312500D02*X400700Y313250D01*
X398450Y312500D02*X399950D01*
X397700Y313250D02*X398450Y312500D01*
X402500Y313250D02*X403250Y312500D01*
X402500Y317750D02*Y313250D01*
Y317750D02*X403250Y318500D01*
X404750D01*
X405500Y317750D01*
Y313250D01*
X404750Y312500D02*X405500Y313250D01*
X403250Y312500D02*X404750D01*
X402500Y314000D02*X405500Y317000D01*
X407300Y312500D02*X408050D01*
X409850Y313250D02*X410600Y312500D01*
X409850Y317750D02*Y313250D01*
Y317750D02*X410600Y318500D01*
X412100D01*
X412850Y317750D01*
Y313250D01*
X412100Y312500D02*X412850Y313250D01*
X410600Y312500D02*X412100D01*
X409850Y314000D02*X412850Y317000D01*
X414650Y313250D02*X415400Y312500D01*
X414650Y317750D02*Y313250D01*
Y317750D02*X415400Y318500D01*
X416900D01*
X417650Y317750D01*
Y313250D01*
X416900Y312500D02*X417650Y313250D01*
X415400Y312500D02*X416900D01*
X414650Y314000D02*X417650Y317000D01*
X419450Y313250D02*X420200Y312500D01*
X419450Y317750D02*Y313250D01*
Y317750D02*X420200Y318500D01*
X421700D01*
X422450Y317750D01*
Y313250D01*
X421700Y312500D02*X422450Y313250D01*
X420200Y312500D02*X421700D01*
X419450Y314000D02*X422450Y317000D01*
X424250Y313250D02*X425000Y312500D01*
X424250Y317750D02*Y313250D01*
Y317750D02*X425000Y318500D01*
X426500D01*
X427250Y317750D01*
Y313250D01*
X426500Y312500D02*X427250Y313250D01*
X425000Y312500D02*X426500D01*
X424250Y314000D02*X427250Y317000D01*
X429050Y313250D02*X429800Y312500D01*
X429050Y317750D02*Y313250D01*
Y317750D02*X429800Y318500D01*
X431300D01*
X432050Y317750D01*
Y313250D01*
X431300Y312500D02*X432050Y313250D01*
X429800Y312500D02*X431300D01*
X429050Y314000D02*X432050Y317000D01*
X433850Y313250D02*X434600Y312500D01*
X433850Y317750D02*Y313250D01*
Y317750D02*X434600Y318500D01*
X436100D01*
X436850Y317750D01*
Y313250D01*
X436100Y312500D02*X436850Y313250D01*
X434600Y312500D02*X436100D01*
X433850Y314000D02*X436850Y317000D01*
X442100Y314750D02*Y312500D01*
Y314750D02*X442850Y315500D01*
X443600D01*
X444350Y314750D01*
Y312500D01*
Y314750D02*X445100Y315500D01*
X445850D01*
X446600Y314750D01*
Y312500D01*
X441350Y315500D02*X442100Y314750D01*
G54D101*X448400Y317000D02*Y316850D01*
G54D100*Y314750D02*Y312500D01*
X449900Y318500D02*Y313250D01*
X450650Y312500D01*
X452900D02*X455150D01*
X455900Y313250D01*
X455150Y314000D02*X455900Y313250D01*
X452900Y314000D02*X455150D01*
X452150Y314750D02*X452900Y314000D01*
X452150Y314750D02*X452900Y315500D01*
X455150D01*
X455900Y314750D01*
X452150Y313250D02*X452900Y312500D01*
X460400Y318500D02*Y312500D01*
Y314750D02*X461150Y315500D01*
X462650D01*
X463400Y314750D01*
Y312500D01*
G54D101*X465200Y317000D02*Y316850D01*
G54D100*Y314750D02*Y312500D01*
X468950Y315500D02*X469700Y314750D01*
X467450Y315500D02*X468950D01*
X466700Y314750D02*X467450Y315500D01*
X466700Y314750D02*Y313250D01*
X467450Y312500D01*
X468950D01*
X469700Y313250D01*
X466700Y311000D02*X467450Y310250D01*
X468950D01*
X469700Y311000D01*
Y315500D02*Y311000D01*
X471500Y318500D02*Y312500D01*
Y314750D02*X472250Y315500D01*
X473750D01*
X474500Y314750D01*
Y312500D01*
X0Y-9500D02*X3000D01*
X3750Y-8750D01*
Y-6950D02*Y-8750D01*
X3000Y-6200D02*X3750Y-6950D01*
X750Y-6200D02*X3000D01*
X750Y-3500D02*Y-9500D01*
X0Y-3500D02*X3000D01*
X3750Y-4250D01*
Y-5450D01*
X3000Y-6200D02*X3750Y-5450D01*
X5550Y-7250D02*Y-8750D01*
Y-7250D02*X6300Y-6500D01*
X7800D01*
X8550Y-7250D01*
Y-8750D01*
X7800Y-9500D02*X8550Y-8750D01*
X6300Y-9500D02*X7800D01*
X5550Y-8750D02*X6300Y-9500D01*
X12600Y-6500D02*X13350Y-7250D01*
X11100Y-6500D02*X12600D01*
X10350Y-7250D02*X11100Y-6500D01*
X10350Y-7250D02*Y-8750D01*
X11100Y-9500D01*
X13350Y-6500D02*Y-8750D01*
X14100Y-9500D01*
X11100D02*X12600D01*
X13350Y-8750D01*
X16650Y-7250D02*Y-9500D01*
Y-7250D02*X17400Y-6500D01*
X18900D01*
X15900D02*X16650Y-7250D01*
X23700Y-3500D02*Y-9500D01*
X22950D02*X23700Y-8750D01*
X21450Y-9500D02*X22950D01*
X20700Y-8750D02*X21450Y-9500D01*
X20700Y-7250D02*Y-8750D01*
Y-7250D02*X21450Y-6500D01*
X22950D01*
X23700Y-7250D01*
X28200D02*Y-8750D01*
Y-7250D02*X28950Y-6500D01*
X30450D01*
X31200Y-7250D01*
Y-8750D01*
X30450Y-9500D02*X31200Y-8750D01*
X28950Y-9500D02*X30450D01*
X28200Y-8750D02*X28950Y-9500D01*
X33000Y-6500D02*Y-8750D01*
X33750Y-9500D01*
X35250D01*
X36000Y-8750D01*
Y-6500D02*Y-8750D01*
X38550Y-3500D02*Y-8750D01*
X39300Y-9500D01*
X37800Y-5750D02*X39300D01*
X40800Y-3500D02*Y-8750D01*
X41550Y-9500D01*
G54D101*X43050Y-5000D02*Y-5150D01*
G54D100*Y-7250D02*Y-9500D01*
X45300Y-7250D02*Y-9500D01*
Y-7250D02*X46050Y-6500D01*
X46800D01*
X47550Y-7250D01*
Y-9500D01*
X44550Y-6500D02*X45300Y-7250D01*
X50100Y-9500D02*X52350D01*
X49350Y-8750D02*X50100Y-9500D01*
X49350Y-7250D02*Y-8750D01*
Y-7250D02*X50100Y-6500D01*
X51600D01*
X52350Y-7250D01*
X49350Y-8000D02*X52350D01*
Y-7250D02*Y-8000D01*
G54D101*X56850Y-5000D02*Y-5150D01*
G54D100*Y-7250D02*Y-9500D01*
X59100D02*X61350D01*
X62100Y-8750D01*
X61350Y-8000D02*X62100Y-8750D01*
X59100Y-8000D02*X61350D01*
X58350Y-7250D02*X59100Y-8000D01*
X58350Y-7250D02*X59100Y-6500D01*
X61350D01*
X62100Y-7250D01*
X58350Y-8750D02*X59100Y-9500D01*
X67350Y-3500D02*Y-8750D01*
X68100Y-9500D01*
X66600Y-5750D02*X68100D01*
X69600Y-3500D02*Y-9500D01*
Y-7250D02*X70350Y-6500D01*
X71850D01*
X72600Y-7250D01*
Y-9500D01*
X75150D02*X77400D01*
X74400Y-8750D02*X75150Y-9500D01*
X74400Y-7250D02*Y-8750D01*
Y-7250D02*X75150Y-6500D01*
X76650D01*
X77400Y-7250D01*
X74400Y-8000D02*X77400D01*
Y-7250D02*Y-8000D01*
X82650Y-6500D02*X84900D01*
X81900Y-7250D02*X82650Y-6500D01*
X81900Y-7250D02*Y-8750D01*
X82650Y-9500D01*
X84900D01*
X87450D02*X89700D01*
X86700Y-8750D02*X87450Y-9500D01*
X86700Y-7250D02*Y-8750D01*
Y-7250D02*X87450Y-6500D01*
X88950D01*
X89700Y-7250D01*
X86700Y-8000D02*X89700D01*
Y-7250D02*Y-8000D01*
X92250Y-7250D02*Y-9500D01*
Y-7250D02*X93000Y-6500D01*
X93750D01*
X94500Y-7250D01*
Y-9500D01*
X91500Y-6500D02*X92250Y-7250D01*
X97050Y-3500D02*Y-8750D01*
X97800Y-9500D01*
X96300Y-5750D02*X97800D01*
X100050Y-9500D02*X102300D01*
X99300Y-8750D02*X100050Y-9500D01*
X99300Y-7250D02*Y-8750D01*
Y-7250D02*X100050Y-6500D01*
X101550D01*
X102300Y-7250D01*
X99300Y-8000D02*X102300D01*
Y-7250D02*Y-8000D01*
X104850Y-7250D02*Y-9500D01*
Y-7250D02*X105600Y-6500D01*
X107100D01*
X104100D02*X104850Y-7250D01*
X108900Y-3500D02*Y-8750D01*
X109650Y-9500D01*
G54D101*X111150Y-5000D02*Y-5150D01*
G54D100*Y-7250D02*Y-9500D01*
X113400Y-7250D02*Y-9500D01*
Y-7250D02*X114150Y-6500D01*
X114900D01*
X115650Y-7250D01*
Y-9500D01*
X112650Y-6500D02*X113400Y-7250D01*
X118200Y-9500D02*X120450D01*
X117450Y-8750D02*X118200Y-9500D01*
X117450Y-7250D02*Y-8750D01*
Y-7250D02*X118200Y-6500D01*
X119700D01*
X120450Y-7250D01*
X117450Y-8000D02*X120450D01*
Y-7250D02*Y-8000D01*
X124950Y-7250D02*Y-8750D01*
Y-7250D02*X125700Y-6500D01*
X127200D01*
X127950Y-7250D01*
Y-8750D01*
X127200Y-9500D02*X127950Y-8750D01*
X125700Y-9500D02*X127200D01*
X124950Y-8750D02*X125700Y-9500D01*
X130500Y-4250D02*Y-9500D01*
Y-4250D02*X131250Y-3500D01*
X132000D01*
X129750Y-6500D02*X131250D01*
X136950Y-3500D02*Y-8750D01*
X137700Y-9500D01*
X136200Y-5750D02*X137700D01*
X139200Y-3500D02*Y-9500D01*
Y-7250D02*X139950Y-6500D01*
X141450D01*
X142200Y-7250D01*
Y-9500D01*
G54D101*X144000Y-5000D02*Y-5150D01*
G54D100*Y-7250D02*Y-9500D01*
X146250D02*X148500D01*
X149250Y-8750D01*
X148500Y-8000D02*X149250Y-8750D01*
X146250Y-8000D02*X148500D01*
X145500Y-7250D02*X146250Y-8000D01*
X145500Y-7250D02*X146250Y-6500D01*
X148500D01*
X149250Y-7250D01*
X145500Y-8750D02*X146250Y-9500D01*
X153750Y-8750D02*X154500Y-9500D01*
X153750Y-7550D02*Y-8750D01*
Y-7550D02*X154800Y-6500D01*
X155700D01*
X156750Y-7550D01*
Y-8750D01*
X156000Y-9500D02*X156750Y-8750D01*
X154500Y-9500D02*X156000D01*
X153750Y-5450D02*X154800Y-6500D01*
X153750Y-4250D02*Y-5450D01*
Y-4250D02*X154500Y-3500D01*
X156000D01*
X156750Y-4250D01*
Y-5450D01*
X155700Y-6500D02*X156750Y-5450D01*
X158550Y-9500D02*X159300D01*
X161100Y-8750D02*X161850Y-9500D01*
X161100Y-4250D02*Y-8750D01*
Y-4250D02*X161850Y-3500D01*
X163350D01*
X164100Y-4250D01*
Y-8750D01*
X163350Y-9500D02*X164100Y-8750D01*
X161850Y-9500D02*X163350D01*
X161100Y-8000D02*X164100Y-5000D01*
X165900Y-8750D02*X166650Y-9500D01*
X165900Y-4250D02*Y-8750D01*
Y-4250D02*X166650Y-3500D01*
X168150D01*
X168900Y-4250D01*
Y-8750D01*
X168150Y-9500D02*X168900Y-8750D01*
X166650Y-9500D02*X168150D01*
X165900Y-8000D02*X168900Y-5000D01*
X170700Y-8750D02*X171450Y-9500D01*
X170700Y-4250D02*Y-8750D01*
Y-4250D02*X171450Y-3500D01*
X172950D01*
X173700Y-4250D01*
Y-8750D01*
X172950Y-9500D02*X173700Y-8750D01*
X171450Y-9500D02*X172950D01*
X170700Y-8000D02*X173700Y-5000D01*
X175500Y-8750D02*X176250Y-9500D01*
X175500Y-4250D02*Y-8750D01*
Y-4250D02*X176250Y-3500D01*
X177750D01*
X178500Y-4250D01*
Y-8750D01*
X177750Y-9500D02*X178500Y-8750D01*
X176250Y-9500D02*X177750D01*
X175500Y-8000D02*X178500Y-5000D01*
X180300Y-8750D02*X181050Y-9500D01*
X180300Y-4250D02*Y-8750D01*
Y-4250D02*X181050Y-3500D01*
X182550D01*
X183300Y-4250D01*
Y-8750D01*
X182550Y-9500D02*X183300Y-8750D01*
X181050Y-9500D02*X182550D01*
X180300Y-8000D02*X183300Y-5000D01*
X185100Y-8750D02*X185850Y-9500D01*
X185100Y-4250D02*Y-8750D01*
Y-4250D02*X185850Y-3500D01*
X187350D01*
X188100Y-4250D01*
Y-8750D01*
X187350Y-9500D02*X188100Y-8750D01*
X185850Y-9500D02*X187350D01*
X185100Y-8000D02*X188100Y-5000D01*
X193350Y-7250D02*Y-9500D01*
Y-7250D02*X194100Y-6500D01*
X194850D01*
X195600Y-7250D01*
Y-9500D01*
Y-7250D02*X196350Y-6500D01*
X197100D01*
X197850Y-7250D01*
Y-9500D01*
X192600Y-6500D02*X193350Y-7250D01*
G54D101*X199650Y-5000D02*Y-5150D01*
G54D100*Y-7250D02*Y-9500D01*
X201150Y-3500D02*Y-8750D01*
X201900Y-9500D01*
X206850Y-7250D02*Y-9500D01*
Y-7250D02*X207600Y-6500D01*
X209100D01*
X206100D02*X206850Y-7250D01*
X211650Y-9500D02*X213900D01*
X210900Y-8750D02*X211650Y-9500D01*
X210900Y-7250D02*Y-8750D01*
Y-7250D02*X211650Y-6500D01*
X213150D01*
X213900Y-7250D01*
X210900Y-8000D02*X213900D01*
Y-7250D02*Y-8000D01*
X216450Y-6500D02*X218700D01*
X215700Y-7250D02*X216450Y-6500D01*
X215700Y-7250D02*Y-8750D01*
X216450Y-9500D01*
X218700D01*
X221250Y-3500D02*Y-8750D01*
X222000Y-9500D01*
X220500Y-5750D02*X222000D01*
X225750Y-6500D02*X226500Y-7250D01*
X224250Y-6500D02*X225750D01*
X223500Y-7250D02*X224250Y-6500D01*
X223500Y-7250D02*Y-8750D01*
X224250Y-9500D01*
X226500Y-6500D02*Y-8750D01*
X227250Y-9500D01*
X224250D02*X225750D01*
X226500Y-8750D01*
X229800Y-7250D02*Y-9500D01*
Y-7250D02*X230550Y-6500D01*
X231300D01*
X232050Y-7250D01*
Y-9500D01*
X229050Y-6500D02*X229800Y-7250D01*
X236100Y-6500D02*X236850Y-7250D01*
X234600Y-6500D02*X236100D01*
X233850Y-7250D02*X234600Y-6500D01*
X233850Y-7250D02*Y-8750D01*
X234600Y-9500D01*
X236100D01*
X236850Y-8750D01*
X233850Y-11000D02*X234600Y-11750D01*
X236100D01*
X236850Y-11000D01*
Y-6500D02*Y-11000D01*
X238650Y-3500D02*Y-8750D01*
X239400Y-9500D01*
X241650D02*X243900D01*
X240900Y-8750D02*X241650Y-9500D01*
X240900Y-7250D02*Y-8750D01*
Y-7250D02*X241650Y-6500D01*
X243150D01*
X243900Y-7250D01*
X240900Y-8000D02*X243900D01*
Y-7250D02*Y-8000D01*
X248400Y-6500D02*X251400D01*
X255900Y-8750D02*X256650Y-9500D01*
X255900Y-4250D02*Y-8750D01*
Y-4250D02*X256650Y-3500D01*
X258150D01*
X258900Y-4250D01*
Y-8750D01*
X258150Y-9500D02*X258900Y-8750D01*
X256650Y-9500D02*X258150D01*
X255900Y-8000D02*X258900Y-5000D01*
X260700Y-11000D02*X262200Y-9500D01*
X264000Y-8750D02*X264750Y-9500D01*
X264000Y-4250D02*Y-8750D01*
Y-4250D02*X264750Y-3500D01*
X266250D01*
X267000Y-4250D01*
Y-8750D01*
X266250Y-9500D02*X267000Y-8750D01*
X264750Y-9500D02*X266250D01*
X264000Y-8000D02*X267000Y-5000D01*
X272250Y-3500D02*Y-8750D01*
X273000Y-9500D01*
X271500Y-5750D02*X273000D01*
X274500Y-7250D02*Y-8750D01*
Y-7250D02*X275250Y-6500D01*
X276750D01*
X277500Y-7250D01*
Y-8750D01*
X276750Y-9500D02*X277500Y-8750D01*
X275250Y-9500D02*X276750D01*
X274500Y-8750D02*X275250Y-9500D01*
X282000Y-4250D02*X282750Y-3500D01*
X285000D01*
X285750Y-4250D01*
Y-5750D01*
X282000Y-9500D02*X285750Y-5750D01*
X282000Y-9500D02*X285750D01*
X287550Y-4250D02*X288300Y-3500D01*
X290550D01*
X291300Y-4250D01*
Y-5750D01*
X287550Y-9500D02*X291300Y-5750D01*
X287550Y-9500D02*X291300D01*
X293100Y-4250D02*X293850Y-3500D01*
X295350D01*
X296100Y-4250D01*
X295350Y-9500D02*X296100Y-8750D01*
X293850Y-9500D02*X295350D01*
X293100Y-8750D02*X293850Y-9500D01*
Y-6200D02*X295350D01*
X296100Y-4250D02*Y-5450D01*
Y-6950D02*Y-8750D01*
Y-6950D02*X295350Y-6200D01*
X296100Y-5450D02*X295350Y-6200D01*
X297900Y-8750D02*X298650Y-9500D01*
X297900Y-4250D02*Y-8750D01*
Y-4250D02*X298650Y-3500D01*
X300150D01*
X300900Y-4250D01*
Y-8750D01*
X300150Y-9500D02*X300900Y-8750D01*
X298650Y-9500D02*X300150D01*
X297900Y-8000D02*X300900Y-5000D01*
X302700Y-9500D02*X303450D01*
X305250Y-8750D02*X306000Y-9500D01*
X305250Y-4250D02*Y-8750D01*
Y-4250D02*X306000Y-3500D01*
X307500D01*
X308250Y-4250D01*
Y-8750D01*
X307500Y-9500D02*X308250Y-8750D01*
X306000Y-9500D02*X307500D01*
X305250Y-8000D02*X308250Y-5000D01*
X310050Y-8750D02*X310800Y-9500D01*
X310050Y-4250D02*Y-8750D01*
Y-4250D02*X310800Y-3500D01*
X312300D01*
X313050Y-4250D01*
Y-8750D01*
X312300Y-9500D02*X313050Y-8750D01*
X310800Y-9500D02*X312300D01*
X310050Y-8000D02*X313050Y-5000D01*
X314850Y-8750D02*X315600Y-9500D01*
X314850Y-4250D02*Y-8750D01*
Y-4250D02*X315600Y-3500D01*
X317100D01*
X317850Y-4250D01*
Y-8750D01*
X317100Y-9500D02*X317850Y-8750D01*
X315600Y-9500D02*X317100D01*
X314850Y-8000D02*X317850Y-5000D01*
X319650Y-8750D02*X320400Y-9500D01*
X319650Y-4250D02*Y-8750D01*
Y-4250D02*X320400Y-3500D01*
X321900D01*
X322650Y-4250D01*
Y-8750D01*
X321900Y-9500D02*X322650Y-8750D01*
X320400Y-9500D02*X321900D01*
X319650Y-8000D02*X322650Y-5000D01*
X324450Y-8750D02*X325200Y-9500D01*
X324450Y-4250D02*Y-8750D01*
Y-4250D02*X325200Y-3500D01*
X326700D01*
X327450Y-4250D01*
Y-8750D01*
X326700Y-9500D02*X327450Y-8750D01*
X325200Y-9500D02*X326700D01*
X324450Y-8000D02*X327450Y-5000D01*
X329250Y-8750D02*X330000Y-9500D01*
X329250Y-4250D02*Y-8750D01*
Y-4250D02*X330000Y-3500D01*
X331500D01*
X332250Y-4250D01*
Y-8750D01*
X331500Y-9500D02*X332250Y-8750D01*
X330000Y-9500D02*X331500D01*
X329250Y-8000D02*X332250Y-5000D01*
X334050Y-11000D02*X335550Y-9500D01*
X337350Y-4250D02*X338100Y-3500D01*
X339600D01*
X340350Y-4250D01*
X339600Y-9500D02*X340350Y-8750D01*
X338100Y-9500D02*X339600D01*
X337350Y-8750D02*X338100Y-9500D01*
Y-6200D02*X339600D01*
X340350Y-4250D02*Y-5450D01*
Y-6950D02*Y-8750D01*
Y-6950D02*X339600Y-6200D01*
X340350Y-5450D02*X339600Y-6200D01*
X342150Y-8750D02*X342900Y-9500D01*
X342150Y-4250D02*Y-8750D01*
Y-4250D02*X342900Y-3500D01*
X344400D01*
X345150Y-4250D01*
Y-8750D01*
X344400Y-9500D02*X345150Y-8750D01*
X342900Y-9500D02*X344400D01*
X342150Y-8000D02*X345150Y-5000D01*
X346950Y-3500D02*X349950D01*
X346950D02*Y-6500D01*
X347700Y-5750D01*
X349200D01*
X349950Y-6500D01*
Y-8750D01*
X349200Y-9500D02*X349950Y-8750D01*
X347700Y-9500D02*X349200D01*
X346950Y-8750D02*X347700Y-9500D01*
X351750Y-8750D02*X352500Y-9500D01*
X351750Y-4250D02*Y-8750D01*
Y-4250D02*X352500Y-3500D01*
X354000D01*
X354750Y-4250D01*
Y-8750D01*
X354000Y-9500D02*X354750Y-8750D01*
X352500Y-9500D02*X354000D01*
X351750Y-8000D02*X354750Y-5000D01*
X356550Y-9500D02*X357300D01*
X359100Y-8750D02*X359850Y-9500D01*
X359100Y-4250D02*Y-8750D01*
Y-4250D02*X359850Y-3500D01*
X361350D01*
X362100Y-4250D01*
Y-8750D01*
X361350Y-9500D02*X362100Y-8750D01*
X359850Y-9500D02*X361350D01*
X359100Y-8000D02*X362100Y-5000D01*
X363900Y-8750D02*X364650Y-9500D01*
X363900Y-4250D02*Y-8750D01*
Y-4250D02*X364650Y-3500D01*
X366150D01*
X366900Y-4250D01*
Y-8750D01*
X366150Y-9500D02*X366900Y-8750D01*
X364650Y-9500D02*X366150D01*
X363900Y-8000D02*X366900Y-5000D01*
X368700Y-8750D02*X369450Y-9500D01*
X368700Y-4250D02*Y-8750D01*
Y-4250D02*X369450Y-3500D01*
X370950D01*
X371700Y-4250D01*
Y-8750D01*
X370950Y-9500D02*X371700Y-8750D01*
X369450Y-9500D02*X370950D01*
X368700Y-8000D02*X371700Y-5000D01*
X373500Y-8750D02*X374250Y-9500D01*
X373500Y-4250D02*Y-8750D01*
Y-4250D02*X374250Y-3500D01*
X375750D01*
X376500Y-4250D01*
Y-8750D01*
X375750Y-9500D02*X376500Y-8750D01*
X374250Y-9500D02*X375750D01*
X373500Y-8000D02*X376500Y-5000D01*
X378300Y-8750D02*X379050Y-9500D01*
X378300Y-4250D02*Y-8750D01*
Y-4250D02*X379050Y-3500D01*
X380550D01*
X381300Y-4250D01*
Y-8750D01*
X380550Y-9500D02*X381300Y-8750D01*
X379050Y-9500D02*X380550D01*
X378300Y-8000D02*X381300Y-5000D01*
X383100Y-8750D02*X383850Y-9500D01*
X383100Y-4250D02*Y-8750D01*
Y-4250D02*X383850Y-3500D01*
X385350D01*
X386100Y-4250D01*
Y-8750D01*
X385350Y-9500D02*X386100Y-8750D01*
X383850Y-9500D02*X385350D01*
X383100Y-8000D02*X386100Y-5000D01*
X391350Y-7250D02*Y-9500D01*
Y-7250D02*X392100Y-6500D01*
X392850D01*
X393600Y-7250D01*
Y-9500D01*
Y-7250D02*X394350Y-6500D01*
X395100D01*
X395850Y-7250D01*
Y-9500D01*
X390600Y-6500D02*X391350Y-7250D01*
G54D101*X397650Y-5000D02*Y-5150D01*
G54D100*Y-7250D02*Y-9500D01*
X399150Y-3500D02*Y-8750D01*
X399900Y-9500D01*
X402150D02*X404400D01*
X405150Y-8750D01*
X404400Y-8000D02*X405150Y-8750D01*
X402150Y-8000D02*X404400D01*
X401400Y-7250D02*X402150Y-8000D01*
X401400Y-7250D02*X402150Y-6500D01*
X404400D01*
X405150Y-7250D01*
X401400Y-8750D02*X402150Y-9500D01*
X200750Y333500D02*Y327500D01*
X202700Y333500D02*X203750Y332450D01*
Y328550D01*
X202700Y327500D02*X203750Y328550D01*
X200000Y327500D02*X202700D01*
X200000Y333500D02*X202700D01*
X207800Y330500D02*X208550Y329750D01*
X206300Y330500D02*X207800D01*
X205550Y329750D02*X206300Y330500D01*
X205550Y329750D02*Y328250D01*
X206300Y327500D01*
X208550Y330500D02*Y328250D01*
X209300Y327500D01*
X206300D02*X207800D01*
X208550Y328250D01*
X211850Y333500D02*Y328250D01*
X212600Y327500D01*
X211100Y331250D02*X212600D01*
X214850Y327500D02*X217100D01*
X214100Y328250D02*X214850Y327500D01*
X214100Y329750D02*Y328250D01*
Y329750D02*X214850Y330500D01*
X216350D01*
X217100Y329750D01*
X214100Y329000D02*X217100D01*
Y329750D02*Y329000D01*
X218900Y331250D02*X219650D01*
X218900Y329750D02*X219650D01*
X224150Y333500D02*Y327500D01*
Y333500D02*X227150D01*
X224150Y330800D02*X226400D01*
X229700Y329750D02*Y327500D01*
Y329750D02*X230450Y330500D01*
X231950D01*
X228950D02*X229700Y329750D01*
G54D101*X233750Y332000D02*Y331850D01*
G54D100*Y329750D02*Y327500D01*
X237950Y332750D02*X238700Y333500D01*
X240950D01*
X241700Y332750D01*
Y331250D01*
X237950Y327500D02*X241700Y331250D01*
X237950Y327500D02*X241700D01*
X244250D02*X247250Y333500D01*
X243500D02*X247250D01*
X252800D02*X254000D01*
Y328250D01*
X253250Y327500D02*X254000Y328250D01*
X252500Y327500D02*X253250D01*
X251750Y328250D02*X252500Y327500D01*
X251750Y329000D02*Y328250D01*
X255800Y330500D02*Y328250D01*
X256550Y327500D01*
X258050D01*
X258800Y328250D01*
Y330500D02*Y328250D01*
X261350Y329750D02*Y327500D01*
Y329750D02*X262100Y330500D01*
X262850D01*
X263600Y329750D01*
Y327500D01*
X260600Y330500D02*X261350Y329750D01*
X268100Y332750D02*X268850Y333500D01*
X271100D01*
X271850Y332750D01*
Y331250D01*
X268100Y327500D02*X271850Y331250D01*
X268100Y327500D02*X271850D01*
X273650Y328250D02*X274400Y327500D01*
X273650Y332750D02*Y328250D01*
Y332750D02*X274400Y333500D01*
X275900D01*
X276650Y332750D01*
Y328250D01*
X275900Y327500D02*X276650Y328250D01*
X274400Y327500D02*X275900D01*
X273650Y329000D02*X276650Y332000D01*
X278450Y332300D02*X279650Y333500D01*
Y327500D01*
X278450D02*X280700D01*
X282500Y329750D02*X285500Y333500D01*
X282500Y329750D02*X286250D01*
X285500Y333500D02*Y327500D01*
X290750Y332300D02*X291950Y333500D01*
Y327500D01*
X290750D02*X293000D01*
X294800Y328250D02*X295550Y327500D01*
X294800Y332750D02*Y328250D01*
Y332750D02*X295550Y333500D01*
X297050D01*
X297800Y332750D01*
Y328250D01*
X297050Y327500D02*X297800Y328250D01*
X295550Y327500D02*X297050D01*
X294800Y329000D02*X297800Y332000D01*
X299600Y331250D02*X300350D01*
X299600Y329750D02*X300350D01*
X302150Y332750D02*X302900Y333500D01*
X305150D01*
X305900Y332750D01*
Y331250D01*
X302150Y327500D02*X305900Y331250D01*
X302150Y327500D02*X305900D01*
X307700Y328250D02*X308450Y327500D01*
X307700Y329450D02*Y328250D01*
Y329450D02*X308750Y330500D01*
X309650D01*
X310700Y329450D01*
Y328250D01*
X309950Y327500D02*X310700Y328250D01*
X308450Y327500D02*X309950D01*
X307700Y331550D02*X308750Y330500D01*
X307700Y332750D02*Y331550D01*
Y332750D02*X308450Y333500D01*
X309950D01*
X310700Y332750D01*
Y331550D01*
X309650Y330500D02*X310700Y331550D01*
X312500Y331250D02*X313250D01*
X312500Y329750D02*X313250D01*
X315050Y332750D02*X315800Y333500D01*
X318050D01*
X318800Y332750D01*
Y331250D01*
X315050Y327500D02*X318800Y331250D01*
X315050Y327500D02*X318800D01*
X320600Y332300D02*X321800Y333500D01*
Y327500D01*
X320600D02*X322850D01*
X328100Y333500D02*Y327500D01*
X327350Y333500D02*X330350D01*
X331100Y332750D01*
Y331250D01*
X330350Y330500D02*X331100Y331250D01*
X328100Y330500D02*X330350D01*
X332900Y333500D02*Y327500D01*
Y333500D02*X335150Y330500D01*
X337400Y333500D01*
Y327500D01*
X344900Y333500D02*X345650Y332750D01*
X342650Y333500D02*X344900D01*
X341900Y332750D02*X342650Y333500D01*
X341900Y332750D02*Y328250D01*
X342650Y327500D01*
X344900D01*
X345650Y328250D01*
Y329750D02*Y328250D01*
X344900Y330500D02*X345650Y329750D01*
X343400Y330500D02*X344900D01*
X347450Y333500D02*Y327500D01*
Y333500D02*X349700Y330500D01*
X351950Y333500D01*
Y327500D01*
X353750Y333500D02*X356750D01*
X355250D02*Y327500D01*
X361250Y333500D02*Y328250D01*
X362000Y327500D01*
X363500D01*
X364250Y328250D01*
Y333500D02*Y328250D01*
X366050Y333500D02*X369050D01*
X367550D02*Y327500D01*
X371900D02*X373850D01*
X370850Y328550D02*X371900Y327500D01*
X370850Y332450D02*Y328550D01*
Y332450D02*X371900Y333500D01*
X373850D01*
X200000Y347000D02*Y342500D01*
Y347000D02*X201050Y348500D01*
X202700D01*
X203750Y347000D01*
Y342500D01*
X200000Y345500D02*X203750D01*
X205550D02*Y343250D01*
X206300Y342500D01*
X207800D01*
X208550Y343250D01*
Y345500D02*Y343250D01*
X211100Y348500D02*Y343250D01*
X211850Y342500D01*
X210350Y346250D02*X211850D01*
X213350Y348500D02*Y342500D01*
Y344750D02*X214100Y345500D01*
X215600D01*
X216350Y344750D01*
Y342500D01*
X218150Y344750D02*Y343250D01*
Y344750D02*X218900Y345500D01*
X220400D01*
X221150Y344750D01*
Y343250D01*
X220400Y342500D02*X221150Y343250D01*
X218900Y342500D02*X220400D01*
X218150Y343250D02*X218900Y342500D01*
X223700Y344750D02*Y342500D01*
Y344750D02*X224450Y345500D01*
X225950D01*
X222950D02*X223700Y344750D01*
X227750Y346250D02*X228500D01*
X227750Y344750D02*X228500D01*
X233750D02*Y342500D01*
Y344750D02*X234500Y345500D01*
X236000D01*
X233000D02*X233750Y344750D01*
X237800Y345500D02*Y343250D01*
X238550Y342500D01*
X240800Y345500D02*Y341000D01*
X240050Y340250D02*X240800Y341000D01*
X238550Y340250D02*X240050D01*
X237800Y341000D02*X238550Y340250D01*
Y342500D02*X240050D01*
X240800Y343250D01*
X244850Y345500D02*X245600Y344750D01*
X243350Y345500D02*X244850D01*
X242600Y344750D02*X243350Y345500D01*
X242600Y344750D02*Y343250D01*
X243350Y342500D01*
X245600Y345500D02*Y343250D01*
X246350Y342500D01*
X243350D02*X244850D01*
X245600Y343250D01*
X248900Y344750D02*Y342500D01*
Y344750D02*X249650Y345500D01*
X250400D01*
X251150Y344750D01*
Y342500D01*
X248150Y345500D02*X248900Y344750D01*
X200000Y363500D02*X203000D01*
X201500D02*Y357500D01*
G54D101*X204800Y362000D02*Y361850D01*
G54D100*Y359750D02*Y357500D01*
X207050Y363500D02*Y358250D01*
X207800Y357500D01*
X206300Y361250D02*X207800D01*
X209300Y363500D02*Y358250D01*
X210050Y357500D01*
X212300D02*X214550D01*
X211550Y358250D02*X212300Y357500D01*
X211550Y359750D02*Y358250D01*
Y359750D02*X212300Y360500D01*
X213800D01*
X214550Y359750D01*
X211550Y359000D02*X214550D01*
Y359750D02*Y359000D01*
X216350Y361250D02*X217100D01*
X216350Y359750D02*X217100D01*
X221600D02*X224600Y363500D01*
X221600Y359750D02*X225350D01*
X224600Y363500D02*Y357500D01*
X227150Y362300D02*X228350Y363500D01*
Y357500D01*
X227150D02*X229400D01*
X231200Y359750D02*X234200Y363500D01*
X231200Y359750D02*X234950D01*
X234200Y363500D02*Y357500D01*
X236750Y362750D02*X237500Y363500D01*
X239000D01*
X239750Y362750D01*
X239000Y357500D02*X239750Y358250D01*
X237500Y357500D02*X239000D01*
X236750Y358250D02*X237500Y357500D01*
Y360800D02*X239000D01*
X239750Y362750D02*Y361550D01*
Y360050D02*Y358250D01*
Y360050D02*X239000Y360800D01*
X239750Y361550D02*X239000Y360800D01*
X242300Y357500D02*X244550D01*
X245300Y358250D01*
X244550Y359000D02*X245300Y358250D01*
X242300Y359000D02*X244550D01*
X241550Y359750D02*X242300Y359000D01*
X241550Y359750D02*X242300Y360500D01*
X244550D01*
X245300Y359750D01*
X241550Y358250D02*X242300Y357500D01*
X247100Y363500D02*Y357500D01*
Y359750D02*X247850Y360500D01*
X249350D01*
X250100Y359750D01*
Y357500D01*
G54D101*X251900Y362000D02*Y361850D01*
G54D100*Y359750D02*Y357500D01*
X254150D02*X256400D01*
X253400Y358250D02*X254150Y357500D01*
X253400Y359750D02*Y358250D01*
Y359750D02*X254150Y360500D01*
X255650D01*
X256400Y359750D01*
X253400Y359000D02*X256400D01*
Y359750D02*Y359000D01*
X258200Y363500D02*Y358250D01*
X258950Y357500D01*
X263450Y363500D02*Y357500D01*
X262700D02*X263450Y358250D01*
X261200Y357500D02*X262700D01*
X260450Y358250D02*X261200Y357500D01*
X260450Y359750D02*Y358250D01*
Y359750D02*X261200Y360500D01*
X262700D01*
X263450Y359750D01*
X267950Y360500D02*X270950D01*
X275450Y363500D02*Y357500D01*
Y363500D02*X278450D01*
X275450Y360800D02*X277700D01*
X282500Y360500D02*X283250Y359750D01*
X281000Y360500D02*X282500D01*
X280250Y359750D02*X281000Y360500D01*
X280250Y359750D02*Y358250D01*
X281000Y357500D01*
X283250Y360500D02*Y358250D01*
X284000Y357500D01*
X281000D02*X282500D01*
X283250Y358250D01*
X285800Y363500D02*Y357500D01*
Y358250D02*X286550Y357500D01*
X288050D01*
X288800Y358250D01*
Y359750D02*Y358250D01*
X288050Y360500D02*X288800Y359750D01*
X286550Y360500D02*X288050D01*
X285800Y359750D02*X286550Y360500D01*
X291350Y359750D02*Y357500D01*
Y359750D02*X292100Y360500D01*
X293600D01*
X290600D02*X291350Y359750D01*
G54D101*X295400Y362000D02*Y361850D01*
G54D100*Y359750D02*Y357500D01*
X297650Y360500D02*X299900D01*
X296900Y359750D02*X297650Y360500D01*
X296900Y359750D02*Y358250D01*
X297650Y357500D01*
X299900D01*
X303950Y360500D02*X304700Y359750D01*
X302450Y360500D02*X303950D01*
X301700Y359750D02*X302450Y360500D01*
X301700Y359750D02*Y358250D01*
X302450Y357500D01*
X304700Y360500D02*Y358250D01*
X305450Y357500D01*
X302450D02*X303950D01*
X304700Y358250D01*
X308000Y363500D02*Y358250D01*
X308750Y357500D01*
X307250Y361250D02*X308750D01*
G54D101*X310250Y362000D02*Y361850D01*
G54D100*Y359750D02*Y357500D01*
X311750Y359750D02*Y358250D01*
Y359750D02*X312500Y360500D01*
X314000D01*
X314750Y359750D01*
Y358250D01*
X314000Y357500D02*X314750Y358250D01*
X312500Y357500D02*X314000D01*
X311750Y358250D02*X312500Y357500D01*
X317300Y359750D02*Y357500D01*
Y359750D02*X318050Y360500D01*
X318800D01*
X319550Y359750D01*
Y357500D01*
X316550Y360500D02*X317300Y359750D01*
X324800Y363500D02*Y357500D01*
X326750Y363500D02*X327800Y362450D01*
Y358550D01*
X326750Y357500D02*X327800Y358550D01*
X324050Y357500D02*X326750D01*
X324050Y363500D02*X326750D01*
X330350Y359750D02*Y357500D01*
Y359750D02*X331100Y360500D01*
X332600D01*
X329600D02*X330350Y359750D01*
X336650Y360500D02*X337400Y359750D01*
X335150Y360500D02*X336650D01*
X334400Y359750D02*X335150Y360500D01*
X334400Y359750D02*Y358250D01*
X335150Y357500D01*
X337400Y360500D02*Y358250D01*
X338150Y357500D01*
X335150D02*X336650D01*
X337400Y358250D01*
X339950Y360500D02*Y358250D01*
X340700Y357500D01*
X341450D01*
X342200Y358250D01*
Y360500D02*Y358250D01*
X342950Y357500D01*
X343700D01*
X344450Y358250D01*
Y360500D02*Y358250D01*
G54D101*X346250Y362000D02*Y361850D01*
G54D100*Y359750D02*Y357500D01*
X348500Y359750D02*Y357500D01*
Y359750D02*X349250Y360500D01*
X350000D01*
X350750Y359750D01*
Y357500D01*
X347750Y360500D02*X348500Y359750D01*
X354800Y360500D02*X355550Y359750D01*
X353300Y360500D02*X354800D01*
X352550Y359750D02*X353300Y360500D01*
X352550Y359750D02*Y358250D01*
X353300Y357500D01*
X354800D01*
X355550Y358250D01*
X352550Y356000D02*X353300Y355250D01*
X354800D01*
X355550Y356000D01*
Y360500D02*Y356000D01*
M02*
