G04 start of page 7 for group -4079 idx -4079 *
G04 Title: 4143shield, topsilk *
G04 Creator: pcb 20110918 *
G04 CreationDate: Fri 27 Jun 2014 10:28:21 PM GMT UTC *
G04 For: ryan *
G04 Format: Gerber/RS-274X *
G04 PCB-Dimensions: 223000 305000 *
G04 PCB-Coordinate-Origin: lower left *
%MOIN*%
%FSLAX25Y25*%
%LNTOPSILK*%
%ADD95C,0.0100*%
%ADD94C,0.0001*%
G54D94*G36*
X150984Y201428D02*X151038Y224366D01*
X179142Y210309D01*
X179137Y201449D01*
X172138D01*
Y204938D01*
X168687Y206680D01*
X168590Y201449D01*
X161580D01*
X161585Y210223D01*
X158244Y211748D01*
X157988Y211806D01*
X158022Y201417D01*
X150984Y201428D01*
G37*
G36*
X59769Y212932D02*X65362D01*
X65548Y212862D01*
X65650Y212694D01*
X65748Y212178D01*
X65795Y211934D01*
X65840Y211689D01*
X66697Y207067D01*
X66800Y206873D01*
X66979Y206748D01*
X67206Y206655D01*
X68918Y206062D01*
X70544Y205294D01*
X70555Y205282D01*
X70744Y205206D01*
X70962Y205171D01*
X71173Y205239D01*
X75030Y207887D01*
X75229Y208025D01*
X75431Y208163D01*
X75872Y208462D01*
X76062Y208510D01*
X76240Y208430D01*
X76615Y208049D01*
X76962Y207713D01*
X78047Y206628D01*
X78394Y206275D01*
X79479Y205196D01*
X79826Y204844D01*
X80201Y204474D01*
X80283Y204289D01*
X80238Y204095D01*
X79936Y203660D01*
X79794Y203456D01*
X79652Y203253D01*
X77070Y199477D01*
X77004Y199271D01*
X77038Y199060D01*
X77130Y198848D01*
X77972Y197155D01*
X78622Y195360D01*
X78709Y195170D01*
X78837Y194992D01*
X79034Y194894D01*
X83462Y194074D01*
X83702Y194025D01*
X83944Y193981D01*
X84470Y193884D01*
X84636Y193781D01*
X84704Y193596D01*
Y187998D01*
X84636Y187810D01*
X84470Y187705D01*
X83944Y187612D01*
X83702Y187569D01*
X83462Y187520D01*
X79159Y186717D01*
X78972Y186617D01*
X78850Y186441D01*
X78795Y186299D01*
X78790Y186278D01*
X78133Y184292D01*
X77244Y182425D01*
X77227Y182403D01*
X77190Y182306D01*
X77155Y182091D01*
X77222Y181882D01*
X79663Y178335D01*
X79800Y178132D01*
X79936Y177934D01*
X80238Y177494D01*
X80283Y177300D01*
X80201Y177120D01*
X79826Y176739D01*
X78394Y175307D01*
X78047Y174966D01*
X76962Y173887D01*
X76615Y173534D01*
X76240Y173164D01*
X76062Y173081D01*
X75872Y173127D01*
X75431Y173431D01*
X75229Y173566D01*
X75030Y173702D01*
X71558Y176084D01*
X71350Y176144D01*
X71140Y176099D01*
X70419Y175698D01*
X70204Y175582D01*
X69990Y175470D01*
X69236Y175080D01*
X69055Y175067D01*
X68927Y175194D01*
X68606Y175975D01*
X68513Y176200D01*
X68418Y176425D01*
X65411Y183712D01*
X65313Y183931D01*
X65222Y184156D01*
X65009Y184671D01*
X65001Y184871D01*
X65119Y185030D01*
X65595Y185317D01*
X65748Y185424D01*
X65900Y185550D01*
X67070Y186521D01*
X67972Y187746D01*
X68550Y189175D01*
X68754Y190759D01*
X68629Y192006D01*
X68268Y193169D01*
X67698Y194221D01*
X66943Y195139D01*
X66027Y195896D01*
X64977Y196467D01*
X63816Y196830D01*
X62569Y196955D01*
X61322Y196830D01*
X60159Y196467D01*
X59108Y195896D01*
X58193Y195139D01*
X57436Y194221D01*
X56865Y193169D01*
X56505Y192006D01*
X56379Y190759D01*
X56583Y189175D01*
X57161Y187746D01*
X58061Y186521D01*
X59231Y185550D01*
X59384Y185424D01*
X59536Y185317D01*
X60013Y185030D01*
X60131Y184871D01*
X60127Y184671D01*
X59911Y184156D01*
X59818Y183931D01*
X59726Y183712D01*
X56715Y176425D01*
X56618Y176200D01*
X56525Y175975D01*
X56205Y175194D01*
X56076Y175067D01*
X55895Y175080D01*
X55147Y175470D01*
X54927Y175582D01*
X54712Y175698D01*
X53991Y176099D01*
X53781Y176144D01*
X53573Y176084D01*
X50101Y173702D01*
X49902Y173566D01*
X49700Y173431D01*
X49261Y173127D01*
X49069Y173081D01*
X48891Y173164D01*
X48516Y173534D01*
X48169Y173887D01*
X47084Y174966D01*
X46737Y175307D01*
X45305Y176739D01*
X44930Y177120D01*
X44848Y177300D01*
X44892Y177494D01*
X45197Y177934D01*
X45332Y178132D01*
X45473Y178335D01*
X47909Y181882D01*
X47979Y182091D01*
X47941Y182306D01*
X47887Y182442D01*
X47001Y184309D01*
X46341Y186294D01*
X46282Y186441D01*
X46161Y186617D01*
X45972Y186717D01*
X41670Y187520D01*
X41430Y187569D01*
X41187Y187612D01*
X40666Y187705D01*
X40496Y187810D01*
X40427Y187998D01*
Y193596D01*
X40496Y193781D01*
X40666Y193884D01*
X41187Y193981D01*
X41430Y194025D01*
X41670Y194074D01*
X46102Y194894D01*
X46295Y194992D01*
X46427Y195170D01*
X46509Y195360D01*
X47159Y197155D01*
X48001Y198848D01*
X48094Y199060D01*
X48130Y199271D01*
X48061Y199477D01*
X45479Y203253D01*
X45337Y203456D01*
X45197Y203660D01*
X44892Y204095D01*
X44848Y204289D01*
X44930Y204474D01*
X45305Y204844D01*
X45652Y205196D01*
X46737Y206275D01*
X47084Y206628D01*
X48169Y207713D01*
X48516Y208049D01*
X48891Y208430D01*
X49069Y208510D01*
X49261Y208462D01*
X49700Y208163D01*
X49902Y208025D01*
X50101Y207887D01*
X53963Y205239D01*
X54169Y205171D01*
X54387Y205206D01*
X54577Y205282D01*
X54593Y205294D01*
X56213Y206062D01*
X57925Y206655D01*
X58152Y206748D01*
X58331Y206873D01*
X58434Y207067D01*
X59291Y211689D01*
X59336Y211934D01*
X59384Y212178D01*
X59481Y212694D01*
X59583Y212862D01*
X59769Y212932D01*
G37*
G36*
X110581Y103766D02*X110658Y104488D01*
X112133Y105345D01*
X145277Y121925D01*
X127048Y131073D01*
X120906Y134588D01*
X114970Y138445D01*
X110652Y141304D01*
X110772Y145335D01*
X110740Y159246D01*
X114081Y161449D01*
X117266Y163641D01*
X110766Y163673D01*
Y192275D01*
X114087D01*
Y185846D01*
X120781Y190138D01*
X117423Y192341D01*
X117385Y207667D01*
X114087Y205567D01*
Y194788D01*
X110755Y194760D01*
X110749Y214568D01*
Y214763D01*
X113647Y216613D01*
X120070Y220742D01*
X124319Y223520D01*
X124362Y193127D01*
X124558Y192481D01*
X125209Y192281D01*
X141452Y192232D01*
X127091Y182884D01*
X122142Y179775D01*
X110831Y172396D01*
X111173Y172370D01*
X119083Y172288D01*
X124297Y172392D01*
X124362Y156782D01*
X119279Y153538D01*
X114287Y150164D01*
X124085Y143903D01*
Y150364D01*
X160940Y131918D01*
X180851Y121920D01*
X145391Y104141D01*
X180851Y86361D01*
X130845Y61345D01*
X124108Y58020D01*
X124085Y75799D01*
X145272Y86367D01*
X110581Y103766D01*
G37*
G36*
X119430Y150452D02*X121860Y152068D01*
Y148916D01*
X119430Y150452D01*
G37*
G36*
X133352Y167850D02*X144723Y173591D01*
X147729Y175045D01*
X179131Y175056D01*
Y167839D01*
X133352Y167850D01*
G37*
G36*
X151027Y143393D02*Y150338D01*
X161580D01*
Y158970D01*
X161585Y159229D01*
X151027Y159224D01*
Y166168D01*
X179163Y166245D01*
X179137Y159198D01*
X168883Y159181D01*
X168612Y158845D01*
X168595Y143345D01*
X151027Y143393D01*
G37*
G36*
X150984Y176705D02*X151006Y183720D01*
X151001Y183964D01*
X161580Y183953D01*
Y192557D01*
X150984Y192541D01*
X151006Y199550D01*
X151001Y199795D01*
X179131Y199778D01*
X179137Y192557D01*
X168590Y192552D01*
Y176727D01*
X150984Y176705D01*
G37*
G54D95*X17000Y278000D02*X117000D01*
Y248000D01*
X17000D01*
Y278000D01*
X25000Y28000D02*X195000D01*
X196000Y27000D01*
Y8000D01*
X25000D01*
Y28000D01*
X123000Y278000D02*Y246000D01*
X203000D01*
Y279000D01*
X123000D01*
X199000Y14500D02*X199500Y15000D01*
X201000D01*
X201500Y14500D01*
Y13500D01*
X199000Y11000D02*X201500Y13500D01*
X199000Y11000D02*X201500D01*
X199000Y43500D02*X199500Y44000D01*
X201000D01*
X201500Y43500D01*
Y42500D01*
X199000Y40000D02*X201500Y42500D01*
X199000Y40000D02*X201500D01*
X199000Y34200D02*X199800Y35000D01*
Y31000D01*
X199000D02*X200500D01*
X199000Y24200D02*X199800Y25000D01*
Y21000D01*
X199000D02*X200500D01*
X15000Y44500D02*X15500Y45000D01*
X16500D01*
X17000Y44500D01*
X16500Y41000D02*X17000Y41500D01*
X15500Y41000D02*X16500D01*
X15000Y41500D02*X15500Y41000D01*
Y43200D02*X16500D01*
X17000Y44500D02*Y43700D01*
Y42700D02*Y41500D01*
Y42700D02*X16500Y43200D01*
X17000Y43700D02*X16500Y43200D01*
X18200Y42500D02*X20200Y45000D01*
X18200Y42500D02*X20700D01*
X20200Y45000D02*Y41000D01*
X15000Y34500D02*X15500Y35000D01*
X16500D01*
X17000Y34500D01*
X16500Y31000D02*X17000Y31500D01*
X15500Y31000D02*X16500D01*
X15000Y31500D02*X15500Y31000D01*
Y33200D02*X16500D01*
X17000Y34500D02*Y33700D01*
Y32700D02*Y31500D01*
Y32700D02*X16500Y33200D01*
X17000Y33700D02*X16500Y33200D01*
X18200Y34500D02*X18700Y35000D01*
X19700D01*
X20200Y34500D01*
X19700Y31000D02*X20200Y31500D01*
X18700Y31000D02*X19700D01*
X18200Y31500D02*X18700Y31000D01*
Y33200D02*X19700D01*
X20200Y34500D02*Y33700D01*
Y32700D02*Y31500D01*
Y32700D02*X19700Y33200D01*
X20200Y33700D02*X19700Y33200D01*
X15000Y24500D02*X15500Y25000D01*
X16500D01*
X17000Y24500D01*
X16500Y21000D02*X17000Y21500D01*
X15500Y21000D02*X16500D01*
X15000Y21500D02*X15500Y21000D01*
Y23200D02*X16500D01*
X17000Y24500D02*Y23700D01*
Y22700D02*Y21500D01*
Y22700D02*X16500Y23200D01*
X17000Y23700D02*X16500Y23200D01*
X18200Y24500D02*X18700Y25000D01*
X19700D01*
X20200Y24500D01*
X19700Y21000D02*X20200Y21500D01*
X18700Y21000D02*X19700D01*
X18200Y21500D02*X18700Y21000D01*
Y23200D02*X19700D01*
X20200Y24500D02*Y23700D01*
Y22700D02*Y21500D01*
Y22700D02*X19700Y23200D01*
X20200Y23700D02*X19700Y23200D01*
X15000Y14500D02*X15500Y15000D01*
X16500D01*
X17000Y14500D01*
X16500Y11000D02*X17000Y11500D01*
X15500Y11000D02*X16500D01*
X15000Y11500D02*X15500Y11000D01*
Y13200D02*X16500D01*
X17000Y14500D02*Y13700D01*
Y12700D02*Y11500D01*
Y12700D02*X16500Y13200D01*
X17000Y13700D02*X16500Y13200D01*
X18200Y12500D02*X20200Y15000D01*
X18200Y12500D02*X20700D01*
X20200Y15000D02*Y11000D01*
X36000Y133000D02*X38000D01*
X36000D02*Y131000D01*
X36500Y131500D01*
X37500D01*
X38000Y131000D01*
Y129500D01*
X37500Y129000D02*X38000Y129500D01*
X36500Y129000D02*X37500D01*
X36000Y129500D02*X36500Y129000D01*
X39200Y133000D02*X40200Y129000D01*
X41200Y133000D01*
X204000Y35000D02*X206000D01*
X204000D02*Y33000D01*
X204500Y33500D01*
X205500D01*
X206000Y33000D01*
Y31500D01*
X205500Y31000D02*X206000Y31500D01*
X204500Y31000D02*X205500D01*
X204000Y31500D02*X204500Y31000D01*
X207200Y35000D02*X208200Y31000D01*
X209200Y35000D01*
X101244Y280081D02*X104244D01*
X101244D02*X100244Y280781D01*
Y281881D02*Y280781D01*
Y281881D02*X101244Y282581D01*
X104244D01*
X102244D02*Y280081D01*
X100744Y283781D02*X103744D01*
X100744D02*X100244Y284281D01*
Y285281D02*Y284281D01*
Y285281D02*X100744Y285781D01*
X103744D01*
X104244Y285281D02*X103744Y285781D01*
X104244Y285281D02*Y284281D01*
X103744Y283781D02*X104244Y284281D01*
X103744Y286981D02*X104244Y287481D01*
X100744Y286981D02*X103744D01*
X100744D02*X100244Y287481D01*
Y288481D02*Y287481D01*
Y288481D02*X100744Y288981D01*
X103744D01*
X104244Y288481D02*X103744Y288981D01*
X104244Y288481D02*Y287481D01*
X103244Y286981D02*X101244Y288981D01*
X91244Y281081D02*X94244D01*
X91244D02*X90244Y281781D01*
Y282881D02*Y281781D01*
Y282881D02*X91244Y283581D01*
X94244D01*
X92244D02*Y281081D01*
X90244Y285781D02*Y284781D01*
Y285281D02*X94244D01*
Y285781D02*Y284781D01*
X93744Y286981D02*X94244Y287481D01*
X90744Y286981D02*X93744D01*
X90744D02*X90244Y287481D01*
Y288481D02*Y287481D01*
Y288481D02*X90744Y288981D01*
X93744D01*
X94244Y288481D02*X93744Y288981D01*
X94244Y288481D02*Y287481D01*
X93244Y286981D02*X91244Y288981D01*
X81244Y281081D02*X84244D01*
X81244D02*X80244Y281781D01*
Y282881D02*Y281781D01*
Y282881D02*X81244Y283581D01*
X84244D01*
X82244D02*Y281081D01*
X80244Y285781D02*Y284781D01*
Y285281D02*X84244D01*
Y285781D02*Y284781D01*
X81044Y286981D02*X80244Y287781D01*
X84244D01*
Y288481D02*Y286981D01*
X111244Y281081D02*X114244D01*
X111244D02*X110244Y281781D01*
Y282881D02*Y281781D01*
Y282881D02*X111244Y283581D01*
X114244D01*
X112244D02*Y281081D01*
X110744Y284781D02*X113744D01*
X110744D02*X110244Y285281D01*
Y286281D02*Y285281D01*
Y286281D02*X110744Y286781D01*
X113744D01*
X114244Y286281D02*X113744Y286781D01*
X114244Y286281D02*Y285281D01*
X113744Y284781D02*X114244Y285281D01*
X111044Y287981D02*X110244Y288781D01*
X114244D01*
Y289481D02*Y287981D01*
X130761Y285663D02*X131261Y285163D01*
X129261Y285663D02*X130761D01*
X128761Y285163D02*X129261Y285663D01*
X128761Y285163D02*Y282163D01*
X129261Y281663D01*
X130761D01*
X131261Y282163D01*
Y283163D02*Y282163D01*
X130761Y283663D02*X131261Y283163D01*
X129761Y283663D02*X130761D01*
X132461Y285663D02*Y281663D01*
Y285663D02*X134961Y281663D01*
Y285663D02*Y281663D01*
X136661Y285663D02*Y281663D01*
X137961Y285663D02*X138661Y284963D01*
Y282363D01*
X137961Y281663D02*X138661Y282363D01*
X136161Y281663D02*X137961D01*
X136161Y285663D02*X137961D01*
X153761D02*X155761D01*
X153761D02*Y283663D01*
X154261Y284163D01*
X155261D01*
X155761Y283663D01*
Y282163D01*
X155261Y281663D02*X155761Y282163D01*
X154261Y281663D02*X155261D01*
X153761Y282163D02*X154261Y281663D01*
X156961Y285663D02*X157961Y281663D01*
X158961Y285663D01*
X161961Y284663D02*Y281663D01*
Y284663D02*X162661Y285663D01*
X163761D01*
X164461Y284663D01*
Y281663D01*
X161961Y283663D02*X164461D01*
X165661Y285663D02*X167661D01*
X168161Y285163D01*
Y284163D01*
X167661Y283663D02*X168161Y284163D01*
X166161Y283663D02*X167661D01*
X166161Y285663D02*Y281663D01*
X166961Y283663D02*X168161Y281663D01*
X169861Y285663D02*Y281663D01*
X171161Y285663D02*X171861Y284963D01*
Y282363D01*
X171161Y281663D02*X171861Y282363D01*
X169361Y281663D02*X171161D01*
X169361Y285663D02*X171161D01*
X181761D02*Y281663D01*
X183061Y285663D02*X183761Y284963D01*
Y282363D01*
X183061Y281663D02*X183761Y282363D01*
X181261Y281663D02*X183061D01*
X181261Y285663D02*X183061D01*
X186461D02*X186961Y285163D01*
X185461Y285663D02*X186461D01*
X184961Y285163D02*X185461Y285663D01*
X184961Y285163D02*Y282163D01*
X185461Y281663D01*
X186461Y283863D02*X186961Y283363D01*
X184961Y283863D02*X186461D01*
X185461Y281663D02*X186461D01*
X186961Y282163D01*
Y283363D02*Y282163D01*
X194261Y285663D02*Y281663D01*
X195561Y285663D02*X196261Y284963D01*
Y282363D01*
X195561Y281663D02*X196261Y282363D01*
X193761Y281663D02*X195561D01*
X193761Y285663D02*X195561D01*
X197461D02*X199461D01*
X197461D02*Y283663D01*
X197961Y284163D01*
X198961D01*
X199461Y283663D01*
Y282163D01*
X198961Y281663D02*X199461Y282163D01*
X197961Y281663D02*X198961D01*
X197461Y282163D02*X197961Y281663D01*
X71244Y280081D02*X74244D01*
X71244D02*X70244Y280781D01*
Y281881D02*Y280781D01*
Y281881D02*X71244Y282581D01*
X74244D01*
X72244D02*Y280081D01*
X70244Y284781D02*Y283781D01*
Y284281D02*X74244D01*
Y284781D02*Y283781D01*
X70744Y285981D02*X70244Y286481D01*
Y287981D02*Y286481D01*
Y287981D02*X70744Y288481D01*
X71744D01*
X74244Y285981D02*X71744Y288481D01*
X74244D02*Y285981D01*
X87175Y296921D02*X91175Y301921D01*
X87175Y296921D02*X92175D01*
X91175Y301921D02*Y293921D01*
X94575Y300321D02*X96175Y301921D01*
Y293921D01*
X94575D02*X97575D01*
X99975Y296921D02*X103975Y301921D01*
X99975Y296921D02*X104975D01*
X103975Y301921D02*Y293921D01*
X107375Y300921D02*X108375Y301921D01*
X110375D01*
X111375Y300921D01*
X110375Y293921D02*X111375Y294921D01*
X108375Y293921D02*X110375D01*
X107375Y294921D02*X108375Y293921D01*
Y298321D02*X110375D01*
X111375Y300921D02*Y299321D01*
Y297321D02*Y294921D01*
Y297321D02*X110375Y298321D01*
X111375Y299321D02*X110375Y298321D01*
X114775Y293921D02*X117775D01*
X118775Y294921D01*
X117775Y295921D02*X118775Y294921D01*
X114775Y295921D02*X117775D01*
X113775Y296921D02*X114775Y295921D01*
X113775Y296921D02*X114775Y297921D01*
X117775D01*
X118775Y296921D01*
X113775Y294921D02*X114775Y293921D01*
X121175Y301921D02*Y293921D01*
Y296921D02*X122175Y297921D01*
X124175D01*
X125175Y296921D01*
Y293921D01*
X127575Y299921D02*Y299721D01*
Y296921D02*Y293921D01*
X130575D02*X133575D01*
X129575Y294921D02*X130575Y293921D01*
X129575Y296921D02*Y294921D01*
Y296921D02*X130575Y297921D01*
X132575D01*
X133575Y296921D01*
X129575Y295921D02*X133575D01*
Y296921D02*Y295921D01*
X135975Y301921D02*Y294921D01*
X136975Y293921D01*
X142975Y301921D02*Y293921D01*
X141975D02*X142975Y294921D01*
X139975Y293921D02*X141975D01*
X138975Y294921D02*X139975Y293921D01*
X138975Y296921D02*Y294921D01*
Y296921D02*X139975Y297921D01*
X141975D01*
X142975Y296921D01*
X148975Y297921D02*X150975Y293921D01*
X152975Y297921D02*X150975Y293921D01*
X155375D02*X156375D01*
X158775Y300921D02*X159775Y301921D01*
X162775D01*
X163775Y300921D01*
Y298921D01*
X158775Y293921D02*X163775Y298921D01*
X158775Y293921D02*X163775D01*
X60244Y280081D02*X63244D01*
X60244D02*X59244Y280781D01*
Y281881D02*Y280781D01*
Y281881D02*X60244Y282581D01*
X63244D01*
X61244D02*Y280081D01*
X59244Y284781D02*Y283781D01*
Y284281D02*X63244D01*
Y284781D02*Y283781D01*
X59744Y285981D02*X59244Y286481D01*
Y287481D02*Y286481D01*
Y287481D02*X59744Y287981D01*
X63244Y287481D02*X62744Y287981D01*
X63244Y287481D02*Y286481D01*
X62744Y285981D02*X63244Y286481D01*
X61044Y287481D02*Y286481D01*
X59744Y287981D02*X60544D01*
X61544D02*X62744D01*
X61544D02*X61044Y287481D01*
X60544Y287981D02*X61044Y287481D01*
X50000Y282500D02*X54000D01*
X50000Y284000D02*Y282000D01*
Y284000D02*X50500Y284500D01*
X51500D01*
X52000Y284000D02*X51500Y284500D01*
X52000Y284000D02*Y282500D01*
X50000Y285700D02*X52000D01*
X54000Y286200D01*
X52000Y287200D01*
X54000Y288200D01*
X52000Y288700D01*
X50000D02*X52000D01*
X50000Y289900D02*X54000D01*
X50000D02*X52000Y291400D01*
X50000Y292900D01*
X54000D01*
X53500Y294100D02*X54000Y294600D01*
X50500Y294100D02*X53500D01*
X50500D02*X50000Y294600D01*
Y295600D02*Y294600D01*
Y295600D02*X50500Y296100D01*
X53500D01*
X54000Y295600D02*X53500Y296100D01*
X54000Y295600D02*Y294600D01*
X53000Y294100D02*X51000Y296100D01*
X40000Y282500D02*X44000D01*
X40000Y284000D02*Y282000D01*
Y284000D02*X40500Y284500D01*
X41500D01*
X42000Y284000D02*X41500Y284500D01*
X42000Y284000D02*Y282500D01*
X40000Y285700D02*X42000D01*
X44000Y286200D01*
X42000Y287200D01*
X44000Y288200D01*
X42000Y288700D01*
X40000D02*X42000D01*
X40000Y289900D02*X44000D01*
X40000D02*X42000Y291400D01*
X40000Y292900D01*
X44000D01*
X40800Y294100D02*X40000Y294900D01*
X44000D01*
Y295600D02*Y294100D01*
X31000Y282500D02*X35000D01*
X31000Y284000D02*Y282000D01*
Y284000D02*X31500Y284500D01*
X32500D01*
X33000Y284000D02*X32500Y284500D01*
X33000Y284000D02*Y282500D01*
X31000Y285700D02*X33000D01*
X35000Y286200D01*
X33000Y287200D01*
X35000Y288200D01*
X33000Y288700D01*
X31000D02*X33000D01*
X31000Y289900D02*X35000D01*
X31000D02*X33000Y291400D01*
X31000Y292900D01*
X35000D01*
X31500Y294100D02*X31000Y294600D01*
Y296100D02*Y294600D01*
Y296100D02*X31500Y296600D01*
X32500D01*
X35000Y294100D02*X32500Y296600D01*
X35000D02*Y294100D01*
X23000Y282500D02*X27000D01*
X23000Y284000D02*Y282000D01*
Y284000D02*X23500Y284500D01*
X24500D01*
X25000Y284000D02*X24500Y284500D01*
X25000Y284000D02*Y282500D01*
X23000Y285700D02*X25000D01*
X27000Y286200D01*
X25000Y287200D01*
X27000Y288200D01*
X25000Y288700D01*
X23000D02*X25000D01*
X23000Y289900D02*X27000D01*
X23000D02*X25000Y291400D01*
X23000Y292900D01*
X27000D01*
X23500Y294100D02*X23000Y294600D01*
Y295600D02*Y294600D01*
Y295600D02*X23500Y296100D01*
X27000Y295600D02*X26500Y296100D01*
X27000Y295600D02*Y294600D01*
X26500Y294100D02*X27000Y294600D01*
X24800Y295600D02*Y294600D01*
X23500Y296100D02*X24300D01*
X25300D02*X26500D01*
X25300D02*X24800Y295600D01*
X24300Y296100D02*X24800Y295600D01*
X8000Y255000D02*X8500Y254500D01*
X6500Y255000D02*X8000D01*
X6000Y254500D02*X6500Y255000D01*
X6000Y254500D02*Y253500D01*
X6500Y253000D01*
X8000D01*
X8500Y252500D01*
Y251500D01*
X8000Y251000D02*X8500Y251500D01*
X6500Y251000D02*X8000D01*
X6000Y251500D02*X6500Y251000D01*
X9700Y254000D02*Y253900D01*
Y252500D02*Y251000D01*
X12200Y253000D02*X12700Y252500D01*
X11200Y253000D02*X12200D01*
X10700Y252500D02*X11200Y253000D01*
X10700Y252500D02*Y251500D01*
X11200Y251000D01*
X12200D01*
X12700Y251500D01*
X10700Y250000D02*X11200Y249500D01*
X12200D01*
X12700Y250000D01*
Y253000D02*Y250000D01*
X6000Y266000D02*X8000D01*
X6000D02*Y264000D01*
X6500Y264500D01*
X7500D01*
X8000Y264000D01*
Y262500D01*
X7500Y262000D02*X8000Y262500D01*
X6500Y262000D02*X7500D01*
X6000Y262500D02*X6500Y262000D01*
X9200Y266000D02*X10200Y262000D01*
X11200Y266000D01*
X5000Y275000D02*X5500Y274500D01*
X3500Y275000D02*X5000D01*
X3000Y274500D02*X3500Y275000D01*
X3000Y274500D02*Y271500D01*
X3500Y271000D01*
X5000D01*
X5500Y271500D01*
Y272500D02*Y271500D01*
X5000Y273000D02*X5500Y272500D01*
X4000Y273000D02*X5000D01*
X6700Y275000D02*Y271000D01*
Y275000D02*X9200Y271000D01*
Y275000D02*Y271000D01*
X10900Y275000D02*Y271000D01*
X12200Y275000D02*X12900Y274300D01*
Y271700D01*
X12200Y271000D02*X12900Y271700D01*
X10400Y271000D02*X12200D01*
X10400Y275000D02*X12200D01*
X35871Y230911D02*Y224911D01*
Y227161D02*X36621Y227911D01*
X38121D01*
X38871Y227161D01*
Y224911D01*
X41421Y230911D02*Y225661D01*
X42171Y224911D01*
X40671Y228661D02*X42171D01*
X44421Y230911D02*Y225661D01*
X45171Y224911D01*
X43671Y228661D02*X45171D01*
X47421Y227161D02*Y222661D01*
X46671Y227911D02*X47421Y227161D01*
X48171Y227911D01*
X49671D01*
X50421Y227161D01*
Y225661D01*
X49671Y224911D02*X50421Y225661D01*
X48171Y224911D02*X49671D01*
X47421Y225661D02*X48171Y224911D01*
X52221Y228661D02*X52971D01*
X52221Y227161D02*X52971D01*
X54771Y225661D02*X59271Y230161D01*
X61071Y225661D02*X65571Y230161D01*
X69621Y227911D02*X70371Y227161D01*
X68121Y227911D02*X69621D01*
X67371Y227161D02*X68121Y227911D01*
X67371Y227161D02*Y225661D01*
X68121Y224911D01*
X69621D01*
X70371Y225661D01*
X67371Y223411D02*X68121Y222661D01*
X69621D01*
X70371Y223411D01*
Y227911D02*Y223411D01*
X72171Y229411D02*Y229261D01*
Y227161D02*Y224911D01*
X74421Y230911D02*Y225661D01*
X75171Y224911D01*
X73671Y228661D02*X75171D01*
X76671Y224911D02*X77421D01*
X79221Y229411D02*Y229261D01*
Y227161D02*Y224911D01*
X80721Y227161D02*Y225661D01*
Y227161D02*X81471Y227911D01*
X82971D01*
X83721Y227161D01*
Y225661D01*
X82971Y224911D02*X83721Y225661D01*
X81471Y224911D02*X82971D01*
X80721Y225661D02*X81471Y224911D01*
X85521Y225661D02*X90021Y230161D01*
X91821Y230911D02*Y224911D01*
Y225661D02*X92571Y224911D01*
X94071D01*
X94821Y225661D01*
Y227161D02*Y225661D01*
X94071Y227911D02*X94821Y227161D01*
X92571Y227911D02*X94071D01*
X91821Y227161D02*X92571Y227911D01*
X96621Y230161D02*Y225661D01*
Y230161D02*X97371Y230911D01*
X98871D01*
X99621Y230161D01*
Y225661D01*
X98871Y224911D02*X99621Y225661D01*
X97371Y224911D02*X98871D01*
X96621Y225661D02*X97371Y224911D01*
X104421Y230911D02*Y224911D01*
X103671D02*X104421Y225661D01*
X102171Y224911D02*X103671D01*
X101421Y225661D02*X102171Y224911D01*
X101421Y227161D02*Y225661D01*
Y227161D02*X102171Y227911D01*
X103671D01*
X104421Y227161D01*
X106971D02*Y224911D01*
Y227161D02*X107721Y227911D01*
X109221D01*
X106221D02*X106971Y227161D01*
X111771Y224911D02*X114021D01*
X114771Y225661D01*
X114021Y226411D02*X114771Y225661D01*
X111771Y226411D02*X114021D01*
X111021Y227161D02*X111771Y226411D01*
X111021Y227161D02*X111771Y227911D01*
X114021D01*
X114771Y227161D01*
X111021Y225661D02*X111771Y224911D01*
X116571Y229411D02*Y224911D01*
Y229411D02*X117621Y230911D01*
X119271D01*
X120321Y229411D01*
Y224911D01*
X116571Y227911D02*X120321D01*
X35720Y243750D02*Y235750D01*
Y238750D02*X36720Y239750D01*
X38720D01*
X39720Y238750D01*
Y235750D01*
X43120Y243750D02*Y236750D01*
X44120Y235750D01*
X42120Y240750D02*X44120D01*
X47120Y243750D02*Y236750D01*
X48120Y235750D01*
X46120Y240750D02*X48120D01*
X51120Y238750D02*Y232750D01*
X50120Y239750D02*X51120Y238750D01*
X52120Y239750D01*
X54120D01*
X55120Y238750D01*
Y236750D01*
X54120Y235750D02*X55120Y236750D01*
X52120Y235750D02*X54120D01*
X51120Y236750D02*X52120Y235750D01*
X57520Y240750D02*X58520D01*
X57520Y238750D02*X58520D01*
X60920Y236750D02*X66920Y242750D01*
X69320Y236750D02*X75320Y242750D01*
X77720Y239750D02*Y236750D01*
X78720Y235750D01*
X79720D01*
X80720Y236750D01*
Y239750D02*Y236750D01*
X81720Y235750D01*
X82720D01*
X83720Y236750D01*
Y239750D02*Y236750D01*
X86120Y239750D02*Y236750D01*
X87120Y235750D01*
X88120D01*
X89120Y236750D01*
Y239750D02*Y236750D01*
X90120Y235750D01*
X91120D01*
X92120Y236750D01*
Y239750D02*Y236750D01*
X94520Y239750D02*Y236750D01*
X95520Y235750D01*
X96520D01*
X97520Y236750D01*
Y239750D02*Y236750D01*
X98520Y235750D01*
X99520D01*
X100520Y236750D01*
Y239750D02*Y236750D01*
X102920Y235750D02*X103920D01*
X107320Y238750D02*Y235750D01*
Y238750D02*X108320Y239750D01*
X109320D01*
X110320Y238750D01*
Y235750D01*
Y238750D02*X111320Y239750D01*
X112320D01*
X113320Y238750D01*
Y235750D01*
X106320Y239750D02*X107320Y238750D01*
X118720Y239750D02*X119720Y238750D01*
X116720Y239750D02*X118720D01*
X115720Y238750D02*X116720Y239750D01*
X115720Y238750D02*Y236750D01*
X116720Y235750D01*
X119720Y239750D02*Y236750D01*
X120720Y235750D01*
X116720D02*X118720D01*
X119720Y236750D01*
X124120Y238750D02*Y235750D01*
Y238750D02*X125120Y239750D01*
X127120D01*
X123120D02*X124120Y238750D01*
X130520Y235750D02*X133520D01*
X134520Y236750D01*
X133520Y237750D02*X134520Y236750D01*
X130520Y237750D02*X133520D01*
X129520Y238750D02*X130520Y237750D01*
X129520Y238750D02*X130520Y239750D01*
X133520D01*
X134520Y238750D01*
X129520Y236750D02*X130520Y235750D01*
X136920Y239750D02*Y236750D01*
X137920Y235750D01*
X138920D01*
X139920Y236750D01*
Y239750D02*Y236750D01*
X140920Y235750D01*
X141920D01*
X142920Y236750D01*
Y239750D02*Y236750D01*
X148320Y239750D02*X149320Y238750D01*
X146320Y239750D02*X148320D01*
X145320Y238750D02*X146320Y239750D01*
X145320Y238750D02*Y236750D01*
X146320Y235750D01*
X149320Y239750D02*Y236750D01*
X150320Y235750D01*
X146320D02*X148320D01*
X149320Y236750D01*
X153720Y238750D02*Y235750D01*
Y238750D02*X154720Y239750D01*
X156720D01*
X152720D02*X153720Y238750D01*
X160120Y235750D02*X163120D01*
X164120Y236750D01*
X163120Y237750D02*X164120Y236750D01*
X160120Y237750D02*X163120D01*
X159120Y238750D02*X160120Y237750D01*
X159120Y238750D02*X160120Y239750D01*
X163120D01*
X164120Y238750D01*
X159120Y236750D02*X160120Y235750D01*
X166520D02*X167520D01*
X169920Y238750D02*Y236750D01*
Y238750D02*X170920Y239750D01*
X172920D01*
X173920Y238750D01*
Y236750D01*
X172920Y235750D02*X173920Y236750D01*
X170920Y235750D02*X172920D01*
X169920Y236750D02*X170920Y235750D01*
X177320Y238750D02*Y235750D01*
Y238750D02*X178320Y239750D01*
X180320D01*
X176320D02*X177320Y238750D01*
X185720Y239750D02*X186720Y238750D01*
X183720Y239750D02*X185720D01*
X182720Y238750D02*X183720Y239750D01*
X182720Y238750D02*Y236750D01*
X183720Y235750D01*
X185720D01*
X186720Y236750D01*
X182720Y233750D02*X183720Y232750D01*
X185720D01*
X186720Y233750D01*
Y239750D02*Y233750D01*
X205000Y81000D02*X206500D01*
X207000Y81500D01*
Y82500D02*Y81500D01*
Y82500D02*X206500Y83000D01*
X205000D02*X206500D01*
X205500Y84700D02*X207000D01*
X205500D02*X205000Y85200D01*
Y85700D02*Y85200D01*
Y85700D02*X205500Y86200D01*
X207000D01*
X205000Y84200D02*X205500Y84700D01*
X203000Y87400D02*X207000D01*
X205500D02*X207000Y88900D01*
X205500Y87400D02*X204500Y88400D01*
X205500Y90600D02*X207000D01*
X205500D02*X205000Y91100D01*
Y91600D02*Y91100D01*
Y91600D02*X205500Y92100D01*
X207000D01*
X205000Y90100D02*X205500Y90600D01*
Y93300D02*X206500D01*
X205500D02*X205000Y93800D01*
Y94800D02*Y93800D01*
Y94800D02*X205500Y95300D01*
X206500D01*
X207000Y94800D02*X206500Y95300D01*
X207000Y94800D02*Y93800D01*
X206500Y93300D02*X207000Y93800D01*
X205000Y96500D02*X206500D01*
X207000Y97000D01*
Y97500D02*Y97000D01*
Y97500D02*X206500Y98000D01*
X205000D02*X206500D01*
X207000Y98500D01*
Y99000D02*Y98500D01*
Y99000D02*X206500Y99500D01*
X205000D02*X206500D01*
X205500Y101200D02*X207000D01*
X205500D02*X205000Y101700D01*
Y102200D02*Y101700D01*
Y102200D02*X205500Y102700D01*
X207000D01*
X205000Y100700D02*X205500Y101200D01*
X233200Y299300D02*Y297800D01*
Y299300D02*X232700Y299800D01*
X231700D02*X232700D01*
X231700D02*X231200Y299300D01*
Y297800D01*
X229500Y299800D02*Y298300D01*
X229000Y297800D01*
X228500D02*X229000D01*
X228500D02*X228000Y298300D01*
Y299800D02*Y298300D01*
X230000Y297800D02*X229500Y298300D01*
X226800Y299800D02*Y295800D01*
Y298300D02*X225300Y299800D01*
X226800Y298300D02*X225800Y297300D01*
X223600Y299800D02*Y298300D01*
X223100Y297800D01*
X222600D02*X223100D01*
X222600D02*X222100Y298300D01*
Y299800D02*Y298300D01*
X224100Y297800D02*X223600Y298300D01*
X220900Y299300D02*Y298300D01*
X220400Y297800D01*
X219400D02*X220400D01*
X219400D02*X218900Y298300D01*
Y299300D02*Y298300D01*
X219400Y299800D02*X218900Y299300D01*
X219400Y299800D02*X220400D01*
X220900Y299300D02*X220400Y299800D01*
X217700Y299300D02*Y297800D01*
Y299300D02*X217200Y299800D01*
X216700D02*X217200D01*
X216700D02*X216200Y299300D01*
Y297800D01*
Y299300D02*X215700Y299800D01*
X215200D02*X215700D01*
X215200D02*X214700Y299300D01*
Y297800D01*
X213000Y299800D02*Y298300D01*
X212500Y297800D01*
X212000D02*X212500D01*
X212000D02*X211500Y298300D01*
Y299800D02*Y298300D01*
X213500Y297800D02*X213000Y298300D01*
X57000Y245000D02*Y243500D01*
X57500Y243000D01*
X58500D01*
X59000Y243500D01*
Y245000D02*Y243500D01*
X60700Y244500D02*Y243000D01*
Y244500D02*X61200Y245000D01*
X61700D01*
X62200Y244500D01*
Y243000D01*
X60200Y245000D02*X60700Y244500D01*
X63400Y247000D02*Y243000D01*
Y244500D02*X64900Y243000D01*
X63400Y244500D02*X64400Y245500D01*
X66600Y244500D02*Y243000D01*
Y244500D02*X67100Y245000D01*
X67600D01*
X68100Y244500D01*
Y243000D01*
X66100Y245000D02*X66600Y244500D01*
X69300D02*Y243500D01*
Y244500D02*X69800Y245000D01*
X70800D01*
X71300Y244500D01*
Y243500D01*
X70800Y243000D02*X71300Y243500D01*
X69800Y243000D02*X70800D01*
X69300Y243500D02*X69800Y243000D01*
X72500Y245000D02*Y243500D01*
X73000Y243000D01*
X73500D01*
X74000Y243500D01*
Y245000D02*Y243500D01*
X74500Y243000D01*
X75000D01*
X75500Y243500D01*
Y245000D02*Y243500D01*
X77200Y244500D02*Y243000D01*
Y244500D02*X77700Y245000D01*
X78200D01*
X78700Y244500D01*
Y243000D01*
X76700Y245000D02*X77200Y244500D01*
X17000Y245000D02*Y243500D01*
X17500Y243000D01*
X18500D01*
X19000Y243500D01*
Y245000D02*Y243500D01*
X20700Y244500D02*Y243000D01*
Y244500D02*X21200Y245000D01*
X21700D01*
X22200Y244500D01*
Y243000D01*
X20200Y245000D02*X20700Y244500D01*
X23400Y247000D02*Y243000D01*
Y244500D02*X24900Y243000D01*
X23400Y244500D02*X24400Y245500D01*
X26600Y244500D02*Y243000D01*
Y244500D02*X27100Y245000D01*
X27600D01*
X28100Y244500D01*
Y243000D01*
X26100Y245000D02*X26600Y244500D01*
X29300D02*Y243500D01*
Y244500D02*X29800Y245000D01*
X30800D01*
X31300Y244500D01*
Y243500D01*
X30800Y243000D02*X31300Y243500D01*
X29800Y243000D02*X30800D01*
X29300Y243500D02*X29800Y243000D01*
X32500Y245000D02*Y243500D01*
X33000Y243000D01*
X33500D01*
X34000Y243500D01*
Y245000D02*Y243500D01*
X34500Y243000D01*
X35000D01*
X35500Y243500D01*
Y245000D02*Y243500D01*
X37200Y244500D02*Y243000D01*
Y244500D02*X37700Y245000D01*
X38200D01*
X38700Y244500D01*
Y243000D01*
X36700Y245000D02*X37200Y244500D01*
X109000Y270000D02*Y268500D01*
X109500Y268000D01*
X110500D01*
X111000Y268500D01*
Y270000D02*Y268500D01*
X112700Y269500D02*Y268000D01*
Y269500D02*X113200Y270000D01*
X113700D01*
X114200Y269500D01*
Y268000D01*
X112200Y270000D02*X112700Y269500D01*
X115400Y272000D02*Y268000D01*
Y269500D02*X116900Y268000D01*
X115400Y269500D02*X116400Y270500D01*
X118600Y269500D02*Y268000D01*
Y269500D02*X119100Y270000D01*
X119600D01*
X120100Y269500D01*
Y268000D01*
X118100Y270000D02*X118600Y269500D01*
X121300D02*Y268500D01*
Y269500D02*X121800Y270000D01*
X122800D01*
X123300Y269500D01*
Y268500D01*
X122800Y268000D02*X123300Y268500D01*
X121800Y268000D02*X122800D01*
X121300Y268500D02*X121800Y268000D01*
X124500Y270000D02*Y268500D01*
X125000Y268000D01*
X125500D01*
X126000Y268500D01*
Y270000D02*Y268500D01*
X126500Y268000D01*
X127000D01*
X127500Y268500D01*
Y270000D02*Y268500D01*
X129200Y269500D02*Y268000D01*
Y269500D02*X129700Y270000D01*
X130200D01*
X130700Y269500D01*
Y268000D01*
X128700Y270000D02*X129200Y269500D01*
M02*
